<?xml version="1.0" encoding="UTF-8" standalone="no"?>
<!-- Uploaded to: SVG Repo, www.svgrepo.com, Generator: SVG Repo Mixer Tools -->

<svg
   fill="#000000"
   width="800px"
   height="800px"
   viewBox="0 0 36 36"
   version="1.1"
   preserveAspectRatio="xMidYMid meet"
   id="svg4"
   sodipodi:docname="backup-svgrepo-com.svg"
   inkscape:export-filename="backup-svgrepo-com.svg"
   inkscape:export-xdpi="96"
   inkscape:export-ydpi="96"
   xmlns:inkscape="http://www.inkscape.org/namespaces/inkscape"
   xmlns:sodipodi="http://sodipodi.sourceforge.net/DTD/sodipodi-0.dtd"
   xmlns="http://www.w3.org/2000/svg"
   xmlns:svg="http://www.w3.org/2000/svg">
  <defs
     id="defs4" />
  <sodipodi:namedview
     id="namedview4"
     pagecolor="#505050"
     bordercolor="#eeeeee"
     borderopacity="1"
     inkscape:showpageshadow="0"
     inkscape:pageopacity="0"
     inkscape:pagecheckerboard="0"
     inkscape:deskcolor="#505050" />
  <title
     id="title1">backup-solid</title>
  <path
     class="clr-i-solid clr-i-solid-path-1"
     d="M18,19.84l6.38-6.35A1,1,0,1,0,23,12.08L19,16V4a1,1,0,1,0-2,0V16l-4-3.95a1,1,0,0,0-1.41,1.42Z"
     id="path1" />
  <path
     class="clr-i-solid clr-i-solid-path-2"
     d="M19.41,21.26l-.74.74H33.93c-.17-.57-.79-2.31-3.09-8.63A1.94,1.94,0,0,0,28.93,12H26.55a3,3,0,0,1-.76,2.92Z"
     id="path2" />
  <path
     class="clr-i-solid clr-i-solid-path-3"
     d="M16.58,21.26,10.2,14.91A3,3,0,0,1,9.44,12H7.07a1.92,1.92,0,0,0-1.9,1.32C2.86,19.68,2.24,21.43,2.07,22H17.33Z"
     id="path3" />
  <path
     class="clr-i-solid clr-i-solid-path-4"
     d="M2,24v6a2,2,0,0,0,2,2H32a2,2,0,0,0,2-2V24Zm28,4H26V26h4Z"
     id="path4" />
  <rect
     x="0"
     y="0"
     width="36"
     height="36"
     fill-opacity="0"
     id="rect4" />
  <path
     style="fill:#ffb300;stroke-width:0;stroke-linecap:round;stroke-linejoin:round"
     d="m 50.607441,476.27829 c 5.720232,-16.96937 9.885429,-28.73411 26.055978,-73.59598 27.179561,-75.40409 39.852501,-110.04129 41.344491,-113.0011 4.6307,-9.1864 14.00982,-17.09495 24.43741,-20.60581 l 5.41721,-1.82391 30.76107,-0.21813 30.76106,-0.21813 -0.37818,1.54628 c -2.3426,9.57835 -2.27426,23.20454 0.16414,32.72818 1.8218,7.11539 6.93341,17.74384 11.2877,23.47024 1.82289,2.39732 39.44751,40.34367 83.61027,84.32523 l 80.29593,79.96647 H 215.36679 46.369072 Z"
     id="path5"
     transform="scale(0.045)" />
  <path
     style="fill:#ffb300;stroke-width:0;stroke-linecap:round;stroke-linejoin:round"
     d="m 495.74888,408.96097 c 44.17907,-43.92892 81.64867,-81.59022 83.26578,-83.69177 10.99803,-14.29277 15.73806,-33.33383 12.77991,-51.33793 -0.54538,-3.31937 -0.99688,-6.28072 -1.00331,-6.5808 -0.006,-0.30007 13.79382,-0.43583 30.66725,-0.30167 27.28067,0.21689 31.0875,0.37733 34.36714,1.44842 11.74657,3.83626 21.18263,11.80791 26.44593,22.3417 0.88207,1.76533 10.95908,29.0102 22.39336,60.54415 33.04697,91.13835 38.0258,105.04859 45.06317,125.90109 l 3.90384,11.56747 -169.10432,-0.01 -169.10433,-0.01 z"
     id="path6"
     transform="scale(0.045)" />
  <path
     style="fill:#ffb300;stroke-width:0;stroke-linecap:round;stroke-linejoin:round"
     d="m 327.14046,367.88244 c -70.00271,-69.65022 -72.91471,-72.64484 -74.26656,-76.37365 -3.90814,-10.77986 0.90807,-22.72221 11.19811,-27.76698 3.24086,-1.58885 4.64219,-1.87082 9.18868,-1.84889 9.4272,0.0455 7.17183,-1.83563 58.7319,48.98549 l 45.87832,45.2208 0.33529,-136.64139 0.33529,-136.641391 1.77717,-3.366172 c 3.85267,-7.29745 11.94438,-12.39242 19.68134,-12.39242 7.73696,0 15.82867,5.09497 19.68134,12.39242 l 1.77717,3.366172 0.33529,136.674241 0.33529,136.67423 41.91114,-40.99257 c 23.05114,-22.54592 44.25163,-43.40467 47.11223,-46.35278 6.70849,-6.91373 10.7468,-8.92299 17.93388,-8.92299 3.98762,0 5.79326,0.35542 8.71752,1.71598 11.47152,5.33729 16.33284,19.08833 10.54839,29.83783 -0.93066,1.72951 -29.23151,30.38093 -74.92392,75.85203 L 400,440.37511 Z"
     id="path7"
     transform="scale(0.045)" />
  <path
     style="fill:#ffb300;stroke-width:0;stroke-linecap:round;stroke-linejoin:round"
     d="m 81.186043,710.08535 c -17.064141,-3.35942 -30.723034,-16.07103 -34.92577,-32.50358 -1.286134,-5.02873 -1.331522,-7.56835 -1.331522,-74.50379 V 533.78039 H 400.01482 755.10089 l -0.18247,70.91366 -0.18246,70.91366 -1.48714,4.36901 c -4.49294,13.19973 -15.4628,24.20431 -28.54505,28.63532 l -5.50846,1.86575 -317.51886,0.0963 C 223.22668,710.62819 82.856089,710.41414 81.186043,710.08535 Z M 667.22548,599.83236 v -22.46438 h -44.92875 -44.92875 v 22.46438 22.46437 h 44.92875 44.92875 z"
     id="path8"
     transform="scale(0.045)" />
</svg>
