<?xml version="1.0" encoding="UTF-8" standalone="no"?>
<!-- Uploaded to: SVG Repo, www.svgrepo.com, Generator: SVG Repo Mixer Tools -->

<svg
   version="1.1"
   id="Uploaded to svgrepo.com"
   width="800px"
   height="800px"
   viewBox="0 0 32 32"
   xml:space="preserve"
   sodipodi:docname="design-svgrepo-com.svg"
   inkscape:export-filename="design-svgrepo-com.svg"
   inkscape:export-xdpi="96"
   inkscape:export-ydpi="96"
   xmlns:inkscape="http://www.inkscape.org/namespaces/inkscape"
   xmlns:sodipodi="http://sodipodi.sourceforge.net/DTD/sodipodi-0.dtd"
   xmlns="http://www.w3.org/2000/svg"
   xmlns:svg="http://www.w3.org/2000/svg"><defs
   id="defs1" /><sodipodi:namedview
   id="namedview1"
   pagecolor="#505050"
   bordercolor="#eeeeee"
   borderopacity="1"
   inkscape:showpageshadow="0"
   inkscape:pageopacity="0"
   inkscape:pagecheckerboard="0"
   inkscape:deskcolor="#505050" />
<style
   type="text/css"
   id="style1">
	.stone_een{fill:#0B1719;}
</style>
<path
   class="stone_een"
   d="M15,10h2v2h-2V10z M6.5,10C6.224,10,6,10.224,6,10.5S6.224,11,6.5,11S7,10.776,7,10.5S6.776,10,6.5,10z   M21.5,29H20v-2h-8v2h-1.5c-0.276,0-0.5,0.224-0.5,0.5c0,0.276,0.224,0.5,0.5,0.5h11c0.276,0,0.5-0.224,0.5-0.5  C22,29.224,21.776,29,21.5,29z M32,7v16c0,1.657-1.343,3-3,3H3c-1.657,0-3-1.343-3-3V7c0-1.657,1.343-3,3-3h26  C30.657,4,32,5.343,32,7z M26.966,10.174c-0.12-0.572-0.587-1.03-1.16-1.144c-0.782-0.154-1.475,0.3-1.713,0.97H18V9h-4v1H7.908  C7.67,9.33,6.976,8.876,6.195,9.03c-0.573,0.113-1.04,0.572-1.16,1.144C4.83,11.145,5.565,12,6.5,12c0.652,0,1.202-0.419,1.408-1H14  v0.224c-4.388,0.897-7.745,4.658-7.986,9.246C5.999,20.757,6.227,21,6.515,21h0c0.263,0,0.484-0.204,0.497-0.467  c0.209-4.065,3.134-7.41,6.988-8.289V13h4v-0.757c3.854,0.88,6.779,4.225,6.988,8.289C25.002,20.796,25.222,21,25.485,21h0  c0.288,0,0.516-0.243,0.501-0.53c-0.241-4.588-3.598-8.349-7.986-9.246V11h6.092c0.207,0.581,0.756,1,1.408,1  C26.435,12,27.17,11.145,26.966,10.174z M25.5,10c-0.276,0-0.5,0.224-0.5,0.5s0.224,0.5,0.5,0.5s0.5-0.224,0.5-0.5  S25.776,10,25.5,10z"
   id="path1" />
<path
   style="fill:#ffb300;stroke-width:0;stroke-linecap:round;stroke-linejoin:round"
   d="M 65.381391,649.03446 C 54.275802,647.64726 39.815418,641.8721 31.181894,635.37594 22.45506,628.80957 14.295076,619.4796 9.1860379,610.22632 6.2362997,604.88387 2.3724626,593.52294 1.2038432,586.75608 0.50554816,582.71262 0.33528919,541.10849 0.33528919,374.51802 c 0,-196.62848 0.0614222,-207.51044 1.20292301,-213.11785 C 7.3934156,132.6376 28.006035,110.50585 56.19057,102.71999 l 6.508508,-1.79794 H 400 737.30092 l 6.5085,1.79794 c 27.7205,7.65768 47.70656,28.67777 54.39839,57.21295 l 1.41532,6.03521 0.22177,202.51467 c 0.15309,139.78845 -3.4e-4,205.2148 -0.4955,211.23218 -1.31869,16.02766 -5.53609,27.58671 -14.4352,39.56413 -12.29687,16.55044 -30.66783,27.28045 -50.96617,29.76794 -7.42659,0.91011 -661.278303,0.89777 -668.566639,-0.0126 z M 169.01172,523.70847 c 1.46017,-0.74493 3.4506,-2.55688 4.42319,-4.02655 1.5699,-2.37228 1.87108,-3.81939 2.68388,-12.89539 4.09746,-45.75359 20.44358,-86.57773 48.93321,-122.20983 11.79661,-14.75408 30.99347,-32.53431 47.53811,-44.03005 20.27765,-14.08956 44.9609,-25.47281 69.479,-32.04183 l 7.30222,-1.95645 v 9.34107 9.34107 H 400 450.62867 v -9.33527 -9.33527 l 7.34297,1.92651 c 29.34762,7.69967 57.51773,22.01528 82.84982,42.10297 9.84472,7.80661 26.14615,24.04835 34.11217,33.98725 28.4296,35.47054 44.85153,76.472 48.94758,122.20983 0.8128,9.076 1.11398,10.52311 2.68388,12.89539 2.56703,3.87904 6.31484,5.58919 11.52212,5.25761 4.98546,-0.31745 8.24297,-2.42865 10.46363,-6.78151 1.30979,-2.56739 1.39478,-3.48248 1.00849,-10.85805 -0.60093,-11.47359 -3.26153,-28.65658 -6.4118,-41.40938 -9.26407,-37.50243 -26.0255,-70.6935 -50.71464,-100.42538 -26.35402,-31.73679 -61.11853,-56.93981 -99.89307,-72.41889 -9.60862,-3.83582 -25.17173,-8.82848 -33.52892,-10.75609 -8.86932,-2.04574 -8.38223,-1.79118 -8.38223,-4.38068 v -2.30184 h 75.67503 75.67502 l 2.27971,4.52641 c 1.42101,2.82143 3.94018,6.19557 6.68797,8.95778 14.53535,14.6116 38.19495,14.82057 52.85712,0.46685 6.87785,-6.73317 10.64168,-15.1064 11.24459,-25.01558 1.76409,-28.99324 -28.25044,-48.72983 -54.28764,-35.69779 -6.90023,3.45366 -13.26579,9.65773 -16.50204,16.08337 l -2.27971,4.52641 h -75.65989 -75.65991 l -0.18277,-12.23806 -0.18277,-12.23806 H 400 349.70662 l -0.18277,12.23806 -0.18277,12.23806 h -75.66817 -75.66818 l -2.19236,-4.45332 c -1.38411,-2.81152 -3.82844,-6.10886 -6.63019,-8.94394 -14.893,-15.07014 -38.8496,-15.06874 -53.68929,0.003 -12.18232,12.37292 -14.21449,32.28509 -4.76985,46.73714 4.97263,7.60905 12.23863,13.21663 20.46453,15.79363 6.14298,1.92447 16.35295,2.02052 21.82165,0.20529 9.97544,-3.31116 18.47494,-10.30105 22.73235,-18.6948 l 2.27971,-4.49459 h 75.67502 75.67503 v 2.30184 c 0,1.61604 -0.34962,2.40283 -1.17351,2.64081 -0.64543,0.18642 -4.39799,1.10154 -8.33901,2.03357 -33.29027,7.87296 -67.92966,25.03805 -96.51372,47.82609 -11.3819,9.07397 -29.86596,27.50114 -38.66803,38.54899 -30.07548,37.74905 -48.20111,81.3633 -53.44906,128.61014 -1.75465,15.79699 -1.19811,20.67593 2.76752,24.26204 3.84691,3.47874 10.29656,4.28505 15.0162,1.87728 z"
   id="path2"
   transform="scale(0.04)" /><path
   style="fill:#ffb300;stroke-width:0;stroke-linecap:round;stroke-linejoin:round"
   d="m 258.96815,749.22777 c -2.60091,-0.49654 -7.27798,-5.54704 -8.14723,-8.79771 -1.41065,-5.27534 1.1429,-11.03979 5.98463,-13.50986 2.49195,-1.2713 3.91143,-1.3544 23.13421,-1.3544 h 20.47935 V 700.41911 675.27242 H 400 499.58089 v 25.14669 25.14669 h 20.47935 c 19.22278,0 20.64226,0.0831 23.13421,1.3544 2.90114,1.48006 5.63777,5.14979 6.32417,8.48052 1.03952,5.04423 -3.33061,12.24905 -8.26025,13.61829 -2.40024,0.66669 -278.82086,0.8711 -282.29022,0.20876 z"
   id="path3"
   transform="scale(0.04)" /><path
   style="fill:#ffb300;stroke-width:0;stroke-linecap:round;stroke-linejoin:round"
   d="m 375.52389,274.93713 v -24.8114 H 400 424.47611 v 24.8114 24.8114 H 400 375.52389 Z"
   id="path4"
   transform="scale(0.04)" /><path
   style="fill:#ffb300;stroke-width:0;stroke-linecap:round;stroke-linejoin:round"
   d="m 158.69585,273.95899 c -3.32042,-1.18389 -5.66833,-3.37394 -7.21887,-6.73351 -1.56443,-3.38966 -1.56635,-5.98286 -0.007,-9.41584 5.27472,-11.61227 21.83486,-8.94299 22.74695,3.66652 0.46614,6.44436 -2.72758,10.99556 -8.9194,12.71055 -3.29489,0.91261 -3.41511,0.90847 -6.60172,-0.22772 z"
   id="path5"
   transform="scale(0.04)" /><path
   style="fill:#ffb300;stroke-width:0;stroke-linecap:round;stroke-linejoin:round"
   d="m 634.36714,274.14924 c -5.88356,-1.6719 -9.04319,-6.32635 -8.58592,-12.64796 0.91379,-12.63312 17.46703,-15.31935 22.74876,-3.69164 1.55733,3.42845 1.55733,6.01514 0,9.44358 -1.50226,3.30722 -4.64504,6.05739 -7.98081,6.98383 -2.88662,0.80169 -3.06049,0.79922 -6.18203,-0.0878 z"
   id="path6"
   transform="scale(0.04)" /></svg>
