<?xml version="1.0" encoding="UTF-8" standalone="no"?>
<!-- Uploaded to: SVG Repo, www.svgrepo.com, Generator: SVG Repo Mixer Tools -->

<svg
   fill="#000000"
   width="800"
   height="611.72876"
   viewBox="0 0 1920 1468.149"
   version="1.1"
   id="svg1"
   xmlns="http://www.w3.org/2000/svg"
   xmlns:svg="http://www.w3.org/2000/svg">
  <defs
     id="defs1" />
  <path
     d="M 1920,202.26602 V 1391.806 l -464.16,-580.14598 -88.203,70.585 468.679,585.90398 H 83.684 L 552.363,882.24502 464.161,811.66002 0,1391.805 V 202.26502 L 959.944,1034.706 Z M 1919.932,1.165093e-5 V 52.627011 L 959.989,885.06702 0.045,52.628011 V 1.165093e-5 Z"
     fill-rule="evenodd"
     id="path1" />
  <path
     style="fill:#ffb300;stroke-width:0;stroke-linecap:round;stroke-linejoin:round"
     d="m 86.906957,1466.2657 c 0,-0.4458 104.393253,-131.3494 231.985003,-290.8969 127.59175,-159.5474 232.59,-290.86747 233.32946,-291.82226 0.86465,-1.11644 -14.57428,-14.45849 -43.26024,-37.3848 -34.98516,-27.96075 -45.01905,-35.22221 -46.52599,-33.67059 -1.05669,1.08804 -105.53693,131.52382 -232.17823,289.85725 L 0,1390.2274 V 796.66591 203.10444 l 4.4258172,4.11322 c 2.4341995,2.26228 162.6689028,141.29148 356.0771228,308.95377 193.4082,167.6623 407.3664,353.15271 475.46264,412.20094 107.73496,93.42013 124.1393,107.08223 126.33698,105.21823 14.6172,-12.3984 948.59954,-821.98913 952.46694,-825.61349 L 1920,203.07523 v 593.57669 593.57668 l -231.9167,-289.897 -231.9166,-289.89708 -7.5729,6.04092 c -68.775,54.86261 -81.8418,65.7329 -80.7371,67.16527 0.6965,0.90298 105.6596,132.18069 233.2513,291.72809 127.5918,159.5475 231.985,290.4511 231.985,290.8969 0,0.4458 -392.8918,0.8106 -873.093,0.8106 -480.20117,0 -873.093043,-0.3648 -873.093043,-0.8106 z"
     id="path2" />
  <path
     style="fill:#ffb300;stroke-width:0;stroke-linecap:round;stroke-linejoin:round"
     d="M 480.89285,468.58625 1.7857236,53.228851 1.6975559,27.076291 1.6093881,0.92373405 H 960.0389 1918.4685 l -0.4413,26.27445295 -0.4413,26.274432 -461.8944,400.491651 C 1201.6496,674.23469 986.19278,861.09067 976.89857,869.19979 L 960,883.94364 Z"
     id="path3" />
</svg>
