<?xml version="1.0" encoding="UTF-8" standalone="no"?>
<!-- Uploaded to: SVG Repo, www.svgrepo.com, Generator: SVG Repo Mixer Tools -->

<svg
   fill="#000000"
   width="660.86841"
   height="776.54816"
   viewBox="0 0 26.434736 31.061927"
   version="1.1"
   id="svg1"
   xmlns="http://www.w3.org/2000/svg"
   xmlns:svg="http://www.w3.org/2000/svg">
  <defs
     id="defs1" />
  <title
     id="title1">figma</title>
  <path
     d="m 15.132,11.224 c -2.084,0 -3.773,1.689 -3.773,3.773 0,2.084 1.689,3.773 3.773,3.773 v 0 h 0.122 c 2.084,0 3.773,-1.689 3.773,-3.773 0,-2.084 -1.689,-3.773 -3.773,-3.773 v 0 z m 0.122,9.384 h -0.122 c -3.099,0 -5.611,-2.512 -5.611,-5.611 0,-3.099 2.512,-5.611 5.611,-5.611 v 0 h 0.122 c 3.099,0 5.611,2.512 5.611,5.611 0,3.099 -2.512,5.611 -5.611,5.611 z m -9.628,0 c 0,0 -0.001,0 -0.001,0 -2.084,0 -3.773,1.689 -3.773,3.773 0,2.084 1.689,3.773 3.773,3.773 0.011,0 0.023,0 0.034,0 H 5.657 c 0.003,0 0.007,0 0.011,0 2.121,0 3.843,-1.714 3.854,-3.833 v -3.713 z m 0.03,9.385 c -0.013,0 -0.029,0 -0.045,0 C 2.512,29.993 0,27.481 0,24.382 c 0,-3.099 2.512,-5.611 5.611,-5.611 0.005,0 0.01,0 0.015,0 h 5.733 v 5.55 c -0.012,3.135 -2.557,5.672 -5.693,5.672 -0.003,0 -0.006,0 -0.009,0 v 0 z M 5.626,11.224 c -2.084,0 -3.773,1.689 -3.773,3.773 0,2.084 1.689,3.773 3.773,3.773 v 0 h 3.895 v -7.545 z m 5.732,9.384 H 5.626 c -3.099,0 -5.611,-2.512 -5.611,-5.611 0,-3.099 2.512,-5.611 5.611,-5.611 v 0 h 5.733 V 20.608 Z M 5.626,1.84 c -2.084,0 -3.773,1.689 -3.773,3.773 0,2.084 1.689,3.773 3.773,3.773 v 0 H 9.521 V 1.839 Z m 5.732,9.384 H 5.626 C 2.527,11.224 0.014,8.712 0.014,5.612 0.014,2.512 2.526,0 5.626,0 v 0 h 5.733 v 11.223 z m 0,-1.838 h 3.895 c 2.08,-0.005 3.764,-1.692 3.764,-3.773 0,-2.081 -1.684,-3.768 -3.764,-3.773 h -3.895 z m 3.896,1.838 H 9.521 V 9.9999152e-4 h 5.733 c 3.099,0 5.612,2.51200000848 5.612,5.61200000848 0,3.1 -2.512,5.612 -5.612,5.612 v 0 z"
     id="path1" />
  <text
     xml:space="preserve"
     style="font-weight:bold;font-size:2.56px;font-family:Poppins;-inkscape-font-specification:'Poppins Bold';text-align:start;letter-spacing:-0.0289591px;writing-mode:lr-tb;direction:ltr;text-anchor:start;fill:#ffb300;stroke-width:0;stroke-linecap:round;stroke-linejoin:round"
     x="17.669935"
     y="31.031206"
     id="text1"><tspan
       id="tspan1"
       style="font-style:normal;font-variant:normal;font-weight:bold;font-stretch:normal;font-size:2.56px;font-family:Montserrat;-inkscape-font-specification:'Montserrat Bold';baseline-shift:baseline;stroke-width:0"
       x="17.669935"
       y="31.031206">FIGMA</tspan></text>
  <path
     style="fill:#ffb300;stroke-width:0;stroke-linecap:round;stroke-linejoin:round"
     d="m 4.6879556,29.88971 c -2.13853,-0.3544 -3.9264332,-2.006629 -4.4908288,-4.150044 -0.1238252,-0.470252 -0.141116,-0.63909 -0.1400964,-1.36798 0.001004,-0.717681 0.01986,-0.902162 0.1377368,-1.347534 0.3240232,-1.224259 1.1124188,-2.412259 2.0441884,-3.080302 0.1630652,-0.116912 0.2976408,-0.229262 0.2990568,-0.249666 0.00142,-0.02041 -0.1364588,-0.144082 -0.306388,-0.27484 C 1.0125736,18.481306 0.2350304,17.075316 0.0754756,15.520494 -0.030984,14.483074 0.1464384,13.537624 0.6342892,12.542683 1.0521704,11.69044 1.6885368,10.937007 2.4349684,10.41075 L 2.56741,10.31737 2.379648,10.17261 C 1.9213292,9.819262 1.1530296,8.982854 0.8859512,8.546504 0.2384888,7.4886848 -0.047778,6.2718128 0.0725508,5.0888744 0.145134,4.3753176 0.2883368,3.8682556 0.6036756,3.208232 1.342312,1.6622223 2.655492,0.60799695 4.3939704,0.16537107 l 0.4802292,-0.1222688 h 5.5255654 c 5.1504,0 5.556469,0.006658 5.980717,0.0980606 1.973363,0.42515428 3.595767,1.90017323 4.201023,3.81938593 0.705018,2.235552 -0.138721,4.7905668 -2.030662,6.1492552 -0.131039,0.09411 -0.238253,0.185944 -0.238253,0.204086 0,0.01814 0.07603,0.0779 0.168955,0.13279 0.09293,0.05489 0.349891,0.27133 0.571036,0.480972 1.231603,1.167544 1.851511,2.693807 1.765495,4.346791 -0.137951,2.651032 -2.086824,4.81487 -4.715892,5.236064 -0.599805,0.09609 -1.774043,0.04427 -2.349527,-0.103695 -0.586738,-0.150856 -1.530104,-0.613904 -2.021563,-0.992276 l -0.385351,-0.29668 -0.01972,3.01585 -0.01972,3.01585 -0.14452,0.536463 c -0.572577,2.125406 -2.2557188,3.724046 -4.37577,4.156085 -0.5737636,0.116926 -1.546568,0.138999 -2.0980544,0.04761 z m 1.7576592,-1.792167 c 0.4927864,-0.09895 1.1759476,-0.411074 1.6006804,-0.731325 0.6214664,-0.46859 1.151556,-1.26686 1.3722072,-2.066426 0.1073404,-0.388966 0.1169884,-0.570688 0.136856,-2.577729 L 9.5767332,20.5628 H 7.5646376 c -2.0829736,0 -2.6133956,0.0372 -3.1732544,0.222565 -0.871748,0.288624 -1.7167228,1.023901 -2.1335604,1.856575 -0.332848,0.664896 -0.4346716,1.148197 -0.4022652,1.909333 0.031356,0.736449 0.2105968,1.318901 0.5786952,1.880494 0.86947,1.326515 2.444214,1.98045 4.011362,1.665776 z M 9.5551964,14.997 9.5414248,11.201526 7.6638056,11.186025 c -1.0326908,-0.0085 -2.1105236,0.0092 -2.3951844,0.03941 -0.9495284,0.100738 -1.6997676,0.460502 -2.3525104,1.128102 -0.7145184,0.730782 -1.0729256,1.609342 -1.0729256,2.630052 0,1.494362 0.7827816,2.753601 2.1190276,3.408822 0.758328,0.371842 0.9212612,0.390691 3.4203096,0.39569 l 2.1864456,0.0044 z m 6.8529516,3.615266 c 1.395277,-0.451659 2.376906,-1.618963 2.60665,-3.099696 0.112637,-0.725965 -0.01846,-1.484213 -0.388271,-2.245662 -0.182055,-0.374857 -0.309129,-0.543196 -0.714168,-0.946079 -0.401062,-0.398927 -0.576803,-0.530745 -0.944814,-0.708678 -0.606439,-0.293213 -1.07054,-0.396149 -1.793262,-0.397738 -2.0756,-0.0046 -3.703301,1.510621 -3.820695,3.556586 -0.0405,0.705897 0.07614,1.272055 0.397447,1.929133 0.207679,0.424704 0.326217,0.586575 0.712237,0.972594 0.388452,0.388453 0.544814,0.502572 0.97012,0.708038 0.682894,0.329907 1.096521,0.414754 1.90183,0.390119 0.508211,-0.01555 0.734118,-0.04894 1.072926,-0.158617 z M 9.568248,5.6223144 V 1.8402523 H 7.323686 c -2.0417616,0 -2.2811356,0.00935 -2.6493556,0.1035289 C 3.5847492,2.222449 2.7192568,2.934026 2.2144996,3.9661656 1.636564,5.1479424 1.731964,6.6139708 2.4579792,7.7077588 2.8569792,8.3088776 3.5221564,8.858294 4.1698368,9.1217012 4.8012436,9.37849 4.9966176,9.3955656 7.3553396,9.4001116 l 2.2129084,0.00426 z m 6.8399,3.6084052 C 17.853606,8.7443168 18.822959,7.556596 19.011271,6.0411864 19.227001,4.3051344 18.200626,2.6691535 16.488617,2.0202283 L 16.08627,1.8677214 13.712422,1.8513955 11.338575,1.8350697 v 3.7877699 3.7877692 l 2.320201,-0.017736 2.320201,-0.017736 z"
     id="path2" />
</svg>
