<?xml version="1.0" encoding="UTF-8" standalone="no"?>
<!-- Uploaded to: SVG Repo, www.svgrepo.com, Generator: SVG Repo Mixer Tools -->

<svg
   fill="#000000"
   version="1.1"
   id="Capa_1"
   width="777.26105"
   height="800"
   viewBox="0 0 96.051006 98.861"
   xml:space="preserve"
   xmlns="http://www.w3.org/2000/svg"
   xmlns:svg="http://www.w3.org/2000/svg"><defs
   id="defs5" />
<g
   id="g5"
   transform="translate(-1.405)">
	<g
   id="g4">
		<path
   d="M 73.847,30.236 H 25.016 c -1.562,0 -2.836,1.263 -2.836,2.828 v 9.628 c 0,1.565 1.274,2.828 2.836,2.828 h 48.831 c 1.559,0 2.832,-1.263 2.832,-2.828 v -9.628 c 0,-1.565 -1.275,-2.828 -2.832,-2.828 z m -46.56,6.706 c -0.965,0 -1.747,-0.78 -1.747,-1.746 0,-0.963 0.782,-1.745 1.747,-1.745 0.967,0 1.746,0.782 1.746,1.745 0,0.967 -0.779,1.746 -1.746,1.746 z m 41.944,5.034 H 56.895 v -4.097 h 12.337 v 4.097 z"
   id="path1" />
		<path
   d="M 73.847,47.075 H 25.016 c -1.562,0 -2.836,1.265 -2.836,2.83 v 9.627 c 0,1.563 1.274,2.829 2.836,2.829 h 48.831 c 1.559,0 2.832,-1.266 2.832,-2.829 v -9.627 c 0,-1.565 -1.275,-2.83 -2.832,-2.83 z m -46.56,6.708 c -0.965,0 -1.747,-0.777 -1.747,-1.746 0,-0.962 0.782,-1.748 1.747,-1.748 0.967,0 1.746,0.785 1.746,1.748 0,0.968 -0.779,1.746 -1.746,1.746 z m 41.944,5.033 H 56.895 v -4.098 h 12.337 v 4.098 z"
   id="path2" />
		<path
   d="M 73.847,63.915 H 25.016 c -1.562,0 -2.836,1.265 -2.836,2.829 v 9.627 c 0,1.564 1.274,2.83 2.836,2.83 h 48.831 c 1.559,0 2.832,-1.266 2.832,-2.83 v -9.627 c 0,-1.564 -1.275,-2.829 -2.832,-2.829 z m -46.56,6.706 c -0.965,0 -1.747,-0.775 -1.747,-1.746 0,-0.964 0.782,-1.744 1.747,-1.744 0.967,0 1.746,0.779 1.746,1.744 0,0.971 -0.779,1.746 -1.746,1.746 z m 41.944,5.033 H 56.895 v -4.098 h 12.337 v 4.098 z"
   id="path3" />
		<polygon
   points="46.204,88.409 40.994,88.409 40.994,90.404 22.778,90.404 22.778,96.863 40.994,96.863 40.994,98.861 57.864,98.861 57.864,96.863 76.079,96.863 76.079,90.404 57.864,90.404 57.864,88.409 52.66,88.409 52.66,80.838 46.204,80.838 "
   id="polygon3" />
		<path
   d="M 78.253,14.706 C 77.554,14.647 76.912,14.29 76.496,13.727 72.581,8.44 66.304,5.179 59.624,5.179 59.206,5.179 58.787,5.192 58.368,5.217 57.788,5.252 57.218,5.079 56.755,4.729 52.688,1.662 47.76,0 42.602,0 33.36,0 25.157,5.354 21.323,13.461 20.971,14.204 20.269,14.72 19.455,14.834 9.269,16.267 1.405,25.039 1.405,35.613 c 0,10.081 7.147,18.519 16.641,20.526 v -6.234 c 0,-0.777 0.144,-1.518 0.383,-2.215 -5.077,-1.669 -8.757,-6.448 -8.757,-12.076 0,-7.011 5.704,-12.715 12.716,-12.715 0.354,0 0.702,0.028 1.049,0.056 2.021,0.157 3.849,-1.154 4.342,-3.114 1.709,-6.814 7.806,-11.573 14.822,-11.573 4.01,0 7.805,1.548 10.685,4.36 0.984,0.96 2.383,1.369 3.729,1.088 0.859,-0.179 1.736,-0.27 2.609,-0.27 4.909,0 9.293,2.76 11.44,7.202 0.755,1.562 2.405,2.492 4.132,2.314 0.43,-0.043 0.859,-0.064 1.275,-0.064 7.012,0 12.717,5.704 12.717,12.715 0,5.629 -3.682,10.407 -8.758,12.076 0.238,0.698 0.382,1.438 0.382,2.215 v 6.233 C 90.305,54.131 97.456,45.694 97.456,35.612 97.455,24.643 88.991,15.612 78.253,14.706 Z"
   id="path4" />
	</g>
</g>
<path
   style="fill:#ffb300;stroke-width:0;stroke-linecap:round;stroke-linejoin:round"
   d="M 15.790019,55.886912 C 13.077473,55.202555 10.191591,53.759928 7.9590344,51.972273 3.2790265,48.224893 0.41335498,42.707985 0.09466456,36.832017 -0.36256567,28.401673 4.1327027,20.657413 11.684708,16.865176 c 1.689172,-0.848216 3.744417,-1.527033 5.639522,-1.862647 0.569076,-0.100782 1.206175,-0.256835 1.415776,-0.346787 0.560153,-0.240394 0.98147,-0.737957 1.559367,-1.841562 1.240688,-2.369332 2.406186,-3.9532055 4.311091,-5.858631 1.532575,-1.5329951 2.849803,-2.571138 4.547776,-3.5842285 3.294293,-1.9655286 7.023105,-3.10037481 10.766166,-3.27663099 5.366788,-0.25271558 10.074308,1.06908529 14.560014,4.08823399 0.695332,0.4679993 1.391049,0.8900044 1.546038,0.9377891 0.154989,0.047785 1.176767,0.1059207 2.27062,0.1291911 2.132753,0.045372 3.065368,0.154069 4.723451,0.5505233 2.900939,0.6936267 5.890011,2.1605526 8.245321,4.0464998 1.083341,0.8674522 2.204204,1.9656362 3.009951,2.9490462 1.43834,1.755488 1.531711,1.816545 3.067138,2.005701 2.756537,0.339591 5.035745,1.033862 7.347457,2.238115 6.117143,3.186637 10.234061,9.089656 11.146913,15.982934 0.154614,1.167588 0.178704,3.786131 0.04497,4.889187 -1.052899,8.684727 -7.144103,15.72749 -15.515565,17.939396 l -0.884676,0.233749 -0.03237,-3.57588 c -0.02968,-3.278747 -0.04634,-3.626425 -0.200543,-4.184173 -0.151546,-0.548134 -0.1551,-0.612946 -0.03593,-0.655333 3.24448,-1.15407 5.797003,-3.418414 7.309749,-6.484492 1.4709,-2.981263 1.688609,-6.423052 0.611439,-9.66661 -0.614389,-1.850062 -1.58684,-3.398739 -3.064476,-4.880341 -1.865712,-1.870724 -3.950736,-2.999943 -6.538748,-3.541293 -0.707636,-0.148021 -1.158688,-0.17747 -2.909173,-0.189932 -1.883015,-0.01341 -2.116362,-0.03082 -2.562205,-0.191249 -1.113673,-0.400728 -1.84026,-1.093366 -2.536823,-2.418285 -0.653304,-1.242638 -1.325171,-2.150919 -2.359053,-3.18915 -1.743924,-1.751262 -3.902149,-2.924843 -6.322878,-3.438203 -1.170387,-0.248202 -3.26373,-0.306174 -4.408471,-0.122085 -0.47856,0.07696 -1.136569,0.159893 -1.462242,0.184298 -1.145069,0.08581 -2.103251,-0.295823 -3.17834,-1.265889 C 50.429847,11.233764 49.224403,10.414622 47.721776,9.6978705 42.918934,7.4069234 37.137435,7.8360734 32.695001,10.81328 c -3.110657,2.084683 -5.226489,5.022359 -6.291911,8.73585 -0.283972,0.989773 -0.542402,1.49753 -1.028123,2.020032 -0.487718,0.52465 -1.085458,0.911184 -1.763363,1.140295 -0.471698,0.159418 -0.731964,0.18086 -2.393759,0.197201 -2.06441,0.0203 -2.848045,0.133801 -4.313437,0.624751 -3.091293,1.035679 -5.849902,3.437546 -7.32745,6.379869 -1.7561534,3.497126 -1.7849273,7.726699 -0.076466,11.240038 1.484127,3.052011 4.080318,5.359081 7.336683,6.519646 0.123616,0.04406 0.12057,0.09836 -0.03443,0.613898 -0.156357,0.52003 -0.173948,0.856413 -0.218481,4.177891 l -0.04843,3.612323 z"
   id="path5" /><path
   style="fill:#ffb300;stroke-width:0;stroke-linecap:round;stroke-linejoin:round"
   d="m 22.897667,45.36703 c -0.922495,-0.249193 -1.659389,-0.957094 -1.932593,-1.856559 -0.160208,-0.527451 -0.165509,-0.742356 -0.143249,-5.80777 l 0.02312,-5.260051 0.21837,-0.465716 c 0.30717,-0.655102 0.745421,-1.104344 1.384006,-1.418718 l 0.548696,-0.270122 h 25.027746 25.027746 l 0.465716,0.218369 c 0.65499,0.307118 1.104338,0.745431 1.418719,1.383877 l 0.270121,0.548568 0.02367,5.253329 c 0.02079,4.614532 0.0076,5.30872 -0.108763,5.708865 -0.247731,0.852167 -0.752485,1.436258 -1.572253,1.819383 l -0.497205,0.232372 -24.860268,0.01561 c -21.188604,0.01331 -24.924264,-0.0017 -25.293569,-0.101436 z m 44.974614,-5.424865 v -2.071689 h -6.215068 -6.215067 v 2.071689 2.071689 h 6.215067 6.215068 z M 26.651532,36.80208 c 0.66908,-0.30389 1.110952,-1.126536 0.994923,-1.852281 -0.220404,-1.378599 -1.83559,-2.00117 -2.904953,-1.119709 -0.782903,0.645333 -0.834518,1.938629 -0.1053,2.638444 0.495401,0.475425 1.380445,0.621904 2.01533,0.333546 z"
   id="path6" /><path
   style="fill:#ffb300;stroke-width:0;stroke-linecap:round;stroke-linejoin:round"
   d="m 22.819191,62.197398 c -0.729873,-0.228807 -1.46068,-0.882864 -1.795183,-1.606654 -0.177789,-0.384695 -0.179068,-0.426505 -0.179068,-5.85672 v -5.46926 l 0.232641,-0.497205 c 0.296659,-0.634029 0.910952,-1.219838 1.51688,-1.446545 l 0.454839,-0.170177 25.08397,0.02112 25.083969,0.02112 0.379165,0.186848 c 0.616212,0.303659 1.040165,0.724558 1.336856,1.327222 l 0.2728,0.554135 v 5.471002 5.471001 l -0.229058,0.466245 c -0.270132,0.549851 -0.903667,1.171661 -1.451726,1.424854 l -0.390905,0.18059 -24.984569,0.01545 c -20.390853,0.01261 -25.048194,-0.0045 -25.330611,-0.09303 z m 45.05309,-5.433118 v -2.071689 h -6.215068 -6.215067 v 2.071689 2.071689 h 6.215067 6.215068 z M 26.677534,53.620193 c 1.089445,-0.555792 1.323077,-1.885762 0.490026,-2.789516 -0.7793,-0.845441 -2.086733,-0.749198 -2.755869,0.202865 -0.228811,0.325558 -0.252048,0.418427 -0.252048,1.007286 0,0.587057 0.02361,0.682187 0.248602,1.001628 0.488691,0.693837 1.524705,0.957596 2.269289,0.577737 z"
   id="path7" /><path
   style="fill:#ffb300;stroke-width:0;stroke-linecap:round;stroke-linejoin:round"
   d="m 22.779416,79.023312 c -0.829034,-0.29691 -1.382775,-0.802529 -1.749769,-1.597705 L 20.84494,77.025398 v -5.469259 -5.46926 l 0.21943,-0.468032 c 0.267348,-0.570238 0.747308,-1.065134 1.331507,-1.37294 L 22.833761,64.01519 H 48.0255 73.217239 l 0.437884,0.230717 c 0.5842,0.307806 1.064159,0.802702 1.331507,1.37294 l 0.21943,0.468032 v 5.46926 5.469259 l -0.21943,0.468033 c -0.267348,0.570237 -0.747307,1.065133 -1.331507,1.37294 l -0.437884,0.230716 -25.067437,0.01736 c -20.483788,0.01419 -25.122833,-0.0025 -25.370386,-0.09114 z m 45.092865,-5.436918 v -2.071689 h -6.215068 -6.215067 v 2.071689 2.07169 h 6.215067 6.215068 z M 26.405582,70.563827 c 1.208396,-0.358856 1.651839,-1.834692 0.845275,-2.813194 -0.392494,-0.476164 -0.816119,-0.651081 -1.485256,-0.613272 -0.687844,0.03887 -1.156224,0.326415 -1.460949,0.896906 -0.165544,0.309922 -0.194263,0.465426 -0.170042,0.920702 0.04396,0.826294 0.423443,1.333617 1.206648,1.613145 0.40338,0.143969 0.567317,0.143307 1.064324,-0.0043 z"
   id="path8" /><path
   style="fill:#ffb300;stroke-width:0;stroke-linecap:round;stroke-linejoin:round"
   d="M 39.614443,97.825155 V 96.789311 H 30.49901 21.383579 v -3.190402 -3.1904 h 9.115431 9.115433 v -0.99441 -0.994412 h 2.610327 2.610329 v -3.770474 -3.770474 h 3.190401 3.190401 v 3.770474 3.770474 h 2.610329 2.610327 v 0.994412 0.99441 h 9.115433 9.115431 v 3.1904 3.190402 H 65.55199 56.436557 V 97.825155 98.861 H 48.0255 39.614443 Z"
   id="path9" /></svg>
