<?xml version="1.0" encoding="UTF-8" standalone="no"?>
<!-- Uploaded to: SVG Repo, www.svgrepo.com, Generator: SVG Repo Mixer Tools -->

<svg
   fill="#000000"
   width="768.55426"
   height="779.43115"
   viewBox="0 0 30.74217 31.177246"
   version="1.1"
   id="svg1"
   xmlns="http://www.w3.org/2000/svg"
   xmlns:svg="http://www.w3.org/2000/svg">
  <defs
     id="defs1" />
  <title
     id="title1">laravel</title>
  <path
     d="m 11.886,22.763 10.46,-5.97 -4.752,-2.736 -10.453,6.019 z M 22.827,10.552 18.07,7.816 v 5.417 l 4.758,2.737 z m 0.475,-6.296 -4.756,2.736 4.756,2.736 4.755,-2.737 z m -14.648,13.85 2.76,-1.589 V 4.583 L 6.656,7.321 V 19.255 Z M 6.18,1.024 1.424,3.761 6.18,6.498 10.933,3.761 Z M 0.94700001,4.584 V 23.036 L 11.411,29.058 V 23.587 L 5.939,20.491 C 5.921,20.478 5.907,20.464 5.888,20.452 5.874,20.439 5.858,20.429 5.844,20.418 L 5.843,20.415 C 5.828,20.4 5.815,20.384 5.804,20.366 L 5.803,20.365 C 5.789,20.352 5.778,20.337 5.768,20.32 L 5.767,20.319 H 5.764 C 5.756,20.304 5.748,20.284 5.74,20.264 L 5.739,20.26 C 5.732,20.245 5.724,20.228 5.717,20.209 L 5.716,20.206 C 5.712,20.186 5.708,20.161 5.706,20.136 V 20.134 C 5.703,20.119 5.7,20.101 5.698,20.083 V 20.082 7.323 L 2.941,5.733 Z M 22.828,23.035 v -5.422 l -10.464,5.974 v 5.47 z m 5.704,-9.802 V 7.816 l -4.756,2.737 v 5.417 z m 0.936,-6.365 c 0.011,0.038 0.018,0.081 0.018,0.126 v 0 6.513 c 0,0.176 -0.095,0.329 -0.237,0.411 l -0.002,0.001 -5.468,3.149 v 6.241 c 0,0.175 -0.095,0.328 -0.236,0.411 l -0.002,0.001 -11.416,6.57 c -0.024,0.013 -0.052,0.025 -0.081,0.033 l -0.003,10e-4 -0.03,0.013 c -0.036,0.011 -0.078,0.017 -0.121,0.017 -0.043,0 -0.085,-0.006 -0.125,-0.018 l 0.003,0.001 c -0.015,-0.004 -0.027,-0.009 -0.039,-0.016 l 0.001,0.001 C 11.699,30.312 11.673,30.302 11.648,30.29 l 0.004,0.002 -11.41299999,-6.57 C 0.09500001,23.638 1.374692e-8,23.485 1.374692e-8,23.31 v 0 V 3.762 C 1.374692e-8,3.718 0.00700001,3.675 0.01900001,3.635 l -0.001,0.003 c 0.004,-0.015 0.013,-0.025 0.018,-0.04 0.009,-0.029 0.019,-0.053 0.03,-0.076 l -0.001,0.003 c 0.008,-0.016 0.018,-0.03 0.029,-0.042 v 0 l 0.042,-0.057 0.047,-0.034 c 0.018,-0.015 0.034,-0.03 0.052,-0.043 h 0.001 L 5.944,0.06400003 C 6.012,0.02400003 6.094,3.0430009e-8 6.181,3.0430009e-8 6.268,3.0430009e-8 6.35,0.02400003 6.42,0.06500003 l -0.002,-0.001 L 12.128,3.349 c 0.019,0.013 0.035,0.027 0.051,0.042 v 0 l 0.048,0.034 c 0.016,0.018 0.025,0.038 0.042,0.057 0.012,0.012 0.022,0.026 0.031,0.041 l 10e-4,10e-4 c 0.01,0.02 0.02,0.044 0.029,0.069 l 10e-4,0.004 0.016,0.04 c 0.011,0.035 0.018,0.076 0.018,0.118 0,0.002 0,0.004 0,0.006 v 0 12.208 l 4.756,-2.737 V 6.991 c 0,-10e-4 0,-0.002 0,-0.002 0,-0.043 0.006,-0.085 0.017,-0.125 l -0.001,0.003 c 0.004,-0.013 0.013,-0.025 0.016,-0.04 0.01,-0.03 0.02,-0.054 0.032,-0.078 L 17.183,6.753 C 17.192,6.738 17.206,6.728 17.215,6.711 17.23,6.692 17.242,6.673 17.257,6.657 17.271,6.644 17.286,6.632 17.302,6.622 l 0.001,-10e-4 c 0.018,-0.013 0.033,-0.029 0.052,-0.04 h 0.001 l 5.708,-3.286 c 0.068,-0.04 0.15,-0.064 0.237,-0.064 0.087,0 0.169,0.024 0.239,0.065 l -0.002,-10e-4 5.708,3.286 c 0.02,0.013 0.034,0.027 0.053,0.039 0.015,0.013 0.032,0.023 0.046,0.035 0.016,0.018 0.028,0.038 0.043,0.056 0.011,0.012 0.021,0.026 0.03,0.04 l 0.001,10e-4 c 0.012,0.022 0.022,0.047 0.03,0.073 l 10e-4,0.003 c 0.008,0.012 0.014,0.025 0.019,0.039 v 0.001 z"
     id="path1" />
  <path
     style="fill:#ffb300;stroke-width:0;stroke-linecap:round;stroke-linejoin:round"
     d="M 11.667147,30.274071 C 11.289846,30.087779 0.22735065,23.698191 0.14862625,23.621088 0.09995605,23.57342 0.04750157,23.488928 0.03206073,23.433326 -0.00780827,23.289761 -0.00725691,3.791836 0.03262033,3.6482252 0.04836885,3.5915092 0.09960077,3.50463 0.14646905,3.4551596 0.22546977,3.3717732 5.8027072,0.14110415 6.0357724,0.04372327 6.0908616,0.02070563 6.172956,0.00964207 6.2309468,0.01742031 6.2989312,0.02653891 7.254314,0.56182943 9.209274,1.6861447 c 1.58303,0.9104147 2.915766,1.6834761 2.961636,1.7179141 0.04587,0.034438 0.103205,0.1043492 0.12741,0.1553576 0.0404,0.085138 0.04401,0.5980544 0.04401,6.2544328 0,5.8555208 0.0023,6.1610208 0.04694,6.1482318 0.02582,-0.0074 1.103101,-0.622023 2.393965,-1.365822 l 2.347024,-1.352363 0.01341,-3.203946 c 0.01278,-3.0535112 0.01574,-3.2077808 0.0629,-3.2856404 0.02722,-0.044932 0.08757,-0.1075868 0.134116,-0.1392316 0.04654,-0.031645 1.375923,-0.800582 2.954171,-1.7087488 2.760426,-1.588424 2.874707,-1.6512128 3.005338,-1.6512128 0.124083,0 0.181969,0.026477 0.671112,0.3069588 3.366215,1.9302428 5.297446,3.0526692 5.364458,3.1178124 0.0448,0.043547 0.0961,0.128064 0.113999,0.1878164 0.04449,0.1484964 0.047,6.594126 0.0026,6.753949 -0.01666,0.06001 -0.07234,0.148033 -0.12726,0.201176 -0.05527,0.05349 -1.281915,0.775413 -2.826729,1.663639 l -2.729087,1.569152 -7.56e-4,3.165129 c -7.2e-4,3.013669 -0.0031,3.170265 -0.05003,3.272423 -0.0271,0.05901 -0.0721,0.127288 -0.1,0.151728 -0.04423,0.03875 -11.23403,6.488669 -11.497098,6.627055 -0.165229,0.08692 -0.281447,0.08746 -0.454294,0.0021 z m -0.237926,-3.957764 -0.0011,-2.742666 -2.6855478,-1.515507 C 7.265498,21.224605 6.0087232,20.510684 5.9497164,20.471642 5.8907092,20.432601 5.8142736,20.354144 5.7798596,20.297292 L 5.717288,20.193926 5.717168,13.75519 5.717048,7.3164544 3.416964,5.990878 C 2.1518852,5.2618112 1.0776013,4.6425324 1.0296338,4.6147036 l -0.0872137,-0.050598 0.006744,9.2470874 0.006744,9.247087 5.20368812,2.997927 c 2.8620284,1.648859 5.2187758,2.999015 5.2372168,3.000346 0.02663,0.0019 0.0333,-0.562151 0.03241,-2.740246 z m 6.174792,-0.257409 5.212751,-3.000075 0.0068,-2.726665 c 0.0038,-1.499665 0.0025,-2.726664 -0.0028,-2.726664 -0.0053,0 -2.362082,1.343018 -5.237344,2.984484 l -5.227749,2.984485 -0.0068,2.742255 c -0.0041,1.649496 0.003,2.742254 0.01776,2.742254 0.01353,0 2.370331,-1.350032 5.237343,-3.000074 z m -0.476926,-6.267319 c 2.870188,-1.637552 5.215369,-2.988012 5.211513,-3.001022 -0.0039,-0.01301 -1.072823,-0.637326 -2.375482,-1.387368 l -2.368472,-1.363712 -5.227929,3.010167 c -2.875361,1.655592 -5.2249446,3.019113 -5.2212966,3.030047 0.00828,0.02481 4.7208586,2.700013 4.7453236,2.693789 0.0098,-0.0025 2.366155,-1.344348 5.236343,-2.981901 z M 9.1302592,17.848545 11.430343,16.525131 V 10.54729 c 0,-3.2878116 -0.0051,-5.97784 -0.01136,-5.97784 -0.0062,0 -1.077494,0.6135916 -2.3805532,1.3635364 l -2.3691984,1.363536 -0.00677,5.9886876 -0.00676,5.988687 0.087234,-0.05097 c 0.047979,-0.02803 1.122272,-0.646505 2.3873184,-1.374383 z M 22.830175,13.252828 V 10.536373 L 20.489857,9.1905764 c -1.287175,-0.740188 -2.361442,-1.3537772 -2.387259,-1.3635312 -0.04452,-0.016819 -0.0469,0.122664 -0.04614,2.7009768 l 8e-4,2.718712 2.366339,1.36041 c 1.301487,0.748226 2.375392,1.360799 2.386457,1.361274 0.01106,4.76e-4 0.02012,-1.22154 0.02012,-2.71559 z m 3.36875,1.341481 2.343583,-1.347575 4.96e-4,-2.718712 c 4.68e-4,-2.5365828 -0.0025,-2.717552 -0.04462,-2.7013976 -0.02482,0.00952 -1.098896,0.6233876 -2.386843,1.364144 l -2.341724,1.3468296 -4.16e-4,2.718712 c -3.6e-4,2.488113 0.0032,2.717306 0.04276,2.702143 0.02375,-0.0091 1.097791,-0.622978 2.386762,-1.364144 z M 25.833642,8.2886776 c 1.2167,-0.7006872 2.215081,-1.2840072 2.218622,-1.2962668 0.0051,-0.017675 -4.527287,-2.6419264 -4.709784,-2.726962 -0.03673,-0.017115 -0.597822,0.2935504 -2.392466,1.3246608 -1.289466,0.7408604 -2.360426,1.361764 -2.379912,1.3797856 -0.02848,0.026335 0.432234,0.3017776 2.346976,1.4031784 l 2.382406,1.370412 0.160987,-0.090416 c 0.08854,-0.049729 1.15647,-0.6637052 2.373171,-1.364392 z M 8.543424,5.1561868 C 9.8287984,4.416696 10.895242,3.7979712 10.913298,3.7812428 10.938325,3.758056 10.381326,3.4257716 8.5696416,2.3831062 7.262574,1.6308594 6.1801284,1.0192219 6.1642068,1.0239117 6.1035336,1.0417833 1.4253135,3.7439048 1.4253135,3.761078 c 0,0.023872 4.6966521,2.7332656 4.7442629,2.7368596 0.020242,0.00153 1.0884728,-0.6022596 2.3738476,-1.3417508 z"
     id="path2" />
  <text
     xml:space="preserve"
     style="font-weight:bold;font-size:2.56px;font-family:Poppins;-inkscape-font-specification:'Poppins Bold';text-align:start;letter-spacing:-0.0148px;writing-mode:lr-tb;direction:ltr;text-anchor:start;fill:#ffb300;stroke-width:0;stroke-linecap:round;stroke-linejoin:round"
     x="18.453932"
     y="31.177244"
     id="text1"><tspan
       id="tspan1"
       style="font-style:normal;font-variant:normal;font-weight:bold;font-stretch:normal;font-size:2.56px;font-family:Montserrat;-inkscape-font-specification:'Montserrat Bold';stroke-width:0"
       x="18.453932"
       y="31.177244">LARAVEL</tspan></text>
</svg>
