<?xml version="1.0" encoding="UTF-8" standalone="no"?>
<!-- Uploaded to: SVG Repo, www.svgrepo.com, Generator: SVG Repo Mixer Tools -->

<svg
   width="800"
   height="482.63132"
   viewBox="0 -101.5 512 308.88404"
   version="1.1"
   preserveAspectRatio="xMidYMid"
   id="svg1"
   xmlns="http://www.w3.org/2000/svg"
   xmlns:svg="http://www.w3.org/2000/svg">
  <defs
     id="defs1" />
  <g
     id="g1"
     transform="translate(0,-101.5)">
    <path
       d="m 120.81043,80.56131 h 96.56789 v 7.675349 h -87.71583 v 57.767101 h 82.48507 v 7.67535 h -82.48507 v 63.42261 h 88.72175 v 7.67535 h -97.57381 z m 105.21877,0 h 10.26034 l 45.46738,63.42262 46.4733,-63.42262 L 391.44149,0 287.59123,150.64936 l 53.51471,74.12771 h -10.6627 l -48.68632,-67.46227 -48.8875,67.46227 H 222.4079 l 53.91708,-74.12771 z m 118.89922,7.675349 V 80.56131 h 110.04717 v 7.675349 H 404.27744 V 224.77707 h -8.85206 V 88.236659 Z M 0,80.56131 H 11.065071 L 163.64593,308.88401 100.59156,224.77707 9.2544233,91.468385 8.8520571,224.77707 H 0 Z m 454.0837,134.22416 c -1.80853,0 -3.16494,-1.40129 -3.16494,-3.21219 0,-1.81089 1.35641,-3.21218 3.16494,-3.21218 1.83007,0 3.16495,1.40129 3.16495,3.21218 0,1.8109 -1.33488,3.21219 -3.16495,3.21219 z m 8.69822,-8.45085 h 4.73664 c 0.0646,2.56543 1.93772,4.2901 4.69359,4.2901 3.07882,0 4.82277,-1.85402 4.82277,-5.3249 v -21.98946 h 4.82277 v 22.01102 c 0,6.2519 -3.61708,9.85214 -9.60248,9.85214 -5.61939,0 -9.47329,-3.49244 -9.47329,-8.8389 z m 25.38412,-0.28026 h 4.77971 c 0.40908,2.95349 3.29413,4.82906 7.44946,4.82906 3.87544,0 6.71743,-2.00492 6.71743,-4.76438 0,-2.37142 -1.80854,-3.79426 -5.92081,-4.76439 l -4.00462,-0.97012 c -5.61939,-1.31506 -8.18149,-4.0314 -8.18149,-8.60176 0,-5.54048 4.52135,-9.22695 11.30337,-9.22695 6.30835,0 10.91582,3.68647 11.19571,8.92513 h -4.69358 c -0.45214,-2.86725 -2.94964,-4.65659 -6.56672,-4.65659 -3.81085,0 -6.35142,1.83246 -6.35142,4.63504 0,2.2205 1.6363,3.49244 5.68398,4.44101 l 3.42331,0.84077 c 6.37294,1.48752 8.99963,4.07451 8.99963,8.75267 0,5.95008 -4.60747,9.67967 -11.9708,9.67967 -6.88967,0 -11.51867,-3.55712 -11.86316,-9.11916 z"
       fill="#000000"
       fill-rule="nonzero"
       id="path1" />
  </g>
  <path
     style="fill:#ffb300;stroke-width:0;stroke-linecap:round;stroke-linejoin:round"
     d="M 125.90038,156.52218 98.842874,120.37971 54.035016,54.931263 9.2271584,-10.517185 8.9673818,36.262361 C 8.8245043,61.991116 8.6796595,92.070578 8.645504,103.10562 l -0.062099,20.0637 H 4.2917016 0 V 51.283321 -20.602683 h 5.5008971 5.5008969 l 71.14892,106.462784 c 39.131906,58.554539 71.072026,106.539679 70.978046,106.633669 -0.094,0.094 -12.34676,-16.09323 -27.22838,-35.97159 z"
     id="path2" />
  <path
     style="fill:#ffb300;stroke-width:0;stroke-linecap:round;stroke-linejoin:round"
     d="m 121.02598,51.283321 v -71.886004 h 48.06706 48.06706 v 3.647949 3.647943 H 173.38474 129.60939 V 15.662194 44.63118 h 41.20033 41.20034 v 3.647949 3.647942 h -41.20034 -41.20033 v 31.973178 31.973181 h 44.20452 44.20453 v 3.64795 3.64794 h -48.49623 -48.49623 z"
     id="path3" />
  <path
     style="fill:#ffb300;stroke-width:0;stroke-linecap:round;stroke-linejoin:round"
     d="m 249.55787,86.381561 c 14.74564,-20.248205 26.80818,-37.008052 26.80564,-37.244096 -0.003,-0.327911 -22.76533,-32.195572 -48.96964,-68.55993 l -0.85047,-1.180218 4.85739,0.0019 4.85738,0.0019 22.53144,31.5189 c 12.39228,17.335392 22.72455,31.52103 22.9606,31.523635 0.23604,0.0026 10.76144,-14.127744 23.38977,-31.400775 17.35381,-23.736518 29.44322,-39.66782 49.50777,-65.240812 14.60094,-18.609421 26.63754,-33.744941 26.74799,-33.63449 0.11044,0.110445 -20.95536,30.877382 -46.8129,68.370963 -25.85754,37.493587 -47.01385,68.363283 -47.01401,68.599322 -2.3e-4,0.338438 25.83707,36.321561 49.8658,69.44716 l 3.32566,4.58469 h -5.04741 -5.04741 L 306.42243,89.503257 C 293.08876,70.986681 281.98625,55.838028 281.75021,55.839583 c -0.23605,0.0013 -11.34366,15.1032 -24.68358,33.559206 l -24.25441,33.556381 -5.0323,0.12087 -5.0323,0.12088 z"
     id="path4" />
  <path
     style="fill:#ffb300;stroke-width:0;stroke-linecap:round;stroke-linejoin:round"
     d="m 395.69489,54.931263 v -68.238054 h -25.32104 -25.32104 v -3.647943 -3.647949 h 54.93378 54.93378 v 3.647949 3.647943 h -25.32104 -25.32104 v 68.238054 68.238057 h -4.2917 -4.2917 z"
     id="path5" />
  <path
     style="fill:#ffb300;stroke-width:0;stroke-linecap:round;stroke-linejoin:round"
     d="m 452.21857,112.33277 c -1.21207,-0.90309 -1.39554,-3.09126 -0.34709,-4.1397 1.93592,-1.93593 5.19474,-0.69253 5.19474,1.98205 0,2.12891 -3.05892,3.49041 -4.84765,2.15765 z"
     id="path6" />
  <path
     style="fill:#ffb300;stroke-width:0;stroke-linecap:round;stroke-linejoin:round"
     d="m 468.01006,112.48476 c -2.80616,-1.29921 -4.93546,-4.10789 -4.93546,-6.51019 0,-0.71037 0.31018,-0.8304 2.14585,-0.8304 1.5699,0 2.14585,0.16395 2.14585,0.61083 0,0.33596 0.48618,1.18862 1.0804,1.8948 1.37802,1.63769 3.75131,2.10992 5.96188,1.18628 2.66025,-1.11152 2.82864,-2.02028 2.82864,-15.265719 V 81.968985 h 2.14585 2.14585 l -0.009,12.338643 c -0.008,11.077482 -0.0904,12.514102 -0.80172,14.055322 -0.95888,2.0776 -2.31753,3.38512 -4.43826,4.27122 -2.17081,0.90702 -6.14267,0.83526 -8.26945,-0.14941 z"
     id="path7" />
  <path
     style="fill:#ffb300;stroke-width:0;stroke-linecap:round;stroke-linejoin:round"
     d="m 495.68876,112.91692 c -3.15483,-1.01686 -5.5117,-3.05143 -6.6266,-5.7204 -0.97194,-2.32675 -0.88094,-2.48152 1.4592,-2.48152 2.00233,0 2.16656,0.0861 2.8295,1.48313 1.33781,2.81922 6.91856,4.2056 10.65122,2.646 2.90555,-1.21402 4.17046,-4.50472 2.51645,-6.54663 -1.07707,-1.32967 -2.25735,-1.83283 -7.56713,-3.225911 -2.61646,-0.686457 -5.47868,-1.725555 -6.36049,-2.309107 -5.38122,-3.561126 -3.86151,-12.273952 2.53446,-14.530579 3.15045,-1.111546 5.41178,-1.248877 8.31537,-0.505011 4.0257,1.031334 6.93317,3.591929 7.54348,6.643526 l 0.26473,1.323629 -2.0922,-0.0097 c -1.92571,-0.009 -2.14648,-0.119827 -2.77418,-1.393069 -1.01101,-2.050739 -3.03136,-3.051014 -6.14759,-3.043667 -3.27575,0.0077 -5.24947,0.972922 -6.08662,2.976506 -1.40529,3.363347 0.42509,5.160499 6.91126,6.785779 7.22791,1.811142 9.76955,3.55479 10.4224,7.150124 0.78426,4.31904 -0.97853,7.88583 -4.86857,9.85093 -1.73293,0.8754 -2.83499,1.08947 -5.98646,1.16283 -2.12439,0.0495 -4.3466,-0.0661 -4.93823,-0.25681 z"
     id="path9" />
</svg>
