<?xml version="1.0" encoding="UTF-8" standalone="no"?>
<!-- Uploaded to: SVG Repo, www.svgrepo.com, Generator: SVG Repo Mixer Tools -->

<svg
   fill="#000000"
   width="560.20001"
   height="560.17499"
   viewBox="0 0 22.408 22.407"
   version="1.1"
   id="svg1"
   xmlns="http://www.w3.org/2000/svg"
   xmlns:svg="http://www.w3.org/2000/svg">
  <defs
     id="defs1" />
  <title
     id="title1">phone</title>
  <path
     d="m 0.001,5.594 c 0,0.938 0.344,1.969 0.781,3.063 0.437,1.094 1,2.125 1.438,2.906 1.188,2.063 2.719,4.094 4.469,5.781 1.75,1.687 3.813,3.094 6.125,3.938 1.344,0.531 2.688,1.125 4.188,1.125 0.75,0 1.813,-0.281 2.781,-0.688 0.938,-0.406 1.781,-1.031 2.094,-1.781 0.125,-0.281 0.281,-0.656 0.375,-1.094 0.094,-0.406 0.156,-0.813 0.156,-1.094 0,-0.156 0,-0.313 -0.031,-0.344 -0.094,-0.188 -0.313,-0.344 -0.563,-0.5 -0.563,-0.281 -0.656,-0.375 -1.5,-0.875 -0.875,-0.5 -1.781,-1.063 -2.563,-1.469 -0.375,-0.219 -0.625,-0.313 -0.719,-0.313 -0.5,0 -1.125,0.688 -1.656,1.438 -0.563,0.75 -1.188,1.438 -1.625,1.438 -0.219,0 -0.438,-0.094 -0.688,-0.25 -0.25,-0.156 -0.5,-0.281 -0.656,-0.375 C 9.657,14.937 7.813,13.094 6.251,10.375 6.063,10.062 5.626,9.406 5.626,9.062 5.626,8.656 6.189,8.187 6.751,7.687 7.282,7.218 7.845,6.656 7.845,5.968 7.845,5.874 7.782,5.593 7.657,5.187 7.376,4.374 7.001,3.437 6.688,2.531 6.532,2.093 6.407,1.781 6.375,1.625 6.312,1.531 6.281,1.406 6.25,1.25 6.219,1.094 6.156,0.96899996 6.125,0.84399996 c -0.094,-0.281 -0.25,-0.5 -0.406,-0.625 -0.156,-0.063 -0.531,-0.156 -0.906,-0.188 -0.375,0 -0.813,-0.03099999314413 -1,-0.03099999314413 -0.094,0 -0.219,0 -0.344,0.03099999314413 H 3.063 C 2.063,0.46899996 1.344,1.344 0.813,2.375 0.313,3.406 0,4.563 0,5.594 Z"
     id="path1" />
  <path
     style="fill:#ffb300;stroke-width:0;stroke-linecap:round;stroke-linejoin:round"
     d="M 16.309242,22.352583 C 15.424131,22.239759 14.798421,22.048857 13.023632,21.350156 11.95236,20.928417 11.77543,20.851069 11.105778,20.511735 8.8932388,19.390574 6.7949868,17.661099 4.92447,15.416821 3.0744214,13.1971 1.4852781,10.514963 0.57787748,8.0806932 -0.0193711,6.4784636 -0.11741294,5.475104 0.19390345,4.151104 0.6332978,2.2824004 1.6519837,0.76668676 2.8997199,0.12509076 l 0.1725291,-0.0887156 0.898575,9.96e-4 c 0.949222,0.001056 1.1690916,0.0212708 1.5896292,0.146162 0.1602028,0.0475772 0.1941684,0.0700112 0.2904904,0.1918676 0.059992,0.0758952 0.1368516,0.1930228 0.1708,0.2602832 0.066866,0.1324788 0.2290468,0.61965084 0.2290468,0.68802924 0,0.023125 0.028542,0.116526 0.063426,0.2075588 0.034884,0.091032 0.1573216,0.4310624 0.2720828,0.7556224 0.1147612,0.32456 0.3879244,1.0758952 0.6070288,1.6696344 0.69932,1.8950456 0.73371,2.0703228 0.5051184,2.5744704 C 7.5292852,6.9040748 7.2888144,7.1806812 6.5774872,7.8204028 5.9069348,8.4234544 5.6816448,8.6949152 5.6217384,8.9720236 5.5737434,9.194034 5.7163044,9.518268 6.261786,10.427716 c 1.0081072,1.680755 1.716726,2.590559 2.9092852,3.735266 0.7051136,0.676821 1.6739878,1.411584 2.6321078,1.996105 0.465405,0.28393 1.246969,0.731893 1.488684,0.853258 0.197461,0.09915 0.231709,0.107706 0.429171,0.107278 0.168772,-3.6e-4 0.238283,-0.01304 0.325591,-0.05937 0.316785,-0.168105 0.763676,-0.613452 1.231837,-1.227582 0.460827,-0.604508 0.604724,-0.77962 0.823756,-1.002454 0.35672,-0.36291 0.686648,-0.567805 0.911643,-0.566156 0.121194,8.88e-4 0.317747,0.08673 0.827249,0.361273 0.448316,0.241577 2.441441,1.400645 3.122881,1.816057 0.206929,0.126147 0.484549,0.287392 0.616932,0.358324 0.442003,0.236828 0.724151,0.46472 0.789013,0.637291 0.08598,0.228743 -0.04212,1.180602 -0.243481,1.809193 -0.118543,0.370069 -0.316521,0.825814 -0.440107,1.013129 -0.146862,0.222594 -0.519442,0.603621 -0.785955,0.803771 -0.722189,0.542364 -1.987223,1.047875 -3.155889,1.261103 -0.326286,0.05953 -1.074762,0.07433 -1.435262,0.02838 z"
     id="path2" />
</svg>
