<?xml version="1.0" encoding="UTF-8" standalone="no"?>
<!-- Uploaded to: SVG Repo, www.svgrepo.com, Generator: SVG Repo Mixer Tools -->

<svg
   width="800"
   height="800"
   viewBox="0 0 24 24"
   version="1.1"
   id="svg2"
   xmlns="http://www.w3.org/2000/svg"
   xmlns:svg="http://www.w3.org/2000/svg">
  <defs
     id="defs2" />
  <g
     id="g2">
    <path
       fill="none"
       d="M 0,0 H 24 V 24 H 0 Z"
       id="path1" />
    <path
       fill-rule="nonzero"
       d="m 14.448,16.24 a 21.877,21.877 0 0 1 -1.747,2.175 c 1.672,1.623 3.228,2.383 4.09,1.884 0.864,-0.498 0.983,-2.225 0.414,-4.484 -0.853,0.19 -1.78,0.334 -2.757,0.425 z m -1.31,0.087 a 27.512,27.512 0 0 1 -2.276,0 c 0.377,0.492 0.758,0.948 1.138,1.364 0.38,-0.416 0.76,-0.872 1.138,-1.364 z m 5.04,-7.894 c 2.665,0.764 4.405,2.034 4.405,3.567 0,1.533 -1.74,2.803 -4.405,3.567 0.67,2.69 0.441,4.832 -0.886,5.598 C 15.964,21.932 13.994,21.06 12,19.135 10.006,21.06 8.036,21.932 6.708,21.165 5.381,20.399 5.151,18.257 5.822,15.567 3.157,14.803 1.417,13.533 1.417,12 1.417,10.467 3.157,9.197 5.822,8.433 5.152,5.743 5.381,3.601 6.708,2.835 8.036,2.068 10.006,2.94 12,4.865 c 1.994,-1.925 3.964,-2.797 5.292,-2.03 1.327,0.766 1.557,2.908 0.886,5.598 z M 17.205,8.185 c 0.57,-2.26 0.45,-3.986 -0.413,-4.484 -0.863,-0.499 -2.419,0.261 -4.09,1.884 0.591,0.643 1.179,1.374 1.746,2.175 0.978,0.09 1.904,0.234 2.757,0.425 z m -10.41,7.63 c -0.57,2.26 -0.45,3.986 0.413,4.484 0.863,0.499 2.419,-0.261 4.09,-1.884 A 21.877,21.877 0 0 1 9.552,16.24 21.877,21.877 0 0 1 6.795,15.815 Z m 4.067,-8.142 a 27.512,27.512 0 0 1 2.276,0 A 20.523,20.523 0 0 0 12,6.31 C 11.62,6.726 11.24,7.182 10.862,7.674 Z M 9.552,7.76 A 21.877,21.877 0 0 1 11.3,5.585 C 9.627,3.962 8.07,3.202 7.209,3.701 6.345,4.199 6.226,5.926 6.795,8.185 7.648,7.995 8.575,7.851 9.552,7.76 Z m 4.342,7.52 A 25.368,25.368 0 0 0 15.787,12 25.368,25.368 0 0 0 13.894,8.72 a 25.368,25.368 0 0 0 -3.788,0 25.368,25.368 0 0 0 -1.893,3.28 25.368,25.368 0 0 0 1.893,3.28 25.368,25.368 0 0 0 3.788,0 z m 1.284,-0.131 c 0.615,-0.08 1.2,-0.183 1.75,-0.304 a 20.523,20.523 0 0 0 -0.612,-1.667 27.512,27.512 0 0 1 -1.138,1.97 z M 8.822,8.85 c -0.615,0.08 -1.2,0.183 -1.75,0.304 0.17,0.536 0.374,1.094 0.612,1.667 a 27.512,27.512 0 0 1 1.138,-1.97 z m -1.75,5.994 c 0.55,0.121 1.135,0.223 1.75,0.304 A 27.512,27.512 0 0 1 7.684,13.178 C 7.446,13.75 7.242,14.308 7.072,14.844 Z M 6.094,14.599 c 0.261,-0.834 0.6,-1.708 1.01,-2.6 -0.41,-0.892 -0.749,-1.766 -1.01,-2.6 -2.242,0.637 -3.677,1.604 -3.677,2.6 0,0.996 1.435,1.963 3.677,2.6 z M 16.928,9.154 C 16.378,9.033 15.793,8.931 15.178,8.85 a 27.511,27.511 0 0 1 1.138,1.97 c 0.238,-0.572 0.442,-1.13 0.612,-1.666 z m 0.978,0.245 c -0.261,0.834 -0.6,1.708 -1.01,2.6 0.41,0.892 0.749,1.766 1.01,2.6 2.242,-0.637 3.677,-1.604 3.677,-2.6 0,-0.996 -1.435,-1.963 -3.677,-2.6 z M 12,13.88 a 1.88,1.88 0 1 1 0,-3.76 1.88,1.88 0 0 1 0,3.76 z"
       id="path2" />
  </g>
  <path
     style="fill:#ffb300;stroke-width:0;stroke-linecap:round;stroke-linejoin:round"
     d="m 11.627829,13.832173 c -0.74868,-0.166182 -1.300918,-0.721007 -1.459511,-1.466347 -0.03747,-0.176116 -0.03747,-0.555536 0,-0.731653 0.146611,-0.689026 0.616308,-1.204398 1.298572,-1.424849 0.141316,-0.04566 0.219042,-0.057 0.44778,-0.0653 0.171946,-0.0062 0.324342,-10e-4 0.402347,0.0137 0.772881,0.1462 1.351661,0.710375 1.514664,1.476444 0.03747,0.176117 0.03747,0.555537 0,0.731653 -0.159416,0.749211 -0.716644,1.306439 -1.465855,1.465856 -0.165159,0.03514 -0.580641,0.03542 -0.737997,4.92e-4 z"
     id="path3" />
  <path
     style="fill:#ffb300;stroke-width:0;stroke-linecap:round;stroke-linejoin:round"
     d="M 7.4216808,21.405867 C 6.7300788,21.27969 6.2075898,20.885866 5.8773837,20.241859 5.6173128,19.734638 5.4979356,19.182099 5.4780411,18.393495 c -0.020484,-0.811973 0.07564,-1.646234 0.2971947,-2.579351 0.03259,-0.137259 0.056888,-0.25172 0.053996,-0.25436 -0.00289,-0.0026 -0.1180428,-0.03841 -0.2558898,-0.07948 C 4.9738707,15.301667 4.3429974,15.053826 3.8035221,14.78502 3.1136841,14.441294 2.6514623,14.122464 2.2327411,13.701531 1.7925482,13.259013 1.5420503,12.817836 1.4583025,12.337592 1.2952384,11.402512 1.8134197,10.482673 2.9371333,9.7124757 3.5967444,9.2603757 4.6290597,8.7952566 5.6091039,8.5085949 5.8158558,8.44812 5.8357701,8.4381588 5.8254519,8.4003744 5.7264024,8.0376576 5.5779816,7.227963 5.5191279,6.7292541 5.4747165,6.3529227 5.4677481,5.3205354 5.5077219,5.0393964 5.6265399,4.2037383 5.8714728,3.6126519 6.2736,3.1911348 6.5079189,2.9455172 6.8577684,2.7401255 7.2061653,2.6436389 7.4360295,2.5799792 7.8772296,2.5566723 8.154291,2.5935531 8.9334471,2.69727 9.8358729,3.1245726 10.792332,3.8426769 c 0.293449,0.22032 0.753295,0.6087561 1.019269,0.8609856 0.09554,0.090605 0.182113,0.1647366 0.19238,0.1647366 0.01027,0 0.04526,-0.028042 0.07775,-0.062316 0.08365,-0.088226 0.530018,-0.4868316 0.733018,-0.6545883 1.079515,-0.8920995 2.145627,-1.4400914 3.030956,-1.5579414 0.248819,-0.033121 0.716711,-0.012845 0.916747,0.039728 0.967382,0.2542448 1.536394,1.0457186 1.729822,2.4061151 0.03997,0.281139 0.03301,1.3135263 -0.01141,1.6898577 -0.05877,0.498003 -0.207493,1.3095759 -0.306034,1.6700127 -0.01,0.036486 0.01431,0.04807 0.244643,0.1166892 1.104278,0.3289809 2.169048,0.833331 2.875827,1.3621953 0.273391,0.2045706 0.694142,0.6291336 0.846784,0.8544556 0.499908,0.737933 0.563952,1.4718 0.193119,2.212908 -0.188011,0.37574 -0.614066,0.857691 -1.039903,1.176334 -0.465682,0.348457 -1.192325,0.741876 -1.861947,1.008094 -0.30525,0.121357 -1.070731,0.382418 -1.203835,0.410559 -0.05652,0.01195 -0.06533,0.02109 -0.05541,0.05747 0.09895,0.362931 0.244325,1.156335 0.306505,1.672771 0.04509,0.374449 0.05219,1.404765 0.01166,1.689858 -0.192346,1.352783 -0.746609,2.130922 -1.708928,2.399191 -0.182822,0.05097 -0.22337,0.05477 -0.578824,0.05429 -0.320152,-4.32e-4 -0.415962,-0.0079 -0.589932,-0.04579 -1.00633,-0.219362 -2.128504,-0.885751 -3.312026,-1.966806 -0.122154,-0.111578 -0.234523,-0.217948 -0.249709,-0.236378 -0.01518,-0.01843 -0.0366,-0.03351 -0.04758,-0.03351 -0.01098,0 -0.09814,0.07408 -0.193681,0.16463 -1.156868,1.096375 -2.4009943,1.850082 -3.4158706,2.069378 -0.217683,0.04704 -0.8040519,0.07127 -0.9740496,0.04026 z m 0.9044844,-1.017431 c 0.7932714,-0.20319 1.8074998,-0.853358 2.7976168,-1.793403 l 0.190002,-0.180393 -0.18858,-0.209835 C 10.886806,17.939537 10.42691,17.386599 10.17263,17.059514 10.013948,16.855397 9.6237426,16.32844 9.5740686,16.25118 9.5675514,16.241044 9.4362858,16.219547 9.2823672,16.203409 8.510154,16.122448 7.8009816,16.012692 7.0560057,15.858845 c -0.1411584,-0.02915 -0.2611794,-0.04847 -0.2667135,-0.04294 -0.019503,0.0195 -0.1501371,0.621237 -0.2096139,0.965533 -0.087751,0.507966 -0.1226649,0.840628 -0.1358106,1.294002 -0.039737,1.370437 0.3340941,2.185203 1.0800216,2.35391 0.1943829,0.04396 0.5396487,0.02636 0.8022759,-0.04091 z m 8.1398868,0.04065 c 0.385062,-0.08085 0.688863,-0.352186 0.865088,-0.772657 0.247211,-0.589841 0.295607,-1.467022 0.140503,-2.546618 -0.07494,-0.521635 -0.237613,-1.297569 -0.272029,-1.297569 -0.0096,0 -0.174077,0.0314 -0.365466,0.06979 -0.644709,0.1293 -1.241598,0.221721 -1.946592,0.301405 -0.247932,0.02802 -0.45589,0.05888 -0.46213,0.06856 -0.04944,0.07677 -0.440242,0.604548 -0.597926,0.807517 -0.247353,0.318387 -0.709183,0.872897 -0.953448,1.144786 l -0.188062,0.20933 0.180487,0.1729 c 0.09927,0.0951 0.296637,0.272481 0.438598,0.394191 1.275541,1.093581 2.398985,1.608343 3.160977,1.448361 z m -4.063533,-3.178453 c 0.252017,-0.292665 0.734111,-0.891659 0.734111,-0.91212 0,-0.0073 -0.511483,-0.01328 -1.13663,-0.01328 -0.625147,0 -1.13663,0.006 -1.13663,0.01328 0,0.01539 0.45512,0.588374 0.620628,0.781357 0.06168,0.07192 0.202731,0.233801 0.313446,0.359737 l 0.201302,0.228975 0.08929,-0.09821 c 0.04911,-0.05402 0.190626,-0.215898 0.314487,-0.359737 z m 0.804522,-1.92172 c 0.254485,-0.01126 0.515407,-0.02605 0.579828,-0.03286 l 0.117128,-0.01239 0.156333,-0.233616 c 0.53222,-0.795324 1.05457,-1.692705 1.494425,-2.567378 l 0.242874,-0.482966 -0.21133,-0.422354 C 15.143079,10.69155 14.595842,9.7490088 14.062988,8.9536539 L 13.903171,8.7151056 13.766338,8.7025614 c -0.786896,-0.072137 -2.703979,-0.072009 -3.522843,2.4e-4 l -0.147116,0.01298 -0.156521,0.2338968 C 9.3894915,9.7721175 8.8606782,10.682937 8.4065514,11.59062 l -0.2034879,0.406719 0.097965,0.201855 c 0.2577888,0.531167 0.6578625,1.26854 0.9845118,1.814547 0.3757116,0.628016 0.8014997,1.275408 0.8389137,1.275531 0.01361,6e-5 0.151489,0.0099 0.306393,0.02195 0.623974,0.04844 1.897958,0.05656 2.776194,0.01769 z M 8.8188735,15.123219 C 8.8106136,15.109388 8.7393501,14.993747 8.6605101,14.866239 8.3843925,14.419673 8.009535,13.767434 7.784973,13.342833 7.736696,13.251553 7.691143,13.176865 7.6837455,13.176865 c -0.0074,0 -0.032069,0.04753 -0.054826,0.105616 -0.3387096,0.864617 -0.5783796,1.542435 -0.5532861,1.564764 0.020618,0.01835 0.6757398,0.146427 1.0718934,0.20956 0.6477348,0.103226 0.6961947,0.10802 0.6713463,0.06641 z m 6.7907975,-0.02607 c 0.564266,-0.0867 1.285742,-0.223766 1.314695,-0.249774 0.02507,-0.02252 -0.214401,-0.699832 -0.553286,-1.564896 -0.02276,-0.05809 -0.04743,-0.105616 -0.05483,-0.105616 -0.0074,0 -0.05295,0.07469 -0.101227,0.165968 -0.226798,0.42883 -0.614006,1.102855 -0.875429,1.52389 -0.07901,0.127242 -0.15036,0.242665 -0.158567,0.256496 -0.0218,0.03674 0.04712,0.03255 0.42864,-0.02607 z M 6.2117043,14.277868 c 0.1878588,-0.578132 0.5607738,-1.528117 0.834798,-2.12661 l 0.068909,-0.150503 -0.099349,-0.221668 C 6.7348608,11.151663 6.4306902,10.37642 6.2344929,9.7870914 6.1645053,9.5768649 6.1046526,9.4011288 6.1014873,9.3965667 6.0924678,9.3835674 5.6733294,9.5099784 5.3411568,9.6258807 3.8607381,10.14243 2.8899213,10.782778 2.5423992,11.471931 c -0.2620222,0.519602 -0.128833,1.061668 0.3860883,1.571336 0.5287446,0.523351 1.4445075,1.01239 2.603784,1.390483 0.1936296,0.06315 0.3882651,0.126847 0.4325232,0.141545 0.1396332,0.04637 0.1323396,0.05516 0.2469096,-0.297427 z m 11.9849927,0.246304 c 1.341678,-0.416557 2.324583,-0.926859 2.891346,-1.501123 0.344266,-0.348823 0.497875,-0.665606 0.497875,-1.026756 0,-0.19196 -0.03706,-0.343387 -0.128317,-0.524362 C 21.12613,10.814608 20.247314,10.214037 18.861666,9.6979041 18.588667,9.5962164 17.95849,9.394803 17.91333,9.394803 c -0.01304,0 -0.03945,0.05658 -0.05869,0.1257336 -0.103363,0.3714858 -0.551271,1.5397574 -0.831062,2.1676444 L 16.884632,12 l 0.06891,0.15088 c 0.276958,0.606388 0.647167,1.549701 0.834752,2.126988 0.05835,0.179567 0.11539,0.326675 0.126758,0.326907 0.01137,2.4e-4 0.138109,-0.03604 0.281643,-0.0806 z M 7.8544932,10.52638 C 8.0555712,10.152579 8.4589695,9.455352 8.6603733,9.1335111 8.7450678,8.9981706 8.8186572,8.8762479 8.8239051,8.8625718 c 0.010489,-0.027333 0.012691,-0.027571 -0.5757912,0.062171 -0.411597,0.062767 -1.1512005,0.2058486 -1.1727078,0.2268684 -0.028529,0.027882 0.5687904,1.6715778 0.6074241,1.6714988 0.00663,-1.3e-5 0.08388,-0.133542 0.171663,-0.29673 z m 8.6268928,-0.0905 C 16.692487,9.8986077 16.943794,9.1703838 16.924594,9.1515711 16.88928,9.1169691 15.200804,8.8196964 15.17178,8.842971 c -0.0037,0.00298 0.09221,0.1668387 0.213177,0.3641259 0.249919,0.407598 0.552749,0.9334771 0.771269,1.3393461 0.08189,0.152094 0.154313,0.27657 0.160944,0.276614 0.0066,2.9e-5 0.08053,-0.174189 0.164216,-0.387181 z M 7.0646103,8.1386148 C 7.6177608,8.0193426 8.3887608,7.8980241 9.1112547,7.8165711 9.3591588,7.7886225 9.5638245,7.7633895 9.5660673,7.7604975 9.5683113,7.7576055 9.6318132,7.6692372 9.7071855,7.5641241 10.079801,7.0444791 10.555342,6.4476579 11.00762,5.9320338 l 0.301958,-0.3442503 -0.08731,-0.089741 C 11.004827,5.2745538 10.490099,4.8333459 10.149204,4.5782481 9.084522,3.7815303 8.183607,3.4345206 7.533948,3.5709183 7.0587609,3.6706851 6.725268,4.0434312 6.5620914,4.6571667 6.4114005,5.2239399 6.3997515,5.9950362 6.528357,6.8901927 6.6138252,7.4850933 6.7662288,8.187762 6.8097903,8.187762 c 0.014789,0 0.1294587,-0.022116 0.25482,-0.049147 z M 17.259896,8.0054778 C 17.585397,6.6190227 17.647812,5.4437133 17.437708,4.6571667 17.344405,4.3078758 17.214752,4.064442 17.016358,3.8660481 16.399394,3.2490837 15.241336,3.5201775 13.797519,4.6195575 13.518427,4.8320697 13.138467,5.1559809 12.876344,5.4048483 l -0.189876,0.1802739 0.197136,0.2200122 c 0.420363,0.4691436 0.976699,1.1608977 1.344985,1.6723677 0.196745,0.2732367 0.20908,0.2860158 0.28608,0.2963796 0.04426,0.00596 0.284158,0.034146 0.53311,0.062642 0.59404,0.067996 1.151693,0.1550637 1.665331,0.2600127 0.229248,0.046841 0.436429,0.086529 0.460402,0.088196 0.03889,0.0027 0.0482,-0.01663 0.08638,-0.1792542 z M 13.13663,7.6614909 c 0,-0.031927 -0.567927,-0.7246497 -0.94351,-1.1508366 L 12.000476,6.2920542 11.9034,6.4000089 c -0.306528,0.3408786 -1.04003,1.2315354 -1.04003,1.2628593 0,0.00655 0.511483,0.011901 1.13663,0.011901 0.625147,0 1.13663,-0.00598 1.13663,-0.013278 z"
     id="path4" />
</svg>
