<?xml version="1.0" encoding="UTF-8" standalone="no"?>
<!-- Uploaded to: SVG Repo, www.svgrepo.com, Generator: SVG Repo Mixer Tools -->

<svg
   height="602.63281"
   width="800.00165"
   version="1.1"
   id="_x32_"
   viewBox="0 0 512.00105 385.685"
   xml:space="preserve"
   xmlns="http://www.w3.org/2000/svg"
   xmlns:svg="http://www.w3.org/2000/svg"><defs
   id="defs4" />
<style
   type="text/css"
   id="style1">
	.st0{fill:#000000;}
</style>
<g
   id="g4"
   transform="translate(0,-63.157001)">
	<path
   class="st0"
   d="m 61.936,345.186 h 388.128 c 14.81,0 26.822,-12.019 26.822,-26.828 V 89.967 c 0,-14.797 -12.012,-26.81 -26.822,-26.81 H 61.936 c -14.81,0 -26.81,12.012 -26.81,26.81 v 228.39 c 0.001,14.81 12,26.829 26.81,26.829 z M 76.126,99.189 H 435.875 V 302.838 H 76.126 Z"
   id="path1" />
	<path
   class="st0"
   d="m 508.025,419.609 -47.841,-42.468 c -3.076,-2.722 -7.5,-4.266 -12.171,-4.266 H 63.98 c -4.664,0 -9.095,1.544 -12.164,4.266 L 3.968,419.609 C 1.405,421.874 0,424.792 0,427.811 v 14.797 c 0,3.456 3.608,6.234 8.064,6.234 h 495.874 c 4.468,0 8.063,-2.778 8.063,-6.234 v -14.797 c -10e-4,-3.019 -1.413,-5.937 -3.976,-8.202 z m -306.888,5.012 13.848,-18.721 h 87.733 l 13.829,18.721 z"
   id="path2" />
	<path
   class="st0"
   d="m 189.143,200.96 -4.442,-0.633 c -11.374,-1.588 -15.449,-5.55 -15.449,-11.354 0,-6.545 4.69,-11.241 13.221,-11.241 7.038,0 13.342,2.095 20.139,6.544 l 1.728,-0.373 5.936,-9.146 -0.253,-1.721 c -6.671,-5.069 -16.683,-8.392 -27.177,-8.392 -17.297,0 -28.417,10.113 -28.417,25.322 0,13.956 9.139,21.74 25.322,23.962 l 4.456,0.62 c 11.608,1.601 15.31,5.55 15.31,11.607 0,7.032 -5.804,12.108 -15.81,12.108 -9.392,0 -17.423,-4.57 -22.854,-8.886 l -1.728,0.114 -7.664,8.899 0.246,1.861 c 6.551,6.17 18.538,11.101 30.886,11.101 20.892,0 31.638,-11.101 31.638,-26.05 0.001,-14.469 -8.904,-22.134 -25.088,-24.342 z"
   id="path3" />
	<polygon
   class="st0"
   points="282.554,250.01 283.794,248.776 283.794,238.149 282.554,236.915 244.016,236.915 243.275,236.162 243.275,214.915 244.016,214.175 276.51,214.175 277.75,212.94 277.75,202.314 276.51,201.08 244.016,201.08 243.275,200.326 243.275,179.827 244.016,179.087 282.554,179.087 283.794,177.846 283.794,167.219 282.554,165.986 229.928,165.986 228.693,167.219 228.693,248.776 229.928,250.01 "
   id="polygon3" />
	<path
   class="st0"
   d="m 328.54,164.644 c -14.462,0 -25.329,6.905 -29.658,20.246 -1.728,5.19 -2.228,9.886 -2.228,23.107 0,13.222 0.5,17.918 2.228,23.108 4.329,13.342 15.196,20.246 29.658,20.246 14.576,0 25.436,-6.905 29.766,-20.246 1.734,-5.19 2.234,-9.886 2.234,-23.108 0,-13.221 -0.5,-17.917 -2.234,-23.107 -4.329,-13.341 -15.19,-20.246 -29.766,-20.246 z m 15.684,62.619 c -2.348,6.81 -7.284,11 -15.683,11 -8.284,0 -13.221,-4.19 -15.576,-11 -0.981,-3.089 -1.481,-7.412 -1.481,-19.266 0,-11.987 0.5,-16.177 1.481,-19.278 2.354,-6.797 7.291,-10.987 15.576,-10.987 8.399,0 13.335,4.19 15.683,10.987 0.981,3.101 1.494,7.291 1.494,19.278 0,11.855 -0.513,16.177 -1.494,19.266 z"
   id="path4" />
</g>
<path
   style="fill:#ffb300;stroke-width:0;stroke-linecap:round;stroke-linejoin:round"
   d="M 56.865046,281.2621 C 45.60287,278.78891 37.238234,269.96823 35.634396,258.87394 35.361489,256.98613 35.211276,214.61696 35.215427,140.69883 35.220921,42.879101 35.31431,24.947901 35.833459,22.033731 37.602998,12.100695 45.659276,3.5138657 55.560412,1.0076449 57.822303,0.43510794 81.017606,0.36018186 256,0.36018186 c 174.98239,0 198.1777,0.0749261 200.43959,0.64746304 10.0173,2.5356288 18.00283,11.1297091 19.7502,21.2553791 0.54599,3.163763 0.61525,19.327117 0.51706,120.591986 l -0.11339,116.93854 -1.31322,3.66689 c -3.38048,9.43928 -10.58411,15.80307 -20.11768,17.77228 -2.86919,0.59265 -24.05781,0.65946 -199.46634,0.62897 C 95.007104,281.83375 58.973402,281.72508 56.865046,281.2621 Z M 436.03688,137.90922 V 35.981303 H 256 75.963117 V 137.90922 239.83713 H 256 436.03688 Z"
   id="path5" /><path
   style="fill:#ffb300;stroke-width:0;stroke-linecap:round;stroke-linejoin:round"
   d="m 174.07016,187.24338 c -7.15995,-1.34652 -14.81453,-4.57817 -19.89078,-8.3976 -1.61509,-1.21521 -2.25315,-1.98534 -2.25315,-2.71951 0,-1.19842 7.03965,-9.67724 8.03465,-9.67724 0.34687,0 2.21545,1.05448 4.15239,2.34327 7.61017,5.06364 15.74568,7.26968 23.00992,6.23943 8.00117,-1.13477 12.42686,-5.41657 12.43674,-12.03241 0.0106,-7.11252 -4.19815,-10.10075 -16.94803,-12.03309 -11.23509,-1.70276 -16.66723,-3.73864 -21.21853,-7.95234 -4.67237,-4.32579 -6.61512,-9.10199 -6.61512,-16.2631 0,-13.71489 8.95461,-23.02402 23.82553,-24.76877 9.42031,-1.10526 21.51294,1.62065 29.00729,6.53877 1.55425,1.01997 2.25313,1.76318 2.25313,2.39603 0,1.03891 -5.32178,9.42039 -6.19393,9.75507 -0.31239,0.11987 -2.66768,-0.83532 -5.23396,-2.12266 -6.31833,-3.16949 -10.49088,-4.17278 -16.41984,-3.94813 -5.25797,0.19923 -7.46732,0.98456 -10.00231,3.55541 -2.80724,2.84696 -3.74735,8.02125 -2.11164,11.62242 1.87072,4.1186 6.63877,6.35036 16.91721,7.91837 9.30521,1.41953 13.58915,2.76976 17.88112,5.63582 4.27795,2.85671 6.89344,6.48436 8.32499,11.54665 2.50595,8.86157 0.15997,18.56364 -5.97125,24.69486 -3.17515,3.17515 -8.7617,6.09646 -13.92802,7.28321 -4.44159,1.02027 -14.58958,1.22558 -19.05641,0.38554 z"
   id="path6" /><path
   style="fill:#ffb300;stroke-width:0;stroke-linecap:round;stroke-linejoin:round"
   d="m 229.45796,185.83519 c -0.65031,-0.71859 -0.71027,-4.19093 -0.71027,-41.13382 0,-38.54439 0.0351,-40.38075 0.78485,-41.05925 0.7121,-0.64444 3.19186,-0.71027 26.75661,-0.71027 24.616,0 26.00886,0.041 26.68205,0.78484 0.57437,0.63467 0.71028,1.73055 0.71028,5.72728 0,4.24312 -0.11105,5.04294 -0.78485,5.65271 -0.70553,0.6385 -2.71336,0.71027 -19.87058,0.71027 -14.27223,0 -19.21562,0.12989 -19.60074,0.51501 -0.73148,0.73148 -0.73148,20.55536 0,21.28684 0.38233,0.38232 4.67748,0.515 16.67113,0.515 15.10673,0 16.20224,0.051 16.86638,0.78484 1.09382,1.20866 1.03834,10.37282 -0.0688,11.37482 -0.68944,0.62394 -2.67775,0.71805 -17.2741,0.81757 l -16.49497,0.11246 v 11.15843 11.15842 l 19.49834,0.11172 c 17.39211,0.0997 19.58259,0.18797 20.27829,0.81757 0.67226,0.60838 0.77995,1.42551 0.77995,5.91811 0,3.48178 -0.17099,5.38327 -0.51501,5.72729 -0.38933,0.38933 -6.9187,0.515 -26.75662,0.515 -24.8774,0 -26.27853,-0.0408 -26.95189,-0.78484 z"
   id="path7" /><path
   style="fill:#ffb300;stroke-width:0;stroke-linecap:round;stroke-linejoin:round"
   d="m 321.01928,187.28508 c -11.24745,-2.41184 -18.86119,-9.41507 -22.2432,-20.45962 -1.52917,-4.99378 -1.90296,-10.57005 -1.67394,-24.97175 0.18729,-11.77751 0.32209,-13.81524 1.12164,-16.95602 2.97772,-11.69711 9.77223,-18.87168 20.86423,-22.03131 2.89328,-0.82417 4.41227,-0.9735 9.65633,-0.94933 5.48036,0.0253 6.6839,0.1675 10.0855,1.19193 10.71507,3.22696 17.13397,10.20295 20.17425,21.92514 1.84415,7.11035 1.71362,32.94791 -0.20381,40.34199 -2.77952,10.71851 -9.61448,17.98979 -19.97044,21.24529 -3.86887,1.21622 -13.55128,1.57702 -17.81056,0.66368 z m 11.74363,-12.46247 c 6.46487,-1.36969 10.37193,-5.39815 12.17068,-12.54883 0.61199,-2.43287 0.73362,-5.17713 0.74699,-16.85408 0.0172,-15.03362 -0.28702,-18.1675 -2.14505,-22.09505 -1.59431,-3.3701 -3.75542,-5.59633 -6.96782,-7.17779 -2.76285,-1.36015 -3.06224,-1.41283 -8.02893,-1.41283 -4.68514,0 -5.38202,0.10453 -7.58618,1.13788 -4.69631,2.20173 -7.9795,7.03399 -9.01366,13.26647 -0.7065,4.25782 -0.71417,26.93872 -0.0106,31.30227 1.77065,10.98131 10.01717,16.67382 20.83455,14.38196 z"
   id="path8" /><path
   style="fill:#ffb300;stroke-width:0;stroke-linecap:round;stroke-linejoin:round"
   d="M 3.8713002,384.36018 C 0.29056893,382.53052 0.21458508,382.26676 0.21458508,371.66667 v -9.30146 L 1.439454,360.15535 c 1.0009212,-1.80582 5.8074868,-6.27844 26.289233,-24.4627 13.785401,-12.23906 26.004799,-22.78899 27.154219,-23.44429 4.592958,-2.61851 -9.979892,-2.44159 201.117094,-2.44159 211.0964,0 196.5141,-0.17703 201.12532,2.44159 1.15395,0.6553 13.36826,11.19592 27.14295,23.42359 20.58184,18.27036 25.26516,22.62963 26.281,24.4627 l 1.23614,2.23056 v 9.302 c 0,10.60054 -0.0757,10.86314 -3.6567,12.69297 l -1.8898,0.96563 H 256 5.7610858 Z M 316.65604,361.3688 c -0.0787,-0.19397 -3.22513,-4.53931 -6.99213,-9.65633 l -6.84907,-9.30367 -44.00759,0.0187 -44.00758,0.0187 -6.43756,8.77725 c -3.54065,4.82748 -6.70251,9.16444 -7.02636,9.63766 -0.58836,0.85977 -0.54518,0.86042 57.43727,0.86042 31.91435,0 57.96171,-0.1587 57.88302,-0.35266 z"
   id="path9" /></svg>
