<?xml version="1.0" encoding="UTF-8" standalone="no"?>
<!-- Created with Inkscape (http://www.inkscape.org/) -->

<svg
   width="297mm"
   height="210mm"
   viewBox="0 0 297 210"
   version="1.1"
   id="svg1"
   xml:space="preserve"
   inkscape:version="1.4 (e7c3feb100, 2024-10-09)"
   sodipodi:docname="solidcode_black.svg"
   inkscape:export-filename="solidcode_black.png"
   inkscape:export-xdpi="96"
   inkscape:export-ydpi="96"
   xmlns:inkscape="http://www.inkscape.org/namespaces/inkscape"
   xmlns:sodipodi="http://sodipodi.sourceforge.net/DTD/sodipodi-0.dtd"
   xmlns="http://www.w3.org/2000/svg"
   xmlns:svg="http://www.w3.org/2000/svg"><sodipodi:namedview
     id="namedview1"
     pagecolor="#505050"
     bordercolor="#eeeeee"
     borderopacity="1"
     inkscape:showpageshadow="0"
     inkscape:pageopacity="0"
     inkscape:pagecheckerboard="0"
     inkscape:deskcolor="#505050"
     inkscape:document-units="mm"
     showguides="true"
     inkscape:zoom="0.9238145"
     inkscape:cx="687.90867"
     inkscape:cy="287.93659"
     inkscape:window-width="2816"
     inkscape:window-height="1214"
     inkscape:window-x="69"
     inkscape:window-y="58"
     inkscape:window-maximized="0"
     inkscape:current-layer="layer1"
     showgrid="false"><sodipodi:guide
       position="-148.6479,121.49982"
       orientation="1,0"
       id="guide1"
       inkscape:locked="false" /><sodipodi:guide
       position="193.6068,33.404677"
       orientation="0,-1"
       id="guide2"
       inkscape:locked="false" /><sodipodi:guide
       position="81.614583,95.57757"
       orientation="1,0"
       id="guide3"
       inkscape:locked="false" /><sodipodi:guide
       position="221.35171,93.754912"
       orientation="1,0"
       id="guide4"
       inkscape:locked="false" /><sodipodi:guide
       position="149.03834,46.376083"
       orientation="1,0"
       id="guide5"
       inkscape:locked="false" /><sodipodi:guide
       position="153.97558,46.92189"
       orientation="1,0"
       id="guide6"
       inkscape:locked="false" /><sodipodi:guide
       position="233.23848,202.15583"
       orientation="0,-1"
       id="guide7"
       inkscape:locked="false" /><sodipodi:guide
       position="69.245765,52.31981"
       orientation="0,-1"
       id="guide8"
       inkscape:locked="false" /></sodipodi:namedview><defs
     id="defs1"><inkscape:path-effect
       effect="fillet_chamfer"
       id="path-effect2"
       is_visible="true"
       lpeversion="1"
       nodesatellites_param="F,0,0,1,0,2.6458333,0,1 @ F,0,0,1,0,2.6458333,0,1 @ F,0,0,1,0,2.6458333,0,1 @ F,0,0,1,0,2.6458333,0,1 @ F,0,0,1,0,2.6458333,0,1 @ F,0,0,1,0,2.6458333,0,1 @ F,0,0,1,0,2.6458333,0,1 @ F,0,0,1,0,2.6458333,0,1 @ F,0,0,1,0,2.6458333,0,1 @ F,0,0,1,0,2.6458333,0,1"
       radius="10"
       unit="px"
       method="auto"
       mode="F"
       chamfer_steps="1"
       flexible="false"
       use_knot_distance="true"
       apply_no_radius="true"
       apply_with_radius="true"
       only_selected="false"
       hide_knots="false" /><inkscape:path-effect
       effect="fillet_chamfer"
       id="path-effect1"
       is_visible="true"
       lpeversion="1"
       nodesatellites_param="F,0,0,1,0,2.6458333,0,1 @ F,0,0,1,0,2.6458333,0,1 @ F,0,0,1,0,2.6458333,0,1 @ F,0,0,1,0,2.6458333,0,1 @ F,0,0,1,0,2.6458333,0,1 @ F,0,0,1,0,2.6458333,0,1 @ F,0,0,1,0,2.6458333,0,1 @ F,0,0,1,0,2.6458333,0,1 @ F,0,0,1,0,2.6458333,0,1 @ F,0,0,1,0,2.6458333,0,1 @ F,0,0,1,0,2.6458333,0,1 @ F,0,0,1,0,2.6458333,0,1 @ F,0,0,1,0,2.6458333,0,1 @ F,0,0,1,0,2.6458333,0,1"
       radius="10"
       unit="px"
       method="auto"
       mode="F"
       chamfer_steps="1"
       flexible="false"
       use_knot_distance="true"
       apply_no_radius="true"
       apply_with_radius="true"
       only_selected="false"
       hide_knots="false" /><filter
       style="color-interpolation-filters:sRGB"
       inkscape:label="Drop Shadow"
       id="filter25"
       x="-0.044526283"
       y="-0.019885307"
       width="1.1043972"
       height="1.0466564"><feFlood
         result="flood"
         in="SourceGraphic"
         flood-opacity="0.498039"
         flood-color="rgb(0,0,0)"
         id="feFlood24" /><feGaussianBlur
         result="blur"
         in="SourceGraphic"
         stdDeviation="0.800000"
         id="feGaussianBlur24" /><feOffset
         result="offset"
         in="blur"
         dx="1.000000"
         dy="1.000000"
         id="feOffset24" /><feComposite
         result="comp1"
         operator="in"
         in="flood"
         in2="offset"
         id="feComposite24" /><feComposite
         result="comp2"
         operator="over"
         in="SourceGraphic"
         in2="comp1"
         id="feComposite25" /></filter><filter
       style="color-interpolation-filters:sRGB"
       inkscape:label="Drop Shadow"
       id="filter46"
       x="-0.033678968"
       y="-0.014902645"
       width="1.0749437"
       height="1.0332608"><feFlood
         result="flood"
         in="SourceGraphic"
         flood-opacity="0.498039"
         flood-color="rgb(0,0,0)"
         id="feFlood45" /><feGaussianBlur
         result="blur"
         in="SourceGraphic"
         stdDeviation="0.500000"
         id="feGaussianBlur45" /><feOffset
         result="offset"
         in="blur"
         dx="0.500000"
         dy="0.500000"
         id="feOffset45" /><feComposite
         result="comp1"
         operator="in"
         in="flood"
         in2="offset"
         id="feComposite45" /><feComposite
         result="comp2"
         operator="over"
         in="SourceGraphic"
         in2="comp1"
         id="feComposite46" /></filter></defs><g
     inkscape:label="logo"
     inkscape:groupmode="layer"
     id="layer1"><g
       id="path1"
       inkscape:label="s"
       transform="matrix(1.0256675,0,0,1.0256675,-2.8841112,-0.99415498)"
       style="fill:#1c1c1c;fill-opacity:1"><path
         style="display:inline;fill:#1c1c1c;fill-opacity:1;stroke-linecap:round"
         d="M 148.05804,50.580398 V 10.144718 A 1.5275726,1.5275726 30 0 0 145.76668,8.8218012 L 83.94734,44.513213 a 2.6019853,2.6019853 104.52128 0 0 -0.930339,3.59185 l 14.976594,24.967226 a 4.6724449,4.6724449 29.521278 0 0 4.006855,2.268933 h 28.44542 a 2.6458333,2.6458333 45 0 1 2.64583,2.645833 V 100.3309 a 0.74438384,0.74438384 164.28648 0 1 -1.37957,0.38813 l -9.71392,-15.897084 a 4.7200328,4.7200328 29.299977 0 0 -4.0254,-2.258948 l -11.68967,-0.0055 a 1.4976471,1.4976471 119.53858 0 0 -1.28511,2.267868 l 41.76787,69.651504 a 0.72923671,0.72923671 164.45929 0 0 1.35464,-0.37672 l -0.20919,-91.078854 a 2.6516152,2.6516152 44.930935 0 0 -2.65191,-2.645524 l -35.0753,0.004 a 4.6446397,4.6446397 29.661606 0 1 -3.99546,-2.275425 l -3.09594,-5.220326 a 2.6212557,2.6212557 104.5971 0 1 0.93859,-3.604061 l 26.67242,-15.483575 a 1.5354343,1.5354343 29.73693 0 1 2.30626,1.317438 l 0.10584,15.526407 a 2.6532863,2.6532863 44.689994 0 0 2.66385,2.635178 l 9.63253,-0.03857 a 2.6564489,2.6564489 134.88529 0 0 2.64581,-2.656427 z"
         id="path3" /></g><g
       id="path2"
       inkscape:label="c"
       style="fill:#1c1c1c;fill-opacity:1"
       transform="matrix(1.0174515,0,0,1.0174515,-3.8469842,-0.14801703)"><path
         style="fill:#1c1c1c;fill-opacity:1"
         d="m 155.11556,10.00229 v 144.52057 a 0.72686884,0.72686884 15.361446 0 0 1.35172,0.37134 L 202.4192,77.572743 a 1.5053983,1.5053983 60.361446 0 0 -1.29411,-2.274486 h -11.75603 a 4.6534884,4.6534884 150.37874 0 0 -3.99892,2.273669 l -13.85481,23.280904 a 0.727728,0.727728 15.378744 0 1 -1.35309,-0.37216 V 35.253323 a 1.5259166,1.5259166 150.0269 0 1 2.29012,-1.320765 l 26.78146,15.495838 a 2.5859395,2.5859395 75.709701 0 1 0.91297,3.584248 l -3.1618,5.186866 a 1.4939485,1.4939485 60.816495 0 0 1.26865,2.271528 l 11.90833,0.05557 a 4.61453,4.61453 150.43872 0 0 3.99304,-2.264796 l 5.917,-10.001099 a 2.6280733,2.6280733 75.41711 0 0 -0.93893,-3.609015 L 157.40173,8.6883279 a 1.5206792,1.5206792 150.11208 0 0 -2.28617,1.3139621 z"
         id="path7" /></g><path
       style="font-weight:900;font-size:25.3367px;line-height:0.9;font-family:Geist;-inkscape-font-specification:'Geist Heavy';letter-spacing:-0.0211138px;word-spacing:-0.0263925px;fill:#1c1c1c;stroke-width:4.18513;stroke-linecap:square;stroke-linejoin:bevel;paint-order:stroke fill markers;fill-opacity:1"
       d="m 90.075978,185.94091 c 4.889904,0 7.760066,-2.25892 7.760066,-5.95293 0,-2.97646 -1.807139,-4.91648 -7.388008,-5.89977 -2.444951,-0.42522 -3.242218,-0.95672 -3.242218,-2.12604 0,-0.9833 0.850417,-1.64769 2.338649,-1.64769 1.727412,0 2.790435,1.03644 2.923312,2.76386 l 5.129085,-0.21261 c -0.398634,-3.9066 -2.949888,-6.64389 -7.999245,-6.64389 -4.783602,0 -7.600613,2.3918 -7.600613,5.89978 0,3.48139 2.072895,4.83674 7.228554,5.89977 2.870162,0.58466 3.401673,1.16933 3.401673,2.1792 0,1.11617 -0.903569,1.64768 -2.498103,1.64768 -2.019743,0 -3.029615,-1.03644 -3.29537,-2.89673 l -5.182236,0.23918 c 0.265756,4.14578 3.215644,6.75019 8.424454,6.75019 z m 17.730342,-0.10631 c 4.6773,0 7.76007,-2.97646 7.76007,-7.49431 0,-4.49126 -3.08277,-7.49431 -7.76007,-7.49431 -4.6773,0 -7.76006,3.00305 -7.76006,7.49431 0,4.51785 3.08276,7.49431 7.76006,7.49431 z m 0,-3.694 c -1.59453,0 -2.47152,-1.35535 -2.47152,-3.80031 0,-2.41837 0.87699,-3.80029 2.47152,-3.80029 1.59453,0 2.47152,1.38192 2.47152,3.80029 0,2.44496 -0.87699,3.80031 -2.47152,3.80031 z m 14.30213,3.3751 h 2.89673 v -3.64086 h -0.77069 c -0.85042,0 -1.32878,-0.34547 -1.32878,-1.35535 v -13.87244 h -5.15566 v 14.45711 c 0,3.13591 1.59454,4.41154 4.3584,4.41154 z m 4.44257,-15.78589 h 5.31511 v -3.61427 h -5.31511 z m 0.0797,15.78589 h 5.15566 v -14.35081 h -5.15566 z m 12.9733,0.3189 c 1.96659,0 3.53455,-0.87699 4.33182,-2.39179 l 0.0797,2.07289 h 5.02278 v -18.86865 h -5.15566 v 6.59074 c -0.74411,-1.48823 -2.15262,-2.39181 -4.27866,-2.39181 -3.45483,0 -5.7669,2.92332 -5.7669,7.49431 0,4.59758 2.20578,7.49431 5.7669,7.49431 z m 1.88686,-3.694 c -1.4085,0 -2.36523,-1.5148 -2.36523,-3.80031 0,-2.33865 0.90358,-3.80029 2.36523,-3.80029 1.54139,0 2.3918,1.14274 2.3918,3.80029 0,2.65756 -0.87699,3.80031 -2.3918,3.80031 z"
       id="text1"
       aria-label="Solid" /><path
       d="m 162.91115,185.89024 c 5.05394,0 7.97168,-2.60512 8.77927,-7.45065 l -5.31446,-0.18237 c -0.31261,2.26646 -1.40676,3.54297 -3.41271,3.54297 -2.37066,0 -3.75137,-2.16225 -3.75137,-5.5489 0,-3.28246 1.25046,-5.60102 3.80348,-5.60102 1.77148,0 2.99589,1.22441 3.3606,3.33455 l 5.2884,-0.18235 c -0.80759,-4.71528 -3.56902,-7.24225 -8.649,-7.24225 -5.57497,0 -9.03978,3.85559 -9.03978,9.69107 0,6.09597 3.77743,9.63895 8.93557,9.63895 z m 17.8494,-0.10421 c 4.58502,0 7.60696,-2.91773 7.60696,-7.34644 0,-4.40266 -3.02194,-7.34645 -7.60696,-7.34645 -4.58502,0 -7.60695,2.94379 -7.60695,7.34645 0,4.42871 3.02193,7.34644 7.60695,7.34644 z m 0,-3.62112 c -1.56307,0 -2.42276,-1.32861 -2.42276,-3.72532 0,-2.37067 0.85969,-3.72533 2.42276,-3.72533 1.56308,0 2.42277,1.35466 2.42277,3.72533 0,2.39671 -0.85969,3.72532 -2.42277,3.72532 z m 14.64514,3.62112 c 1.9278,0 3.46482,-0.85969 4.24636,-2.34461 l 0.0781,2.032 h 4.92368 v -18.49638 h -5.05394 v 6.46071 c -0.72943,-1.45887 -2.11015,-2.34461 -4.19425,-2.34461 -3.38666,0 -5.65311,2.86564 -5.65311,7.34645 0,4.50686 2.16226,7.34644 5.65311,7.34644 z m 1.84964,-3.62112 c -1.38072,0 -2.31856,-1.48492 -2.31856,-3.72532 0,-2.29251 0.88574,-3.72533 2.31856,-3.72533 1.51098,0 2.34461,1.1202 2.34461,3.72533 0,2.60512 -0.85969,3.72532 -2.34461,3.72532 z m 16.93763,3.62112 c 3.64718,0 6.38255,-1.56307 7.16409,-4.58501 l -5.00184,-0.26052 c -0.31261,0.9639 -1.0681,1.30257 -2.05805,1.30257 -1.40676,0 -2.37066,-0.80759 -2.42276,-2.50093 h 9.66501 v -0.88573 c 0,-4.74133 -2.81354,-7.76327 -7.34645,-7.76327 -4.53291,0 -7.5288,2.94379 -7.5288,7.34645 0,4.42871 2.99589,7.34644 7.5288,7.34644 z m -2.31856,-8.75321 c 0.10421,-1.53703 1.016,-2.50092 2.31856,-2.50092 1.35467,0 2.2404,0.85969 2.29251,2.50092 z"
       id="text2"
       style="font-weight:900;font-size:25.3367px;line-height:0.9;font-family:Geist;-inkscape-font-specification:'Geist Heavy';text-align:end;letter-spacing:-0.0211138px;word-spacing:-0.0263925px;text-anchor:end;fill:#1c1c1c;stroke-width:4.10255;stroke-linecap:square;stroke-linejoin:bevel;paint-order:stroke fill markers;fill-opacity:1"
       aria-label="Code" /></g></svg>
