<?xml version="1.0" encoding="UTF-8" standalone="no"?>
<!-- Created with Inkscape (http://www.inkscape.org/) -->

<svg
   width="139.88789mm"
   height="178.44566mm"
   viewBox="0 0 139.88789 178.44566"
   version="1.1"
   id="svg1"
   xml:space="preserve"
   xmlns="http://www.w3.org/2000/svg"
   xmlns:svg="http://www.w3.org/2000/svg"><defs
     id="defs1" /><g
     id="layer1"
     transform="translate(-81.651529,-7.4952428)"><rect
       style="display:none;fill:#ffffff;stroke-width:0.264952"
       id="rect2"
       width="297.38803"
       height="211.0994"
       x="-0.44858861"
       y="-1.0192971" /><g
       id="path1"
       transform="matrix(0.99877352,0,0,0.99877352,0.10014435,0.00935786)"><path
         style="display:inline;fill:#ffb300;stroke-linecap:round"
         d="M 148.05804,50.580398 V 10.144718 A 1.5275726,1.5275726 30 0 0 145.76668,8.8218012 L 83.94734,44.513213 a 2.6019853,2.6019853 104.52128 0 0 -0.930339,3.59185 l 14.976594,24.967226 a 4.6724449,4.6724449 29.521278 0 0 4.006855,2.268933 h 28.44542 a 2.6458333,2.6458333 45 0 1 2.64583,2.645833 V 100.3309 a 0.74438384,0.74438384 164.28648 0 1 -1.37957,0.38813 l -9.71392,-15.897084 a 4.7200328,4.7200328 29.299977 0 0 -4.0254,-2.258948 l -11.68967,-0.0055 a 1.4976471,1.4976471 119.53858 0 0 -1.28511,2.267868 l 41.76787,69.651504 a 0.72923671,0.72923671 164.45929 0 0 1.35464,-0.37672 l -0.20919,-91.078854 a 2.6516152,2.6516152 44.930935 0 0 -2.65191,-2.645524 l -35.0753,0.004 a 4.6446397,4.6446397 29.661606 0 1 -3.99546,-2.275425 l -3.09594,-5.220326 a 2.6212557,2.6212557 104.5971 0 1 0.93859,-3.604061 l 26.67242,-15.483575 a 1.5354343,1.5354343 29.73693 0 1 2.30626,1.317438 l 0.10584,15.526407 a 2.6532863,2.6532863 44.689994 0 0 2.66385,2.635178 l 9.63253,-0.03857 a 2.6564489,2.6564489 134.88529 0 0 2.64581,-2.656427 z"
         id="path3" /><path
         style="display:inline;fill:#1c1c1c;stroke-linecap:round"
         d="m 146.55273,7.6308594 c -0.43247,-0.012487 -0.87431,0.087017 -1.28515,0.3242187 L 83.447266,43.646484 c -1.732392,1.000197 -2.316115,3.25722 -1.28711,4.972657 l 14.976563,24.966796 c 1.024307,1.707606 2.872021,2.75586 4.863281,2.75586 h 28.44531 c 0.92082,0 1.64649,0.723718 1.64649,1.644531 v 21.433594 l -9.24024,-15.119141 c -1.03781,-1.698399 -2.88853,-2.737343 -4.8789,-2.738281 L 106.2832,81.5566 c -1.89162,-8.92e-4 -3.11541,2.160911 -2.14257,3.783203 l 41.76757,69.650387 c 0.41638,0.69435 1.27679,0.9638 1.94727,0.77735 0.67048,-0.18646 1.26748,-0.8603 1.26562,-1.66992 l -0.20898,-91.07813 c -0.005,-2.00185 -1.65049,-3.644759 -3.65234,-3.644531 l -35.07618,0.0039 c -1.28855,1.47e-4 -2.47748,-0.676853 -3.13476,-1.785156 L 103.95313,52.373 c -0.46598,-0.78572 -0.20996,-1.769894 0.58007,-2.228516 l 26.67188,-15.482422 c 0.39673,-0.230308 0.80156,2.57e-4 0.80469,0.458985 l 0.10546,15.52539 c 0.0137,2.001855 1.66609,3.636923 3.66797,3.628907 l 9.63282,-0.03906 c 2.00197,-0.008 3.64257,-1.654262 3.64257,-3.65625 V 10.144531 c 0,-1.4232101 -1.20844,-2.4762108 -2.50586,-2.5136716 z m 0.25782,2.0292969 c 0.14866,0.085833 0.24804,0.2572559 0.24804,0.4843747 v 40.435547 c 0,0.92394 -0.72645,1.652551 -1.65039,1.65625 l -9.63281,0.03906 c -0.923,0.0037 -1.65386,-0.71959 -1.66016,-1.642579 l -0.10546,-15.52539 c -0.0129,-1.899102 -2.16614,-3.129242 -3.8086,-2.175781 L 103.5293,48.416016 c -1.73053,1.004587 -2.31757,3.257437 -1.29688,4.978515 l 3.09571,5.220703 c 1.01599,1.71316 2.86369,2.763899 4.85546,2.763672 l 35.07618,-0.0039 c 0.92251,-1.05e-4 1.65022,0.725922 1.65234,1.648437 l 0.20703,90.099617 -41.26367,-68.812507 c -0.2247,-0.374698 -0.009,-0.754112 0.42773,-0.753906 l 11.68946,0.0059 c 1.29678,6.11e-4 2.49571,0.674694 3.17187,1.78125 l 9.71484,15.896483 c 0.42431,0.6944 1.28731,0.95906 1.96094,0.76954 0.67364,-0.18953 1.27149,-0.86592 1.27149,-1.67969 V 77.986328 c 0,-2.001693 -1.64479,-3.644531 -3.64649,-3.644531 H 102 c -1.29162,0 -2.484028,-0.675577 -3.148438,-1.783203 L 83.875,47.589844 c -0.466922,-0.778398 -0.213826,-1.757088 0.572266,-2.210938 L 146.26758,9.6875 c 0.19669,-0.1135595 0.3943,-0.1131767 0.54297,-0.027344 z"
         id="path6" /></g><g
       id="path2"><path
         style="fill:#ffb300"
         d="m 155.11556,10.00229 v 144.52057 a 0.72686884,0.72686884 15.361446 0 0 1.35172,0.37134 L 202.4192,77.572743 a 1.5053983,1.5053983 60.361446 0 0 -1.29411,-2.274486 h -11.75603 a 4.6534884,4.6534884 150.37874 0 0 -3.99892,2.273669 l -13.85481,23.280904 a 0.727728,0.727728 15.378744 0 1 -1.35309,-0.37216 V 35.253323 a 1.5259166,1.5259166 150.0269 0 1 2.29012,-1.320765 l 26.78146,15.495838 a 2.5859395,2.5859395 75.709701 0 1 0.91297,3.584248 l -3.1618,5.186866 a 1.4939485,1.4939485 60.816495 0 0 1.26865,2.271528 l 11.90833,0.05557 a 4.61453,4.61453 150.43872 0 0 3.99304,-2.264796 l 5.917,-10.001099 a 2.6280733,2.6280733 75.41711 0 0 -0.93893,-3.609015 L 157.40173,8.6883279 a 1.5206792,1.5206792 150.11208 0 0 -2.28617,1.3139621 z"
         id="path7" /><path
         style="fill:#1c1c1c"
         d="m 156.62109,7.4960937 c -1.29622,0.033901 -2.50586,1.083667 -2.50586,2.5058593 V 154.52344 c 0,0.80897 0.59906,1.47987 1.26954,1.66406 0.67047,0.18419 1.52811,-0.0878 1.9414,-0.7832 L 203.2793,78.083984 c 0.96721,-1.627486 -0.2611,-3.785156 -2.1543,-3.785156 h -11.75586 c -1.99161,0 -3.8389,1.050248 -4.85742,2.761719 l -13.34961,22.43164 V 35.253906 c 0,-0.453287 0.39672,-0.68209 0.78906,-0.455078 l 26.78125,15.496094 c 0.78144,0.452144 1.03046,1.426381 0.56055,2.197265 l -3.16211,5.1875 c -0.98419,1.614543 0.22634,3.782192 2.11719,3.791016 l 11.91015,0.05664 c 1.99231,0.0093 3.84295,-1.041157 4.85742,-2.75586 l 5.91797,-10.001953 c 1.01899,-1.722323 0.43228,-3.975057 -1.29687,-4.982422 L 157.9043,7.8242187 c -0.40962,-0.2386365 -0.85113,-0.3394254 -1.28321,-0.328125 z m -0.25976,2.0273438 c 0.14706,-0.084523 0.34258,-0.084034 0.53711,0.029297 l 61.73047,35.9628905 c 0.79108,0.460869 1.04821,1.448365 0.58203,2.236328 l -5.91602,10 c -0.6544,1.106098 -1.84373,1.781388 -3.1289,1.775391 l -11.90821,-0.05664 c -0.43473,-0.002 -0.6462,-0.378791 -0.41992,-0.75 L 201,53.533203 c 1.04093,-1.707627 0.46538,-3.969135 -1.26563,-4.970703 L 172.95312,33.066406 c -1.6422,-0.950187 -3.79101,0.290211 -3.79101,2.1875 v 65.226564 c 0,0.80921 0.5989,1.48156 1.26953,1.66601 0.67063,0.18446 1.52953,-0.0878 1.94336,-0.7832 l 13.85352,-23.279296 c 0.65947,-1.108144 1.85109,-1.785156 3.14062,-1.785156 H 201.125 c 0.44143,0 0.65911,0.384201 0.43359,0.763672 l -45.44336,76.4668 V 10.001953 c 0,-0.2251367 0.099,-0.3939923 0.2461,-0.4785155 z"
         id="path8" /></g><path
       style="font-weight:900;font-size:25.3367px;line-height:0.9;font-family:Geist;-inkscape-font-specification:'Geist Heavy';letter-spacing:-0.0211138px;word-spacing:-0.0263925px;fill:#ffb300;fill-opacity:1;stroke-width:4.18513;stroke-linecap:square;stroke-linejoin:bevel;paint-order:stroke fill markers"
       d="m 90.075978,185.94091 c 4.889904,0 7.760066,-2.25892 7.760066,-5.95293 0,-2.97646 -1.807139,-4.91648 -7.388008,-5.89977 -2.444951,-0.42522 -3.242218,-0.95672 -3.242218,-2.12604 0,-0.9833 0.850417,-1.64769 2.338649,-1.64769 1.727412,0 2.790435,1.03644 2.923312,2.76386 l 5.129085,-0.21261 c -0.398634,-3.9066 -2.949888,-6.64389 -7.999245,-6.64389 -4.783602,0 -7.600613,2.3918 -7.600613,5.89978 0,3.48139 2.072895,4.83674 7.228554,5.89977 2.870162,0.58466 3.401673,1.16933 3.401673,2.1792 0,1.11617 -0.903569,1.64768 -2.498103,1.64768 -2.019743,0 -3.029615,-1.03644 -3.29537,-2.89673 l -5.182236,0.23918 c 0.265756,4.14578 3.215644,6.75019 8.424454,6.75019 z m 17.730342,-0.10631 c 4.6773,0 7.76007,-2.97646 7.76007,-7.49431 0,-4.49126 -3.08277,-7.49431 -7.76007,-7.49431 -4.6773,0 -7.76006,3.00305 -7.76006,7.49431 0,4.51785 3.08276,7.49431 7.76006,7.49431 z m 0,-3.694 c -1.59453,0 -2.47152,-1.35535 -2.47152,-3.80031 0,-2.41837 0.87699,-3.80029 2.47152,-3.80029 1.59453,0 2.47152,1.38192 2.47152,3.80029 0,2.44496 -0.87699,3.80031 -2.47152,3.80031 z m 14.30213,3.3751 h 2.89673 v -3.64086 h -0.77069 c -0.85042,0 -1.32878,-0.34547 -1.32878,-1.35535 v -13.87244 h -5.15566 v 14.45711 c 0,3.13591 1.59454,4.41154 4.3584,4.41154 z m 4.44257,-15.78589 h 5.31511 v -3.61427 h -5.31511 z m 0.0797,15.78589 h 5.15566 v -14.35081 h -5.15566 z m 12.9733,0.3189 c 1.96659,0 3.53455,-0.87699 4.33182,-2.39179 l 0.0797,2.07289 h 5.02278 v -18.86865 h -5.15566 v 6.59074 c -0.74411,-1.48823 -2.15262,-2.39181 -4.27866,-2.39181 -3.45483,0 -5.7669,2.92332 -5.7669,7.49431 0,4.59758 2.20578,7.49431 5.7669,7.49431 z m 1.88686,-3.694 c -1.4085,0 -2.36523,-1.5148 -2.36523,-3.80031 0,-2.33865 0.90358,-3.80029 2.36523,-3.80029 1.54139,0 2.3918,1.14274 2.3918,3.80029 0,2.65756 -0.87699,3.80031 -2.3918,3.80031 z"
       id="text1"
       aria-label="Solid" /><path
       d="m 162.91115,185.89024 c 5.05394,0 7.97168,-2.60512 8.77927,-7.45065 l -5.31446,-0.18237 c -0.31261,2.26646 -1.40676,3.54297 -3.41271,3.54297 -2.37066,0 -3.75137,-2.16225 -3.75137,-5.5489 0,-3.28246 1.25046,-5.60102 3.80348,-5.60102 1.77148,0 2.99589,1.22441 3.3606,3.33455 l 5.2884,-0.18235 c -0.80759,-4.71528 -3.56902,-7.24225 -8.649,-7.24225 -5.57497,0 -9.03978,3.85559 -9.03978,9.69107 0,6.09597 3.77743,9.63895 8.93557,9.63895 z m 17.8494,-0.10421 c 4.58502,0 7.60696,-2.91773 7.60696,-7.34644 0,-4.40266 -3.02194,-7.34645 -7.60696,-7.34645 -4.58502,0 -7.60695,2.94379 -7.60695,7.34645 0,4.42871 3.02193,7.34644 7.60695,7.34644 z m 0,-3.62112 c -1.56307,0 -2.42276,-1.32861 -2.42276,-3.72532 0,-2.37067 0.85969,-3.72533 2.42276,-3.72533 1.56308,0 2.42277,1.35466 2.42277,3.72533 0,2.39671 -0.85969,3.72532 -2.42277,3.72532 z m 14.64514,3.62112 c 1.9278,0 3.46482,-0.85969 4.24636,-2.34461 l 0.0781,2.032 h 4.92368 v -18.49638 h -5.05394 v 6.46071 c -0.72943,-1.45887 -2.11015,-2.34461 -4.19425,-2.34461 -3.38666,0 -5.65311,2.86564 -5.65311,7.34645 0,4.50686 2.16226,7.34644 5.65311,7.34644 z m 1.84964,-3.62112 c -1.38072,0 -2.31856,-1.48492 -2.31856,-3.72532 0,-2.29251 0.88574,-3.72533 2.31856,-3.72533 1.51098,0 2.34461,1.1202 2.34461,3.72533 0,2.60512 -0.85969,3.72532 -2.34461,3.72532 z m 16.93763,3.62112 c 3.64718,0 6.38255,-1.56307 7.16409,-4.58501 l -5.00184,-0.26052 c -0.31261,0.9639 -1.0681,1.30257 -2.05805,1.30257 -1.40676,0 -2.37066,-0.80759 -2.42276,-2.50093 h 9.66501 v -0.88573 c 0,-4.74133 -2.81354,-7.76327 -7.34645,-7.76327 -4.53291,0 -7.5288,2.94379 -7.5288,7.34645 0,4.42871 2.99589,7.34644 7.5288,7.34644 z m -2.31856,-8.75321 c 0.10421,-1.53703 1.016,-2.50092 2.31856,-2.50092 1.35467,0 2.2404,0.85969 2.29251,2.50092 z"
       id="text2"
       style="font-weight:900;font-size:25.3367px;line-height:0.9;font-family:Geist;-inkscape-font-specification:'Geist Heavy';text-align:end;letter-spacing:-0.0211138px;word-spacing:-0.0263925px;text-anchor:end;fill:#ffffff;stroke-width:4.10255;stroke-linecap:square;stroke-linejoin:bevel;paint-order:stroke fill markers"
       aria-label="Code" /></g></svg>
