<?xml version="1.0" encoding="UTF-8" standalone="no"?>
<!-- Uploaded to: SVG Repo, www.svgrepo.com, Generator: SVG Repo Mixer Tools -->

<svg
   width="800px"
   height="800px"
   viewBox="0 0 48 48"
   version="1.1"
   id="svg2"
   sodipodi:docname="certificate-ssl-solid-svgrepo-com.svg"
   inkscape:export-filename="certificate-ssl-solid-svgrepo-com.svg"
   inkscape:export-xdpi="96"
   inkscape:export-ydpi="96"
   xmlns:inkscape="http://www.inkscape.org/namespaces/inkscape"
   xmlns:sodipodi="http://sodipodi.sourceforge.net/DTD/sodipodi-0.dtd"
   xmlns="http://www.w3.org/2000/svg"
   xmlns:svg="http://www.w3.org/2000/svg">
  <defs
     id="defs2" />
  <sodipodi:namedview
     id="namedview2"
     pagecolor="#505050"
     bordercolor="#eeeeee"
     borderopacity="1"
     inkscape:showpageshadow="0"
     inkscape:pageopacity="0"
     inkscape:pagecheckerboard="0"
     inkscape:deskcolor="#505050" />
  <title
     id="title1">certificate-ssl-solid</title>
  <g
     id="Layer_2"
     data-name="Layer 2">
    <g
       id="invisible_box"
       data-name="invisible box">
      <rect
         width="48"
         height="48"
         fill="none"
         id="rect1" />
      <rect
         width="48"
         height="48"
         fill="none"
         id="rect2" />
    </g>
    <g
       id="icons_Q2"
       data-name="icons Q2">
      <path
         d="M46,24a12.9,12.9,0,0,0-4-9.4V7a2,2,0,0,0-2-2H4A2,2,0,0,0,2,7V41a2,2,0,0,0,2,2H26v1.6c0,2,2,3.1,3.3,1.8L33,43l3.7,3.4c1.3,1.3,3.3.2,3.3-1.8V34.9A12.9,12.9,0,0,0,46,24ZM33,15a9,9,0,1,1-9,9A9,9,0,0,1,33,15ZM12,14H24.7L23,15.7A11.4,11.4,0,0,0,21.5,18H12a2,2,0,0,1,0-4Zm0,8h8.2a6.5,6.5,0,0,0-.2,2,6.8,6.8,0,0,0,.2,2H12a2,2,0,0,1,0-4Zm0,12a2,2,0,0,1,0-4h9.5A11.4,11.4,0,0,0,23,32.3,13.7,13.7,0,0,0,24.7,34Z"
         id="path2" />
      <circle
         cx="33"
         cy="24"
         r="5"
         id="circle2" />
    </g>
  </g>
  <path
     style="fill:#ffb300;stroke-width:0;stroke-linecap:round;stroke-linejoin:round"
     d="m 459.96232,781.37408 c -11.90687,-3.212 -21.37592,-13.41841 -24.77342,-26.7025 -1.14464,-4.4755 -1.32469,-7.44352 -1.32469,-21.83668 V 716.1777 H 247.90042 c -168.273336,0 -186.310269,-0.10177 -189.606035,-1.06982 -12.448527,-3.65647 -21.827168,-13.81523 -24.044123,-26.04411 -0.507496,-2.79939 -0.717891,-88.5805 -0.7097,-289.35457 0.01262,-309.366858 -0.218707,-290.09439 3.571829,-297.57465 3.179305,-6.27406 9.948352,-12.867419 15.820353,-15.409744 7.012741,-3.036216 -9.247942,-2.886112 313.565096,-2.89455 333.99457,-0.0087 307.90997,-0.327912 315.76546,3.863825 4.47825,2.389625 11.1847,9.06912 13.30029,13.246829 4.01789,7.93423 3.84965,4.60061 3.84965,76.28281 v 65.66429 l 6.13298,6.46882 c 33.53663,35.37322 53.38267,76.99294 59.22816,124.20913 5.07219,40.97023 -2.07168,83.1833 -20.38692,120.4657 -16.6402,33.87269 -40.13237,61.17504 -71.38891,82.96727 l -6.40425,4.46508 -0.19934,84.62424 c -0.18512,78.58351 -0.28387,84.90795 -1.38326,88.59876 -5.42806,18.2227 -20.98094,29.95312 -36.17683,27.2855 -8.61043,-1.51149 -10.07836,-2.63424 -43.17159,-33.01842 -16.91782,-15.53293 -31.84774,-29.28072 -33.1776,-30.55066 l -2.41792,-2.30897 -32.33527,29.71471 c -17.78439,16.34312 -33.5491,30.53396 -35.03268,31.53527 -6.66399,4.49771 -15.3174,6.03125 -22.73749,4.02964 z M 411.73416,566.80637 c -5.2e-4,-0.27661 -3.2994,-3.4625 -7.33083,-7.07974 C 388.03305,545.0382 372.2301,525.11956 362.11232,506.4214 l -3.68818,-6.81594 -80.80469,-0.002 c -88.73156,-0.003 -84.95239,-0.16735 -93.34511,4.06928 -12.27395,6.19587 -19.73758,21.17472 -17.42931,34.97909 1.62745,9.73272 8.09375,19.16336 16.31206,23.78997 4.50354,2.53533 7.85314,3.62327 12.98708,4.21816 5.48167,0.63519 215.59119,0.77825 215.58999,0.14679 z m 159.19147,-18.02238 c 55.96324,-7.6655 103.53756,-47.18498 121.39035,-100.83764 5.53502,-16.6343 7.76784,-30.4162 7.76784,-47.94635 0,-39.27405 -14.48137,-75.62865 -41.24057,-103.53198 -24.61679,-25.66931 -54.89733,-40.91351 -90.86337,-45.74351 -8.77857,-1.17891 -29.39585,-0.98315 -38.55825,0.36611 -16.05346,2.36403 -30.15389,6.63153 -44.25818,13.39474 -16.2103,7.77307 -28.38738,16.39768 -41.26691,29.22797 -40.47485,40.32005 -54.44664,99.42536 -36.36958,153.85547 12.23825,36.84945 38.22252,67.41089 72.67967,85.48231 27.85316,14.60789 59.21922,20.04753 90.719,15.73288 z M 336.63034,433.26026 c 0,-0.33216 -0.64179,-4.1796 -1.42622,-8.54987 -1.95705,-10.90334 -2.14609,-38.10739 -0.33249,-47.84534 0.65255,-3.50378 1.35638,-7.36162 1.56407,-8.57299 l 0.37762,-2.20248 -71.67573,0.19075 -71.67573,0.19075 -4.61308,1.79232 c -11.47897,4.45994 -18.83186,12.7176 -21.53574,24.18571 -4.45444,18.89284 8.30818,37.80489 27.48998,40.73552 4.83477,0.73866 141.82732,0.81172 141.82732,0.0756 z m 23.80014,-136.69857 c 3.53077,-6.78273 10.37708,-17.72842 15.6229,-24.97745 3.41032,-4.71262 10.15273,-12.15545 20.38854,-22.50657 8.41126,-8.50603 15.2932,-15.68153 15.2932,-15.94556 0,-0.26403 -48.9606,-0.39277 -108.80134,-0.28608 -103.41557,0.18437 -108.98391,0.25481 -112.48952,1.42315 -16.11601,5.37105 -26.01266,20.81123 -23.68693,36.95493 1.97581,13.71476 12.12642,24.89877 25.55224,28.15363 3.15387,0.7646 18.23891,0.93927 84.97459,0.98391 l 81.13998,0.0543 z"
     id="path3"
     transform="scale(0.06)" />
  <path
     style="fill:#ffb300;stroke-width:0;stroke-linecap:round;stroke-linejoin:round"
     d="m 535.52193,481.73906 c -2.91473,-0.52637 -8.0112,-1.86552 -11.32546,-2.97589 -52.26225,-17.50947 -73.48645,-79.03777 -43.04006,-124.77181 25.32796,-38.04557 76.54762,-48.27002 114.90962,-22.93822 6.92384,4.57206 17.95584,15.45958 22.30184,22.00977 9.96488,15.01885 14.30165,29.25184 14.30165,46.93709 0,10.80948 -0.98195,17.15404 -4.09821,26.4792 -9.53623,28.53644 -34.96912,50.2259 -64.87038,55.3222 -7.35965,1.25437 -21.05549,1.22406 -28.179,-0.0623 z"
     id="path4"
     transform="scale(0.06)" />
</svg>
