<?xml version="1.0" encoding="UTF-8" standalone="no"?>
<!-- Uploaded to: SVG Repo, www.svgrepo.com, Generator: SVG Repo Mixer Tools -->

<svg
   fill="#000000"
   version="1.1"
   id="Capa_1"
   width="734.65802"
   height="800.00189"
   viewBox="0 0 387.983 422.492"
   xml:space="preserve"
   xmlns="http://www.w3.org/2000/svg"
   xmlns:svg="http://www.w3.org/2000/svg"><defs
   id="defs5" />
<g
   id="g5"
   transform="translate(-17.254)">
	<g
   id="g4">
		<g
   id="g3">
			<path
   d="m 338.594,289.207 c -36.805,0 -66.641,29.836 -66.641,66.641 0,36.808 29.836,66.644 66.641,66.644 36.807,0 66.643,-29.836 66.643,-66.644 -0.002,-36.805 -29.838,-66.641 -66.643,-66.641 z m 43.295,98.914 -10.424,10.423 c -0.855,0.858 -2.252,0.858 -3.108,0 l -20.532,-20.533 -0.779,0.777 c -0.858,0.858 -2.25,0.858 -3.108,0 l -4.979,-4.979 c -0.856,-0.857 -0.856,-2.251 0,-3.109 l 5.104,-5.104 -4.543,-4.544 -11.429,11.432 c 2.123,6.051 0.771,13.062 -4.059,17.892 -3.271,3.27 -7.615,5.059 -12.24,5.04 -0.396,-0.003 -0.771,-0.163 -1.037,-0.435 -0.135,-0.137 -0.246,-0.298 -0.321,-0.48 -0.228,-0.551 -0.101,-1.187 0.321,-1.606 l 4.799,-4.802 -2.866,-10.707 -10.706,-2.868 -4.803,4.802 c -0.422,0.422 -1.057,0.549 -1.605,0.319 -0.551,-0.227 -0.912,-0.764 -0.914,-1.357 -0.021,-4.624 1.771,-8.972 5.037,-12.239 4.832,-4.829 11.842,-6.183 17.895,-4.058 l 11.429,-11.431 -15.086,-15.084 -10.685,-6.877 -4.766,-8.412 5.041,-5.039 8.409,4.767 6.879,10.684 15.084,15.084 10.229,-10.229 c -2.123,-6.052 -0.771,-13.063 4.06,-17.894 3.271,-3.269 7.614,-5.058 12.239,-5.039 0.597,0.004 1.132,0.362 1.359,0.914 0.227,0.554 0.1,1.188 -0.322,1.607 l -4.801,4.801 2.869,10.708 10.707,2.868 4.803,-4.801 c 0.42,-0.423 1.055,-0.55 1.604,-0.321 0.551,0.228 0.91,0.763 0.914,1.357 0.021,4.625 -1.771,8.972 -5.036,12.24 -4.832,4.829 -11.843,6.184 -17.896,4.06 l -10.229,10.229 4.541,4.544 5.104,-5.104 c 0.859,-0.859 2.252,-0.859 3.111,0 l 4.977,4.977 c 0.859,0.859 0.859,2.253 0,3.111 l -0.776,0.776 20.532,20.532 c 0.863,0.856 0.863,2.249 0.003,3.108 z"
   id="path1" />
			<path
   d="M 303.637,280.498 262.66,264.16 242.779,247.412 c -5.25,-4.438 -13.004,-4.109 -17.873,0.731 l -27.639,27.48 -27.717,-27.492 c -4.873,-4.832 -12.617,-5.145 -17.863,-0.722 l -19.879,16.748 -84.894,33.854 C 19.578,308.897 19.6,405.704 17.254,414.59 h 261.183 c -15.414,-14.857 -25.032,-35.692 -25.032,-58.745 -0.002,-33.889 20.762,-63.016 50.232,-75.347 z"
   id="path2" />
			<path
   d="m 100.042,160.169 15.943,-0.04 c 9.848,51.453 44.795,80.728 81.27,80.728 36.475,0 57.666,-17.339 71.719,-49.293 -10.729,8.416 -26.324,16.114 -48.135,17.704 -2.004,2.985 -5.41,4.951 -9.277,4.951 h -10.188 c -6.168,0 -11.166,-4.999 -11.166,-11.167 0,-6.168 4.998,-11.167 11.166,-11.167 h 10.188 c 3.613,0 6.814,1.723 8.855,4.383 35.068,-2.815 51.559,-24.083 58.135,-36.091 l 15.916,-0.006 c 9.746,0 17.646,-7.903 17.646,-17.646 v -39.996 c 0,-6.246 -3.254,-11.723 -8.152,-14.859 C 298.067,38.434 252.464,0 197.255,0 142.046,0 96.444,38.434 90.55,87.668 c -4.898,3.137 -8.152,8.613 -8.152,14.859 v 39.996 c -0.002,9.742 7.897,17.646 17.644,17.646 z m 97.212,-140.17 c 43.453,0 79.592,28.656 86.254,66.041 -2.082,0.791 -3.971,1.959 -5.59,3.429 -10.406,-32.855 -40.471,-52.385 -80.664,-52.385 -40.193,0 -70.275,19.519 -80.695,52.357 -1.611,-1.456 -3.49,-2.616 -5.559,-3.401 6.663,-37.385 42.801,-66.041 86.254,-66.041 z"
   id="path3" />
		</g>
	</g>
</g>
<path
   style="fill:#ffb300;stroke-width:0;stroke-linecap:round;stroke-linejoin:round"
   d="m 174.40441,240.43678 c -28.27259,-2.47283 -53.51723,-22.32139 -66.85501,-52.56463 -3.52045,-7.98257 -6.57729,-17.70031 -8.494242,-27.0033 l -0.16419,-0.79682 -8.758254,-0.005 c -9.649573,-0.006 -11.6732,-0.28211 -15.224981,-2.07906 -4.010596,-2.02908 -6.977175,-5.45301 -8.62658,-9.95652 l -0.843075,-2.30193 V 122.3559 98.982549 l 0.79837,-2.096263 c 1.141661,-2.997648 2.702184,-5.266789 5.080671,-7.387757 l 2.072942,-1.848514 0.722961,-4.2497 C 78.55317,57.300205 94.313114,33.950543 117.89748,18.530012 133.13162,8.5692339 150.27679,2.5685428 168.84744,0.69786916 c 5.06775,-0.5104886 17.35356,-0.50593986 22.31093,0.008261 9.03285,0.93692834 16.6031,2.54564494 24.96698,5.30560964 36.84943,12.1597942 63.70895,41.9591332 69.76872,77.4050102 l 0.71333,4.172531 2.07835,1.880798 c 2.39284,2.165393 3.94773,4.433737 5.08361,7.416207 l 0.79837,2.096263 v 23.373351 23.37334 l -0.84307,2.30193 c -1.72796,4.718 -4.71234,8.05232 -9.0729,10.13675 -3.5281,1.68652 -5.22999,1.90406 -14.89576,1.90406 h -8.60161 l -1.64148,2.70375 c -11.13697,18.3441 -29.56569,29.93529 -52.2411,32.85832 l -3.71848,0.47933 -1.37407,-1.23963 c -0.75574,-0.68181 -2.26969,-1.6596 -3.36435,-2.17286 -1.95685,-0.91756 -2.11814,-0.93323 -9.60432,-0.93323 -7.46113,0 -7.65349,0.0185 -9.57799,0.92116 -2.59741,1.21829 -4.22154,2.69288 -5.49201,4.98633 -0.94976,1.7145 -1.04345,2.1857 -1.04345,5.24797 0,2.80049 0.13726,3.64301 0.81896,5.027 1.04527,2.12211 3.1874,4.26424 5.30951,5.30951 1.59462,0.78545 2.00316,0.81896 9.98498,0.81896 8.01878,0 8.38394,-0.0303 10.01154,-0.83182 0.92907,-0.4575 2.36334,-1.50393 3.18728,-2.32539 l 1.49805,-1.49357 4.0467,-0.43663 c 14.10757,-1.52218 27.97358,-6.40303 38.80445,-13.6592 2.14256,-1.43541 3.96251,-2.54516 4.04434,-2.46611 0.2709,0.26171 -4.53495,9.46013 -6.98019,13.36012 -4.05527,6.46786 -6.40019,9.41725 -11.75094,14.78004 -3.93774,3.94663 -6.10086,5.79087 -9.21777,7.85898 -11.38932,7.55693 -23.62341,11.17078 -39.66387,11.71636 -2.82428,0.0961 -6.77788,0.031 -8.78577,-0.14464 z M 99.950174,88.092738 c 0.865556,-2.897977 4.125356,-10.035382 6.146706,-13.458367 12.26941,-20.777156 33.85621,-33.632845 61.67076,-36.727073 8.84992,-0.98451 19.81621,-0.776285 28.70285,0.545003 24.04272,3.574735 43.37393,15.028886 55.23883,32.730171 2.49027,3.715248 6.54622,11.822323 7.80364,15.597993 0.51604,1.549554 0.98376,2.817376 1.03936,2.817376 0.0556,0 1.17053,-0.717137 2.47762,-1.593636 1.30709,-0.876506 2.60311,-1.593642 2.88003,-1.593642 0.67024,0 0.64608,-0.296641 -0.36063,-4.426771 C 260.91231,62.95982 249.35156,46.905974 231.88466,35.235271 195.96381,11.234367 145.26703,15.818124 115.11626,45.792903 c -8.72453,8.673607 -15.11418,18.788448 -18.844398,29.830789 -0.904094,2.676327 -2.678081,9.478813 -2.679063,10.273054 -2.54e-4,0.204343 0.517472,0.564717 1.150501,0.800826 0.633029,0.236109 1.868097,0.974597 2.744596,1.641076 0.8765,0.66648 1.687936,1.222452 1.803192,1.235486 0.11525,0.01304 0.411839,-0.653589 0.659086,-1.481396 z"
   id="path5" /><path
   style="fill:#ffb300;stroke-width:0;stroke-linecap:round;stroke-linejoin:round"
   d="m 0.48820714,412.4865 c 0.15512232,-1.02258 0.61149816,-6.48079 1.01416846,-12.12935 2.5236069,-35.40053 5.0636471,-54.30767 9.5628604,-71.18248 2.368169,-8.88209 5.985081,-17.70342 9.240782,-22.53747 1.968411,-2.92269 5.765203,-6.64688 7.787242,-7.63834 0.877233,-0.43013 20.729092,-8.41324 44.115247,-17.74024 l 42.520273,-16.95818 10.41467,-8.78878 c 12.13767,-10.2428 13.28256,-10.94452 17.84314,-10.93633 2.3502,0.004 3.23975,0.18078 5.14357,1.02087 2.1226,0.93664 3.45387,2.16164 17.08923,15.72497 l 14.78732,14.7092 14.78351,-14.71708 c 15.80184,-15.73082 16.01653,-15.90723 20.27165,-16.65675 2.47364,-0.43573 5.27794,0.0187 7.68482,1.24538 0.93555,0.4768 6.40842,4.82743 12.16195,9.66807 l 10.46096,8.80118 20.07732,7.96597 c 11.04252,4.38129 20.07811,8.04566 20.07909,8.14305 0.001,0.0974 -1.27709,0.76547 -2.84013,1.48463 -7.13989,3.28507 -15.37739,9.03442 -21.71804,15.15809 -13.09307,12.64499 -21.31409,28.67469 -24.18268,47.15243 -0.87034,5.60625 -0.86215,17.68133 0.0159,23.3237 2.56829,16.50531 9.29954,30.65952 20.63575,43.39207 l 2.98674,3.35463 H 130.31482 0.2061664 Z"
   id="path6" /><path
   style="fill:#ffb300;stroke-width:0;stroke-linecap:round;stroke-linejoin:round"
   d="m 317.05572,422.0916 c -13.01129,-0.71029 -26.81937,-6.04396 -37.15986,-14.3538 -1.08503,-0.87195 -3.54032,-3.12836 -5.4562,-5.01422 -13.59007,-13.37722 -20.6895,-32.27766 -19.3294,-51.45968 1.02413,-14.44372 6.23668,-27.19637 15.7518,-38.53716 13.37898,-15.94602 35.08048,-24.94976 55.66175,-23.09352 8.97271,0.80926 15.96052,2.70739 23.64416,6.42259 16.2797,7.87157 28.45207,21.70347 34.14149,38.79617 6.57238,19.74542 3.71743,40.66259 -7.92565,58.06819 -10.36281,15.49168 -27.00042,25.965 -45.51656,28.65251 -4.5642,0.66247 -8.48411,0.80975 -13.81153,0.51892 z m 36.58842,-23.01208 c 1.10674,-0.56123 10.81616,-10.22248 11.42204,-11.36535 0.27882,-0.52597 0.50695,-1.15739 0.50695,-1.40316 0,-0.24576 -4.77166,-5.23379 -10.6037,-11.08451 l -10.60371,-10.63766 0.68774,-0.83605 c 1.29153,-1.57005 0.93684,-2.4132 -2.43254,-5.78257 -4.07524,-4.07525 -4.22205,-4.08046 -8.03704,-0.28529 l -2.84978,2.83498 -2.10925,-2.13149 -2.10926,-2.13149 4.99272,-4.99272 4.99272,-4.99271 1.83559,0.39366 c 5.72922,1.2287 11.87782,-0.57691 15.99929,-4.69838 2.92109,-2.9211 4.30667,-5.77055 4.92332,-10.12481 0.3556,-2.51102 -0.11834,-3.9068 -1.32658,-3.9068 -0.33206,0 -1.80544,1.19466 -3.27419,2.65478 l -2.67044,2.65478 -5.08804,-1.39252 c -2.79843,-0.76589 -5.2128,-1.52228 -5.36528,-1.68089 -0.15248,-0.1586 -0.86002,-2.49497 -1.57234,-5.19193 l -1.2951,-4.90357 2.53047,-2.60968 c 2.05162,-2.11585 2.50903,-2.78953 2.41721,-3.56011 -0.17859,-1.49894 -0.94262,-1.75322 -3.96121,-1.31834 -6.54645,0.94311 -12.15648,5.67885 -14.09122,11.89517 -0.7844,2.52027 -0.92435,7.15072 -0.2876,9.51544 l 0.40106,1.4894 -4.98639,4.98638 -4.98638,4.98639 -7.45412,-7.43462 c -7.06039,-7.04191 -7.63564,-7.71832 -10.89066,-12.80579 l -3.43654,-5.37117 -4.2982,-2.46284 -4.29819,-2.46284 -2.64414,2.64414 -2.64414,2.64414 2.42226,4.30452 2.42226,4.30452 5.40542,3.44059 c 5.1457,3.27526 5.76261,3.7985 12.83875,10.88936 l 7.43332,7.44877 -5.59996,5.60817 -5.59995,5.60817 -1.82201,-0.47262 c -8.40724,-2.18081 -17.5691,2.96739 -20.40961,11.46849 -0.97986,2.93254 -1.00501,6.30528 -0.0508,6.81594 1.14252,0.61146 1.422,0.4626 4.22512,-2.25046 l 2.70392,-2.61706 5.11368,1.3857 c 2.81252,0.76213 5.13972,1.42187 5.17157,1.4661 0.16513,0.22931 2.64092,9.83026 2.64092,10.24129 0,0.2653 -1.11554,1.58935 -2.47899,2.94235 -2.45557,2.43675 -2.94188,3.46808 -2.05402,4.35594 1.03536,1.03536 6.03646,0.1128 9.55516,-1.76265 5.5419,-2.9538 8.84233,-8.5181 8.8902,-14.98825 0.013,-1.753 -0.14549,-3.76517 -0.35212,-4.4715 l -0.3757,-1.28423 5.62214,-5.6139 5.62213,-5.6139 2.13019,2.10796 2.13018,2.10796 -2.83498,2.84979 c -3.74563,3.76519 -3.74403,3.93798 0.0726,7.84819 3.20473,3.28328 4.12114,3.73343 5.7257,2.81254 l 1.05908,-0.60783 10.11629,10.07262 c 5.56396,5.53994 10.43502,10.24577 10.82458,10.4574 0.90277,0.49045 1.11728,0.49192 2.05959,0.0141 z"
   id="path7" /></svg>
