<svg width="269" height="18" viewBox="0 0 269 18" fill="none" xmlns="http://www.w3.org/2000/svg">
<g clip-path="url(#clip0_12_21)">
<path d="M260.015 3.18263C260.054 3.1888 260.092 3.19549 260.13 3.20269V3.20322C260.092 3.19602 260.054 3.1888 260.015 3.18263ZM153.878 12.1334H153.877C153.935 12.1365 153.994 12.1401 154.052 12.1437C153.993 12.1411 153.935 12.1376 153.878 12.1334ZM127.967 12.943C127.967 12.942 127.966 12.942 127.966 12.9409C128.058 12.9584 128.152 12.9754 128.246 12.9929C128.15 12.9785 128.057 12.962 127.967 12.943ZM127.941 12.9373C127.941 12.9373 127.941 12.9368 127.941 12.9363C127.941 12.9368 127.941 12.9368 127.942 12.9368C127.942 12.9368 127.942 12.9373 127.942 12.9378C127.942 12.9378 127.942 12.9373 127.941 12.9373ZM103.882 12.8437C103.839 12.8298 103.799 12.8149 103.758 12.799C103.802 12.8139 103.846 12.8283 103.89 12.8427C103.886 12.8437 103.884 12.8437 103.882 12.8437ZM58.3514 16.1447C58.368 16.1452 58.3834 16.1462 58.3989 16.1472C58.3834 16.1462 58.368 16.1457 58.3514 16.1447ZM13.544 15.8284C13.5452 15.8278 13.5476 15.8273 13.55 15.8268C13.5737 15.8284 13.5963 15.8299 13.62 15.8314C13.5939 15.8304 13.569 15.8294 13.544 15.8284ZM13.4063 15.8196C13.3921 15.8206 13.379 15.8217 13.3648 15.8222C13.3778 15.8212 13.3909 15.8201 13.4052 15.8196C13.3885 15.8186 13.3731 15.8171 13.3565 15.816C13.3565 15.8155 13.3565 15.8155 13.3565 15.8155C13.3766 15.8165 13.3944 15.8181 13.4146 15.8191C13.4206 15.8186 13.4265 15.8186 13.4336 15.8181C13.4277 15.8186 13.4218 15.8186 13.4158 15.8191C13.4597 15.8217 13.5025 15.8243 13.5452 15.8268C13.5428 15.8273 13.5405 15.8273 13.5393 15.8279C13.4942 15.8258 13.4503 15.8232 13.4063 15.8196ZM260.734 0.883606C259.608 0.883606 258.662 1.16289 257.884 1.48897C257.021 1.8526 256.284 2.26714 255.522 2.66986C255.02 2.93474 254.516 3.1991 254.015 3.465C253.291 3.84715 252.576 4.23136 251.863 4.61658C250.918 5.12782 249.976 5.64009 249.042 6.15441C247.918 6.77469 246.823 7.40114 245.607 7.98901C244.673 8.4411 243.749 8.89576 242.704 9.29951C242.596 8.32898 242.599 7.35485 242.567 6.38483C242.548 5.83707 242.525 5.28932 242.504 4.74105C242.492 4.42114 242.472 4.10172 242.453 3.78284C242.434 3.4223 242.398 3.06589 242.295 2.70843C242.211 2.42144 242.132 2.15039 241.957 1.87265C241.846 1.69624 241.646 1.52239 241.494 1.35112C241.308 1.06464 240.971 0.815706 240.488 0.604319C240 0.394987 239.427 0.249435 238.764 0.169201C237.414 0.00821686 235.955 0.179485 234.963 0.604319C234.458 0.820335 233.957 1.04097 233.574 1.30328C233.17 1.57998 232.88 1.87676 232.554 2.17095C232.322 2.37823 232.06 2.57984 231.813 2.78402C231.364 3.15691 230.912 3.52878 230.454 3.89909C228.538 5.44464 226.671 7.01334 224.288 8.43648C224.032 8.57021 223.768 8.70031 223.495 8.82735C223.409 8.04455 223.364 7.26176 223.333 6.4769C223.31 5.90805 223.3 5.33921 223.285 4.77088C223.277 4.41137 223.263 4.05081 223.256 3.6913C223.244 3.18006 223.187 2.68168 223.02 2.17404C222.895 1.78984 222.613 1.43959 222.341 1.07133C222.068 0.702559 221.568 0.393446 220.786 0.194916C220.26 0.0617065 219.694 -1.52588e-05 219.129 -1.52588e-05C218.529 -1.52588e-05 217.93 0.0689068 217.37 0.194916C216.409 0.411963 215.573 0.681461 214.983 1.08675C214.621 1.33568 214.379 1.60571 214.066 1.86545C213.636 2.22239 213.191 2.5747 212.753 2.92958C212.007 3.53391 211.253 4.1362 210.504 4.73899C209.842 5.27183 209.154 5.79952 208.477 6.32928C207.161 7.3569 205.857 8.39584 204.245 9.3422C203.948 9.50936 203.647 9.67601 203.335 9.83699C203.068 8.90246 202.852 7.96688 202.73 7.02618C202.623 6.1904 202.524 5.35361 202.421 4.51731C202.378 4.16088 202.289 3.806 202.227 3.45009C202.197 3.28756 202.204 3.12245 202.196 2.95992C202.181 2.72127 202.11 2.48469 202.026 2.25016C201.913 1.93694 201.652 1.63503 201.261 1.36604C200.876 1.10013 200.408 0.953045 199.834 0.773031C199.497 0.66708 198.872 0.601757 198.449 0.538496C197.844 0.467518 197.238 0.467518 196.634 0.538496C195.741 0.645475 195.097 0.890291 194.595 1.21792C193.939 1.64584 193.316 2.07323 192.756 2.52686C192.466 2.76139 192.182 2.99798 191.887 3.232C191.369 3.6378 190.855 4.04463 190.34 4.45146C188.672 5.76454 187.001 7.09254 184.949 8.30275C184.277 8.65815 183.551 8.99709 182.752 9.30054C182.729 9.30671 182.706 9.31392 182.682 9.32061C181.805 8.21223 181.19 7.06785 180.58 5.92656C180.464 5.70848 180.348 5.4899 180.231 5.27182C180.062 4.95345 179.904 4.63355 179.733 4.3157C179.538 3.95156 179.245 3.60438 178.971 3.25104C178.728 2.93884 178.451 2.6215 178.005 2.35405C177.812 2.21467 177.575 2.09433 177.288 1.99352C176.898 1.8418 176.194 1.6412 175.66 1.60057C175.277 1.5692 174.889 1.544 174.5 1.52651C173.995 1.5296 173.502 1.55892 173.009 1.60675C172.408 1.66487 171.858 1.84333 171.396 2.00586C171.098 2.11026 170.868 2.21982 170.627 2.3484C170.11 2.62511 169.604 2.91261 169.136 3.20372C168.765 3.43465 168.444 3.68205 168.097 3.92019C167.768 4.14392 167.435 4.36714 167.105 4.59087C166.528 4.98021 165.954 5.36853 165.392 5.76096C164.613 6.30717 163.833 6.85285 163.052 7.39907C162.372 7.87482 161.701 8.35314 161.015 8.82632C160.212 9.38025 159.329 9.90898 158.416 10.429C157.522 10.9119 156.561 11.3455 155.463 11.7384C155.098 11.8485 154.73 11.9493 154.34 12.0409C154.195 12.0619 154.048 12.0805 153.898 12.098C153.866 12.098 153.836 12.0985 153.807 12.099C153.802 12.0969 153.797 12.0949 153.794 12.0923C153.306 11.7816 152.933 11.4509 152.58 11.1074C151.732 10.1826 151.154 9.2203 150.761 8.23897C150.518 7.63618 150.251 7.03287 150.05 6.427C149.906 5.95793 149.746 5.49093 149.577 5.02393C149.534 4.85986 149.49 4.69577 149.432 4.5317C149.352 4.30694 149.225 4.15779 149.007 3.94023C148.602 3.53854 147.752 3.22739 146.777 3.11115C146.193 3.0412 145.56 3.04686 144.973 3.0983C144.893 3.1055 144.812 3.11268 144.734 3.12039C144.247 3.17903 143.824 3.28549 143.466 3.43979C142.808 3.66095 142.503 3.98189 142.128 4.29049C141.448 4.8475 140.663 5.38497 139.922 5.92656C137.644 7.594 135.376 9.27019 132.696 10.8235C131.647 11.3954 130.501 11.9277 129.207 12.3973C128.756 12.5331 128.292 12.6524 127.804 12.7599C127.592 12.5156 127.391 12.2687 127.23 12.0167C127.041 11.7184 126.851 11.4191 126.661 11.1197C126.361 10.6486 126.135 10.1662 125.874 9.6904C125.614 9.21208 125.397 8.72861 125.159 8.24823C124.972 7.86454 124.79 7.48035 124.606 7.09615C124.447 6.75823 124.237 6.42751 124.034 6.09474C123.881 5.84478 123.782 5.5907 123.61 5.34279C123.209 4.75903 122.278 4.201 120.874 4.02458C119.357 3.83377 117.777 3.94845 116.678 4.46535C116.292 4.64742 116.023 4.85213 115.785 5.0738C115.511 5.32994 115.217 5.57784 114.915 5.82934C114.484 6.18731 114.093 6.55352 113.668 6.91149C111.75 8.52441 109.887 10.1507 107.41 11.6196C106.789 11.9467 106.118 12.2456 105.372 12.5213C105.064 12.6149 104.751 12.6997 104.418 12.7769C104.266 12.7985 104.114 12.818 103.958 12.8355C103.953 12.8329 103.947 12.8304 103.941 12.8278C103.611 12.6102 103.35 12.3772 103.107 12.1391C102.429 11.3877 101.924 10.6126 101.447 9.83287C101.154 9.35198 100.818 8.87159 100.566 8.38452C100.276 7.83008 99.9904 7.27513 99.7019 6.72017C99.5737 6.47227 99.4491 6.22436 99.3434 5.97337C99.1998 5.63186 99.0479 5.30526 98.7487 4.98123C98.6383 4.83722 98.4875 4.70143 98.2952 4.57439C98.0625 4.4021 97.6886 4.23443 97.4025 4.07396C97.0238 3.86103 96.2237 3.75712 95.6337 3.75712C94.6923 3.75712 93.9955 3.97316 93.4744 4.29307C93.0826 4.53378 92.6968 4.76574 92.3811 5.02702C91.9822 5.35824 91.6807 5.71414 91.359 6.06079C90.7619 6.66049 90.1481 7.25816 89.5403 7.85684C88.6998 8.68696 87.8784 9.52171 86.918 10.3266C85.9695 11.1223 85.0495 11.922 83.8208 12.6442C83.2558 12.9517 82.6705 13.2449 81.9915 13.5057C81.7173 13.5838 81.4383 13.6538 81.1463 13.7181C81.0988 13.7248 81.0513 13.7315 81.0026 13.7376C80.9848 13.7284 80.9646 13.7196 80.9456 13.7099C80.8459 13.645 80.7545 13.5787 80.6679 13.5077C79.66 12.3808 78.9976 11.2025 78.3589 10.0268C78.0657 9.4893 77.7737 8.95183 77.4829 8.41436C77.2977 8.07387 77.1113 7.73389 76.8928 7.39804C76.7278 7.14653 76.4655 6.90326 76.202 6.66924C75.904 6.40488 75.3199 6.18888 74.8641 5.97646C74.4735 5.79439 73.8645 5.69511 73.2971 5.69511C72.4542 5.69511 71.8584 5.88953 71.3859 6.17086C70.9977 6.40128 70.6225 6.62141 70.3163 6.87394C69.94 7.18305 69.6752 7.52097 69.3749 7.84654C68.5415 8.65917 67.6856 9.46718 66.8167 10.2736C66.1875 10.8595 65.5512 11.4432 64.8971 12.0244C64.2347 12.6118 63.5427 13.1919 62.777 13.7556C62.1051 14.2514 61.4355 14.7467 60.6604 15.2143C60.1214 15.5002 59.5385 15.7672 58.8927 16.0084C58.8025 16.0346 58.7099 16.0593 58.615 16.0824C58.5153 16.0963 58.4179 16.1087 58.317 16.1195C58.209 16.0387 58.1116 15.9564 58.0167 15.8721C57.6083 15.3521 57.4718 14.7915 57.2628 14.2499C57.1061 13.8425 56.9483 13.4352 56.7904 13.0278C56.5019 12.0702 56.1897 11.111 56.0413 10.1481C55.9285 9.41215 55.817 8.67665 55.7018 7.94117C55.6424 7.55079 55.6199 7.15939 55.5878 6.76799C55.5605 6.43573 55.4549 6.10349 55.31 5.77638C55.1474 5.40967 54.669 5.09645 54.2381 4.78168C53.9746 4.58932 53.5495 4.44583 53.0498 4.38617C52.3339 4.3013 51.6585 4.40106 51.1183 4.60782C50.5782 4.81406 50.0571 5.00284 49.6321 5.25743C49.1241 5.55934 48.7489 5.88799 48.356 6.21973C48.0497 6.4805 47.7137 6.73715 47.3908 6.99534C46.8329 7.44126 46.2762 7.88821 45.7123 8.33362C43.3844 10.1708 41.0873 12.0121 38.1682 13.6903C37.6233 13.9861 37.0535 14.2699 36.4694 14.5513C36.1928 14.684 35.921 14.8151 35.6373 14.9417C35.3465 14.4916 35.1209 14.0349 34.8941 13.5741C34.6306 13.0423 34.4122 12.5038 34.2116 11.9678C33.7011 10.5992 33.2121 9.23008 32.7384 7.8594C32.5485 7.31061 32.3336 6.76286 32.0784 6.21973C31.9098 5.86639 31.7305 5.51458 31.5655 5.15969C31.3946 4.79298 30.9328 4.38564 30.1588 4.18968C29.5297 4.02972 28.739 4.01122 28.0576 4.10997C27.2765 4.22209 26.7554 4.50651 26.4942 4.83671C26.3446 5.02803 26.2508 5.22554 26.0965 5.41635C25.9244 5.6262 25.7523 5.83604 25.5813 6.04537C24.5699 7.28335 23.473 8.50642 22.3761 9.73154C22.1257 10.0098 21.8562 10.2849 21.5879 10.5611C20.2464 11.92 18.6961 13.2753 16.6566 14.4659C15.8957 14.8825 15.1573 15.3104 14.2314 15.6612C14.0652 15.7085 13.9002 15.7507 13.7257 15.7893C13.6794 15.7949 13.6331 15.8001 13.5856 15.8047C13.5061 15.8068 13.4253 15.8073 13.3446 15.8068C13.3256 15.7908 13.3066 15.7749 13.2876 15.7589C13.1654 15.6031 13.0644 15.4488 12.9849 15.2883C12.8959 14.7802 12.9588 14.2627 12.9718 13.753C12.9837 13.3894 12.9837 13.0263 13.0027 12.6627C13.0454 11.8547 13.0775 11.0456 13.1048 10.2376C13.1286 9.49751 13.1725 8.7574 13.1986 8.01729C13.2105 7.68503 13.2212 7.35176 13.2318 7.0195C13.2496 6.47894 13.2924 5.94096 13.2746 5.4004C13.2532 4.82796 13.0395 4.26786 12.8579 3.70313C12.7867 3.48197 12.2489 3.29374 11.7871 3.2387C11.0891 3.15487 10.4433 3.29526 10.0539 3.54368C9.78329 3.71701 9.50668 3.88777 9.24077 4.06316C8.91075 4.28277 8.70895 4.54457 8.47866 4.78527C7.97888 5.30783 7.63581 5.85868 7.29392 6.40284C6.95916 6.93465 6.63507 7.46904 6.27181 7.99828C5.68063 8.86029 5.09538 9.72383 4.51608 10.5874C2.96334 12.9054 1.46164 15.2292 0.000312819 17.5575C-0.0020614 17.5606 0.00982011 17.5627 0.0110072 17.5591C1.98398 15.4925 3.9249 13.4198 5.82665 11.3409C6.63388 10.4588 7.43399 9.57571 8.22579 8.69159C8.39079 8.50591 8.55817 8.31971 8.72437 8.13301C9.17191 7.63051 9.56603 7.1198 9.97439 6.61216C9.92928 6.98607 9.89248 7.35998 9.8545 7.73441C9.77258 8.53007 9.699 9.32625 9.63133 10.1224C9.52687 11.3697 9.45445 12.6164 9.39153 13.8631C9.36898 14.3111 9.3132 14.7596 9.3132 15.2076C9.3132 15.5625 9.51381 15.9235 9.74767 16.2609C9.99459 16.6199 10.4967 17.0324 11.2802 17.2227C12.6086 17.5467 14.3727 17.576 15.7248 17.252C17.338 16.8663 18.4515 16.2223 19.5745 15.6082C22.1161 14.2165 23.8362 12.5644 25.3581 10.9294C26.0787 10.1564 26.7162 9.36945 27.3727 8.58613C27.819 8.05484 28.2333 7.51839 28.6571 6.98452C28.6606 6.9804 28.6642 6.9763 28.6666 6.97219C28.8209 7.35433 28.9408 7.73957 29.0749 8.12274C29.0726 8.11245 29.0691 8.10216 29.0655 8.09187C29.5047 9.5145 29.9463 10.9361 30.395 12.3587C30.6847 13.3164 30.972 14.2792 31.3756 15.2292C31.5371 15.6108 31.7281 15.9816 31.9656 16.3576C32.1662 16.6749 32.5971 16.9933 33.2702 17.1651C33.9564 17.3384 34.8847 17.3667 35.6432 17.2793C37.0856 17.1121 38.1991 16.7151 39.2045 16.2501C40.394 15.6993 41.4767 15.1083 42.5 14.4978C45.1496 12.9147 47.1784 11.1681 49.2321 9.43221C49.6701 9.06241 50.101 8.69209 50.5284 8.32023C50.8786 8.01678 51.2288 7.71282 51.579 7.40936C51.6253 7.36976 51.6703 7.33015 51.7143 7.29055C51.7345 7.5076 51.7547 7.72464 51.7891 7.94117C51.8532 8.35983 51.9185 8.77746 51.9837 9.19612C52.0752 9.77319 52.1321 10.3518 52.2877 10.9263C52.4942 11.6875 52.702 12.4482 52.9073 13.2089C53.0949 13.9043 53.3715 14.595 53.603 15.2878C53.7288 15.7286 53.857 16.1586 54.2274 16.5772C54.5646 16.964 54.9764 17.3477 55.7279 17.6156C56.5351 17.9026 57.4848 17.9932 58.5141 17.9999C59.5528 18.006 60.5475 17.8198 61.3892 17.5729C63.2138 17.0386 64.5386 16.2197 65.6759 15.4205C66.8856 14.5724 67.9433 13.6934 68.9381 12.7959C69.8688 11.9586 70.7448 11.1099 71.6316 10.2639C72.1171 9.80252 72.5931 9.33911 73.0549 8.87313C73.1926 9.14881 73.3315 9.42501 73.4692 9.70017C73.696 10.1569 73.9239 10.6131 74.1471 11.0703C74.4913 11.7781 74.8237 12.4863 75.2345 13.1873C75.5954 13.8081 75.8874 14.4597 76.678 15.0101C77.5339 15.6051 78.9193 16.1416 80.6311 16.137C82.0841 16.1323 83.4718 15.9328 84.7112 15.6103C86.0467 15.2626 87.0782 14.7256 88.0267 14.2016C89.0358 13.6445 89.8632 13.0515 90.6182 12.424C91.3483 11.8182 92.0368 11.202 92.6671 10.575C93.5016 9.74079 94.2828 8.89526 95.0627 8.05074C95.1244 7.98336 95.1874 7.91598 95.2479 7.8486C95.2586 7.86866 95.2692 7.88871 95.2787 7.90877C95.5138 8.35829 95.7358 8.80834 95.9946 9.25529C96.3412 9.85396 96.6843 10.4521 97.0333 11.0492C97.4132 11.6963 97.8144 12.3402 98.3415 12.9687C98.6252 13.3082 98.9529 13.6456 99.3173 13.9691C99.5215 14.1496 99.9168 14.3574 100.214 14.504C100.532 14.6603 100.912 14.8326 101.333 14.9355C101.64 15.0168 101.967 15.0836 102.31 15.134C102.826 15.1896 103.342 15.2158 103.871 15.2338C104.268 15.2297 104.662 15.2122 105.053 15.1803C105.503 15.1489 105.892 15.1068 106.318 15.0363C107.905 14.7725 109.245 14.308 110.442 13.7932C111.048 13.5329 111.55 13.2295 112.069 12.9368C112.545 12.6704 112.969 12.3855 113.395 12.1041C114.344 11.4746 115.181 10.825 115.978 10.1574C116.701 9.55257 117.392 8.94103 118.085 8.33053C118.379 8.07337 118.672 7.81516 118.954 7.55645C119.038 7.48136 119.119 7.40678 119.201 7.33169C119.314 7.53125 119.422 7.73134 119.515 7.93399C119.7 8.34287 119.886 8.75124 120.072 9.16013C120.372 9.82824 120.673 10.4963 120.981 11.1634C121.261 11.7744 121.545 12.3855 121.858 12.9934C122.043 13.3539 122.253 13.7227 122.544 14.0709C122.766 14.3342 123.052 14.5806 123.511 14.7843C123.887 14.952 124.319 15.0857 124.75 15.2266C125.17 15.3639 125.733 15.4313 126.23 15.4951C126.725 15.5594 127.293 15.5558 127.804 15.5336C128.377 15.5079 128.873 15.4683 129.413 15.3958C130.053 15.3094 130.669 15.1757 131.272 15.0492C132.146 14.865 132.92 14.576 133.665 14.3121C134.341 14.074 134.959 13.7988 135.56 13.5242C136.92 12.9055 138.05 12.1823 139.177 11.4823C140.737 10.5118 142.044 9.46513 143.382 8.43442C143.809 8.10526 144.233 7.77556 144.658 7.44588C144.781 7.80334 144.911 8.1613 145.047 8.51875C145.415 9.49494 145.835 10.4644 146.512 11.4118C146.962 12.0419 147.528 12.6822 148.218 13.2696C148.585 13.5802 149.122 13.8554 149.621 14.1259C150.276 14.4813 151.378 14.6896 152.375 14.7796C153.357 14.8671 154.365 14.8589 155.344 14.7735C156.183 14.6999 156.969 14.5472 157.729 14.3785C158.514 14.2036 159.203 13.9403 159.893 13.7063C160.607 13.465 161.246 13.1914 161.853 12.9013C162.944 12.3793 163.878 11.7909 164.825 11.22C165.845 10.6064 166.718 9.9496 167.601 9.29898C168.402 8.70854 169.212 8.1212 170.016 7.53126C170.55 7.13935 171.083 6.7469 171.632 6.35859C172.088 6.03662 172.545 5.71466 173.001 5.39269C173.244 5.22142 173.483 5.04861 173.729 4.87734C173.985 5.33355 174.192 5.7954 174.402 6.25778C174.63 6.75513 174.853 7.25353 175.083 7.75088C175.336 8.29298 175.594 8.83559 175.841 9.37975C175.993 9.71715 176.18 10.0515 176.346 10.3878C176.391 10.4969 176.445 10.6054 176.508 10.7129C176.631 10.9433 176.896 11.1588 177.136 11.3686C177.366 11.5193 177.614 11.6639 177.885 11.8027C178.259 11.9971 178.618 12.1227 179.108 12.278C179.886 12.5238 180.919 12.6704 181.893 12.6688C183.537 12.6668 185.112 12.4544 186.504 12.0779C187.27 11.8701 187.974 11.5975 188.628 11.3275C189.184 11.0986 189.691 10.8466 190.175 10.5899C192.194 9.51809 193.79 8.29453 195.259 7.07146C195.509 6.86316 195.757 6.65484 196.003 6.44654C196.086 7.08944 196.171 7.73133 196.268 8.37372C196.367 9.03258 196.454 9.69195 196.607 10.3493C196.712 10.8029 196.885 11.2539 197.07 11.7035C197.099 11.7559 197.131 11.8089 197.161 11.8619C197.327 12.0337 197.495 12.2055 197.663 12.3778C197.926 12.565 198.273 12.7974 198.619 12.944C198.998 13.105 199.406 13.247 199.867 13.3606C200.447 13.5041 201.409 13.6162 202.079 13.6049C202.688 13.5941 203.287 13.5555 203.885 13.5057C204.573 13.4486 205.271 13.2866 205.874 13.1317C207.605 12.6853 208.79 11.9452 209.984 11.2663C211.27 10.5359 212.297 9.74439 213.325 8.94307C214.182 8.27599 214.95 7.58629 215.756 6.90687C215.966 6.72942 216.174 6.55199 216.382 6.37403C216.367 6.66257 216.351 6.95008 216.331 7.23862C216.291 7.85169 216.238 8.46476 216.175 9.0768C216.139 9.38386 216.107 9.69039 216.073 9.99744C216.057 10.124 216.036 10.2505 216.018 10.3775C215.978 10.646 216.126 10.9124 216.215 11.1763C216.287 11.3887 216.63 11.6896 216.809 11.8547C217.023 12.0537 217.381 12.3124 217.747 12.4451C217.814 12.4708 217.883 12.4955 217.952 12.5202C218.455 12.7362 219.047 12.8859 219.728 12.9687C220.273 13.0515 220.851 13.0623 221.422 13.0927C222.02 13.1245 222.645 13.0387 223.238 13.0037C223.606 12.9831 223.965 12.9255 224.311 12.8725C226.401 12.5542 228.117 11.9102 229.594 11.2128C230.975 10.5612 232.06 9.79171 233.138 9.04491C233.76 8.61339 234.318 8.16543 234.86 7.71437C234.859 8.28424 234.847 8.8541 234.81 9.42397C234.786 9.79634 234.784 10.1682 234.768 10.5401C234.754 10.8183 234.892 11.096 235.005 11.3686C235.042 11.4237 235.081 11.4787 235.121 11.5337C235.309 11.7338 235.5 11.9329 235.699 12.1314C236.01 12.3628 236.389 12.5722 236.813 12.7676C237.423 13.0479 238.155 13.1703 238.956 13.3107C240.197 13.5293 241.625 13.5437 242.928 13.4301C243.988 13.337 245.003 13.1302 245.931 12.8921C246.871 12.6519 247.741 12.3381 248.556 12.0249C249.23 11.7652 249.811 11.4602 250.378 11.1588C251.089 10.7813 251.77 10.3914 252.442 10.0026C253.635 9.31391 254.625 8.56042 255.674 7.83059C256.03 7.58372 256.369 7.33171 256.715 7.08226C257.45 6.55199 258.177 6.01965 258.906 5.48835C259.535 5.02803 260.138 4.55589 260.773 4.09299C260.965 4.38461 261.162 4.67417 261.324 4.97094C261.589 5.45955 261.812 5.95229 262.059 6.44347C262.363 7.04935 262.685 7.65469 262.987 8.26159C263.126 8.54138 263.344 8.81759 263.522 9.09275C263.719 9.39672 263.911 9.70121 264.135 10.0011C265.06 11.2313 266.39 12.4534 268.992 13.1678C268.997 13.1693 269.003 13.1662 268.999 13.1642C268.84 13.087 268.687 13.0078 268.539 12.9281C268.04 12.6236 267.648 12.3063 267.295 11.9653C266.67 11.2812 266.377 10.5601 266.145 9.83287C265.819 8.6885 265.771 7.53897 265.688 6.38842C265.662 6.05308 265.638 5.71928 265.622 5.38343C265.588 4.65206 265.432 3.93149 265.26 3.20372C265.189 2.89461 265.089 2.58859 264.869 2.29285C264.732 2.1113 264.521 1.92715 264.29 1.76411C263.967 1.53935 263.569 1.39072 263.087 1.23643C262.415 1.02092 261.584 0.883606 260.734 0.883606Z" fill="#85A2CE"/>
</g>
<defs>
<clipPath id="clip0_12_21">
<rect width="269" height="18" fill="white"/>
</clipPath>
</defs>
</svg>
