<?xml version="1.0" encoding="UTF-8" standalone="no"?>
<!-- Uploaded to: SVG Repo, www.svgrepo.com, Generator: SVG Repo Mixer Tools -->

<svg
   fill="#000000"
   width="800"
   height="800"
   viewBox="0 0 36 36"
   version="1.1"
   preserveAspectRatio="xMidYMid"
   id="svg3"
   xmlns="http://www.w3.org/2000/svg"
   xmlns:svg="http://www.w3.org/2000/svg">
  <defs
     id="defs3" />
  <title
     id="title1">update-line</title>
  <path
     d="m 19.5,28.1 h -2.9 c -0.5,0 -0.9,-0.3 -1,-0.8 l -0.5,-1.8 c -0.2,-0.1 -0.2,-0.1 -0.4,-0.2 l -1.6,0.9 C 12.7,26.4 12.2,26.4 11.9,26 L 9.8,23.9 C 9.5,23.6 9.4,23.1 9.6,22.7 l 0.9,-1.6 C 10.4,20.9 10.4,20.9 10.3,20.7 L 8.5,20.2 C 8.1,20.1 7.7,19.7 7.7,19.2 v -2.9 c 0,-0.5 0.3,-0.9 0.8,-1 l 1.8,-0.5 c 0.1,-0.2 0.1,-0.2 0.2,-0.4 L 9.6,12.8 C 9.4,12.4 9.4,11.9 9.8,11.6 l 2.1,-2.1 c 0.3,-0.3 0.8,-0.4 1.2,-0.2 l 1.6,0.9 c 0.2,-0.1 0.2,-0.1 0.4,-0.2 l 0.5,-1.8 c 0.1,-0.4 0.5,-0.8 1,-0.8 h 2.9 c 0.5,0 0.9,0.3 1,0.8 L 21,10 c 0.2,0.1 0.2,0.1 0.4,0.2 L 23,9.3 c 0.4,-0.2 0.9,-0.2 1.2,0.2 l 2.1,2.1 c 0.3,0.3 0.4,0.8 0.2,1.2 l -0.9,1.6 c 0.1,0.2 0.1,0.2 0.2,0.4 l 1.8,0.5 c 0.4,0.1 0.8,0.5 0.8,1 v 2.9 c 0,0.5 -0.3,0.9 -0.8,1 l -1.8,0.5 c -0.1,0.2 -0.1,0.2 -0.2,0.4 l 0.9,1.6 c 0.2,0.4 0.2,0.9 -0.2,1.2 L 24.2,26 c -0.3,0.3 -0.8,0.4 -1.2,0.2 l -1.6,-0.9 c -0.2,0.1 -0.2,0.1 -0.4,0.2 l -0.5,1.8 c -0.2,0.5 -0.6,0.8 -1,0.8 z m -2.2,-2 h 1.4 l 0.5,-2.1 0.5,-0.2 c 0.4,-0.1 0.7,-0.3 1.1,-0.4 l 0.5,-0.3 1.9,1.1 1,-1 -1.1,-1.9 0.3,-0.5 c 0.2,-0.3 0.3,-0.7 0.4,-1.1 L 24,19.2 26.1,18.7 V 17.3 L 24,16.8 23.8,16.3 c -0.1,-0.4 -0.3,-0.7 -0.4,-1.1 l -0.3,-0.5 1.1,-1.9 -1,-1 -1.9,1.1 -0.5,-0.3 C 20.5,12.4 20.1,12.3 19.7,12.2 L 19.2,12 18.7,9.9 h -1.4 l -0.5,2.1 -0.5,0.2 c -0.4,0.1 -0.7,0.3 -1.1,0.4 l -0.5,0.3 -1.9,-1.1 -1,1 1.1,1.9 -0.3,0.5 c -0.2,0.3 -0.3,0.7 -0.4,1.1 L 12,16.8 9.9,17.3 v 1.4 l 2.1,0.5 0.2,0.5 c 0.1,0.4 0.3,0.7 0.4,1.1 l 0.3,0.5 -1.1,1.9 1,1 1.9,-1.1 0.5,0.3 c 0.3,0.2 0.7,0.3 1.1,0.4 l 0.5,0.2 z m 9.8,-6.6 z"
     id="path1" />
  <path
     d="m 18,22.3 c -2.4,0 -4.3,-1.9 -4.3,-4.3 0,-2.4 1.9,-4.3 4.3,-4.3 2.4,0 4.3,1.9 4.3,4.3 0,2.4 -1.9,4.3 -4.3,4.3 z m 0,-6.6 c -1.3,0 -2.3,1 -2.3,2.3 0,1.3 1,2.3 2.3,2.3 1.3,0 2.3,-1 2.3,-2.3 0,-1.3 -1,-2.3 -2.3,-2.3 z"
     id="path2" />
  <path
     d="m 18,2 c -0.6,0 -1,0.4 -1,1 0,0.6 0.4,1 1,1 7.7,0 14,6.3 14,14 0,7.7 -6.3,14 -14,14 C 10.3,32 4,25.7 4,18 4,15.2 4.8,12.5 6.4,10.2 v 1.2 c 0,0.6 0.4,1 1,1 0.6,0 1,-0.4 1,-1 v -5 h -5 c -0.6,0 -1,0.4 -1,1 0,0.6 0.4,1 1,1 H 5.2 C 3.1,11.1 2,14.5 2,18 2,26.8 9.2,34 18,34 26.8,34 34,26.8 34,18 34,9.2 26.8,2 18,2 Z"
     id="path3" />
  <rect
     width="36"
     height="36"
     fill-opacity="0"
     id="rect3"
     x="0"
     y="0" />
  <path
     style="fill:#ffb300;fill-opacity:1;stroke-width:0;stroke-linecap:round;stroke-linejoin:round"
     d="M 16.838223,33.94386 C 9.2808594,33.381104 3.1011336,27.513797 2.1430587,19.991618 2.0429631,19.205732 2.0125829,18.570841 2.0311523,17.652976 c 0.017763,-0.878004 0.058355,-1.378341 0.1725949,-2.12741 0.3957155,-2.594698 1.4108799,-5.021893 2.937514,-7.0234136 L 5.2248793,8.392523 4.1740492,8.383185 C 3.1749767,8.3743074 3.1163485,8.370671 2.983733,8.3093513 2.6608577,8.1600588 2.4582045,7.8685524 2.4242091,7.5045037 2.3847589,7.082041 2.5730073,6.7063635 2.9106966,6.5336458 l 0.178044,-0.091064 2.6508991,-0.00803 2.6508996,-0.00803 -0.00835,2.6189172 -0.00835,2.618918 -0.1000116,0.203124 c -0.1795895,0.364767 -0.4749682,0.52195 -0.936841,0.498539 -0.3936046,-0.01995 -0.6433141,-0.170784 -0.8141152,-0.491753 -0.079953,-0.150248 -0.080329,-0.154075 -0.089717,-0.912825 -0.00518,-0.41907 -0.020817,-0.761945 -0.034739,-0.761945 -0.013922,0 -0.1199565,0.146456 -0.2356326,0.325456 -1.2065899,1.867115 -1.8964174,3.882239 -2.1250357,6.207654 -0.057039,0.580178 -0.047609,2.089189 0.016675,2.668529 0.1956148,1.762898 0.6350792,3.273462 1.3964612,4.800038 0.7111791,1.425916 1.5539166,2.598433 2.6610529,3.702373 1.1120549,1.108844 2.2661257,1.936961 3.6868897,2.64557 1.524151,0.760172 3.037086,1.200378 4.800038,1.396626 0.642351,0.07151 2.154093,0.07221 2.789233,0.0013 2.041641,-0.227928 3.890738,-0.824639 5.583818,-1.801921 3.608734,-2.083037 6.138104,-5.696643 6.833871,-9.763271 0.156149,-0.912665 0.191796,-1.355349 0.191796,-2.381856 0,-1.026508 -0.03565,-1.469192 -0.191796,-2.381857 C 31.457722,13.583777 30.624664,11.587025 29.419194,9.8977365 27.461392,7.1541666 24.55611,5.1768207 21.328292,4.391039 20.350975,4.1531204 19.462799,4.0334225 18.347024,3.989259 17.77585,3.9666514 17.715535,3.9588624 17.560439,3.8876798 17.229957,3.7360034 17.049836,3.4621732 17.02613,3.07539 16.99925,2.6368187 17.179288,2.2917044 17.523011,2.1229246 c 0.163752,-0.080408 0.203887,-0.08674 0.612781,-0.096674 0.723774,-0.017585 1.799431,0.081514 2.730931,0.2515971 3.648612,0.6662027 6.986987,2.6227784 9.397192,5.5075668 3.257079,3.8984165 4.463462,9.0690765 3.263259,13.9865885 -1.261328,5.167952 -5.086348,9.428699 -10.104279,11.255308 -1.381046,0.502724 -2.832629,0.810661 -4.336558,0.919949 -0.492392,0.03578 -1.747423,0.03388 -2.248114,-0.0034 z"
     id="path4" />
  <path
     style="fill:#ffb300;fill-opacity:1;stroke-width:0;stroke-linecap:round;stroke-linejoin:round"
     d="m 16.332175,28.047728 c -0.08746,-0.02389 -0.196096,-0.06267 -0.241408,-0.08616 -0.140039,-0.07262 -0.313889,-0.263828 -0.385434,-0.423931 -0.03758,-0.08409 -0.186778,-0.582238 -0.331556,-1.106997 l -0.263235,-0.954109 -0.203374,-0.09839 -0.203375,-0.09839 -0.825072,0.463324 c -0.453789,0.254828 -0.900324,0.488872 -0.992299,0.520098 -0.210675,0.07152 -0.506005,0.05698 -0.680219,-0.03351 -0.07126,-0.037 -0.611516,-0.55498 -1.318759,-1.264363 C 9.8715915,23.946375 9.6777041,23.737986 9.6125612,23.595061 9.515232,23.381518 9.4883098,23.118732 9.5430258,22.91632 c 0.022785,-0.08429 0.2477079,-0.519937 0.4998292,-0.968106 0.252121,-0.44817 0.458402,-0.830458 0.458402,-0.849529 0,-0.01907 -0.04204,-0.119803 -0.09341,-0.223847 L 10.314435,20.685667 9.3894053,20.431482 C 8.8806389,20.29168 8.3986493,20.144854 8.3183171,20.105202 8.1207765,20.007694 7.9352586,19.830799 7.8285614,19.638208 l -0.088411,-0.159583 -0.0085,-1.693721 c -0.00827,-1.648512 -0.00683,-1.698166 0.053814,-1.860264 0.076175,-0.203595 0.2533662,-0.411004 0.4278424,-0.500805 0.071699,-0.0369 0.5703084,-0.188419 1.108022,-0.336704 0.5377131,-0.148286 0.9808232,-0.273251 0.9846882,-0.2777 0.02525,-0.02907 0.195237,-0.389285 0.195237,-0.413729 0,-0.01659 -0.210873,-0.404429 -0.468606,-0.86187 -0.5053839,-0.896981 -0.5797406,-1.081878 -0.5438589,-1.352365 0.038621,-0.291143 0.1057855,-0.371413 1.3351339,-1.595649 1.052308,-1.047933 1.192665,-1.1770992 1.367977,-1.2589101 0.253717,-0.1183995 0.481244,-0.1453846 0.695872,-0.082532 0.08985,0.026311 0.526833,0.2519762 0.971082,0.5014791 0.444249,0.249503 0.820814,0.453642 0.836813,0.453642 0.016,0 0.116584,-0.04314 0.223522,-0.09588 l 0.194432,-0.09588 0.155674,-0.56045 c 0.366634,-1.319944 0.393204,-1.4031729 0.499196,-1.5636681 0.119462,-0.1808937 0.319279,-0.3375864 0.524685,-0.4114498 0.127277,-0.045768 0.309256,-0.049976 1.82936,-0.042302 l 1.688022,0.00852 0.152092,0.080284 c 0.174115,0.091908 0.38385,0.3058001 0.446213,0.4550557 0.02341,0.056023 0.162755,0.5375615 0.30966,1.0700852 l 0.2671,0.968225 0.190072,0.09373 c 0.104539,0.05155 0.205675,0.09373 0.224747,0.09373 0.01907,0 0.395784,-0.2031445 0.837139,-0.4514325 0.441355,-0.2482875 0.863423,-0.474039 0.93793,-0.5016703 0.167085,-0.061964 0.487037,-0.069604 0.648459,-0.015484 0.09612,0.032225 0.36841,0.2871301 1.336741,1.2513838 1.051666,1.047239 1.228618,1.236373 1.309123,1.399247 0.117729,0.238187 0.147058,0.534611 0.07409,0.748774 -0.02686,0.07884 -0.254654,0.509197 -0.506201,0.956345 l -0.457357,0.812996 0.09873,0.204093 0.09873,0.204094 0.954337,0.264691 c 0.524884,0.145581 1.019358,0.299326 1.098831,0.341657 0.186825,0.09951 0.368304,0.29808 0.469273,0.513466 l 0.08028,0.171253 0.0094,1.554066 c 0.0066,1.082564 -0.0011,1.608997 -0.02529,1.735121 -0.0684,0.356967 -0.280059,0.622696 -0.585245,0.73476 -0.0843,0.03096 -0.565782,0.170141 -1.069957,0.309301 l -0.916684,0.253017 -0.104053,0.211478 -0.104054,0.211478 0.45998,0.814753 c 0.252989,0.448114 0.486021,0.896228 0.51785,0.995808 0.08021,0.250942 0.05949,0.506214 -0.05684,0.700433 -0.05049,0.08429 -0.583176,0.637162 -1.278506,1.326953 -0.966214,0.958517 -1.220527,1.194959 -1.342833,1.248467 -0.202041,0.08839 -0.53814,0.111584 -0.719848,0.04967 -0.07535,-0.02568 -0.473803,-0.23608 -0.885444,-0.467566 -0.411641,-0.231486 -0.778695,-0.43656 -0.815677,-0.455721 -0.05695,-0.0295 -0.09873,-0.01898 -0.272897,0.06873 l -0.205658,0.103567 -0.249467,0.900496 c -0.137206,0.495272 -0.279198,0.960824 -0.315535,1.034558 -0.100855,0.204648 -0.362773,0.470207 -0.558615,0.56638 l -0.171326,0.08413 -1.59933,0.0062 c -1.312586,0.0051 -1.627841,-0.0016 -1.758353,-0.03726 z m 2.633391,-2.993986 c 0.135472,-0.568388 0.252014,-1.038215 0.258982,-1.044059 0.007,-0.0058 0.148461,-0.06159 0.314429,-0.123888 0.165969,-0.0623 0.506523,-0.193348 0.756788,-0.29123 0.250266,-0.09788 0.467533,-0.177994 0.482817,-0.178026 0.01528,-3.2e-5 0.138825,-0.06684 0.274536,-0.148462 l 0.246748,-0.148406 0.913459,0.528903 c 0.502403,0.290896 0.932433,0.536183 0.955623,0.545082 0.05638,0.02164 1.038771,-0.956619 1.022775,-1.018467 -0.0064,-0.0249 -0.250381,-0.457194 -0.542093,-0.960663 l -0.530386,-0.915398 0.163943,-0.270366 c 0.248308,-0.409498 0.304109,-0.533283 0.422494,-0.937237 0.09311,-0.317712 0.271687,-0.826265 0.304437,-0.866977 0.0056,-0.007 0.475236,-0.123517 1.043624,-0.258998 l 1.033433,-0.246329 V 18 17.280779 L 25.053742,17.03445 c -0.568388,-0.135481 -1.038215,-0.25203 -1.044059,-0.258998 -0.0058,-0.007 -0.06143,-0.148461 -0.123523,-0.31443 -0.06209,-0.165968 -0.186357,-0.487986 -0.276142,-0.715596 -0.08978,-0.227611 -0.163245,-0.431996 -0.163245,-0.45419 0,-0.02219 -0.07341,-0.16459 -0.163141,-0.316435 L 23.12049,14.69872 23.650253,13.784398 c 0.29137,-0.502878 0.535031,-0.934691 0.54147,-0.959587 0.016,-0.06185 -0.966395,-1.040103 -1.022775,-1.018467 -0.02319,0.0089 -0.453386,0.254282 -0.955992,0.545296 l -0.913828,0.529116 -0.270366,-0.163943 c -0.409498,-0.248308 -0.533283,-0.304109 -0.937237,-0.422494 -0.317712,-0.09311 -0.826265,-0.271687 -0.866977,-0.304437 -0.007,-0.0056 -0.123517,-0.475236 -0.258998,-1.043624 L 18.719221,9.912825 H 18 17.280779 l -0.246329,1.033433 c -0.135481,0.568388 -0.25203,1.038215 -0.258998,1.044059 -0.007,0.0058 -0.148461,0.06143 -0.31443,0.123523 -0.165968,0.06209 -0.487986,0.186357 -0.715596,0.276142 -0.227611,0.08979 -0.431996,0.163245 -0.45419,0.163245 -0.02219,0 -0.16459,0.07341 -0.316435,0.163141 L 14.69872,12.87951 13.785968,12.351017 c -0.502014,-0.290671 -0.931726,-0.535774 -0.954916,-0.544673 -0.05638,-0.02164 -1.038771,0.956619 -1.022775,1.018467 0.0064,0.0249 0.250381,0.457194 0.542093,0.960663 l 0.530386,0.915398 -0.163943,0.270366 c -0.248308,0.409498 -0.304109,0.533283 -0.422494,0.937237 -0.09348,0.318959 -0.271801,0.826533 -0.304679,0.867219 -0.0057,0.0071 -0.475369,0.124157 -1.043624,0.260124 L 9.912825,17.283032 V 18 18.716968 l 1.033191,0.247214 c 0.568255,0.135967 1.038082,0.253023 1.044059,0.260124 0.006,0.0071 0.06167,0.148703 0.123765,0.314671 0.06209,0.165969 0.186357,0.487987 0.276142,0.715597 0.08979,0.227611 0.163245,0.431996 0.163245,0.45419 0,0.02219 0.07341,0.16459 0.163141,0.316435 l 0.163142,0.276081 -0.529763,0.914322 c -0.29137,0.502877 -0.535031,0.934691 -0.54147,0.959587 -0.016,0.06185 0.966395,1.040103 1.022775,1.018467 0.02319,-0.0089 0.453386,-0.254282 0.955992,-0.545296 l 0.913828,-0.529116 0.270366,0.163943 c 0.409205,0.248131 0.533127,0.304035 0.937237,0.422813 0.20432,0.06005 0.48381,0.151904 0.621087,0.20411 0.231265,0.08795 0.25168,0.102676 0.27799,0.200535 0.01562,0.05809 0.124573,0.512993 0.242124,1.010897 0.117552,0.497905 0.219577,0.922502 0.226722,0.943549 0.01011,0.02977 0.171687,0.03647 0.727923,0.03018 l 0.714932,-0.0081 z"
     id="path5" />
  <path
     style="fill:#ffb300;fill-opacity:1;stroke-width:0;stroke-linecap:round;stroke-linejoin:round"
     d="m 17.683152,22.264773 c -1.709835,-0.10913 -3.199633,-1.258314 -3.74065,-2.885423 -0.321188,-0.965975 -0.287899,-2.058364 0.09166,-3.00791 0.507664,-1.270018 1.603472,-2.208491 2.960634,-2.535549 0.602246,-0.145133 1.407233,-0.145356 2.008097,-5.53e-4 1.703714,0.410573 2.945786,1.750943 3.223858,3.478994 0.05323,0.330813 0.05908,0.991045 0.01157,1.307104 -0.15521,1.032622 -0.659036,1.962016 -1.416868,2.613655 -0.875777,0.753057 -1.950041,1.105525 -3.138307,1.029684 z m 0.950545,-2.031551 c 0.781614,-0.213996 1.381403,-0.817999 1.603346,-1.614613 0.07675,-0.275468 0.07675,-0.96175 0,-1.237218 -0.223687,-0.802873 -0.820104,-1.399547 -1.618434,-1.619131 -0.274715,-0.07556 -0.962504,-0.07556 -1.237218,0 -0.649351,0.178607 -1.194254,0.629209 -1.465349,1.211755 -0.142572,0.306368 -0.195693,0.530258 -0.215159,0.906843 -0.06082,1.176607 0.658454,2.128163 1.801213,2.382891 0.251166,0.05599 0.877305,0.03909 1.131601,-0.03053 z"
     id="path6" />
</svg>
