<?xml version="1.0" encoding="UTF-8" standalone="no"?>
<!-- Uploaded to: SVG Repo, www.svgrepo.com, Generator: SVG Repo Mixer Tools -->

<svg
   fill="#000000"
   width="751"
   height="151.45001"
   viewBox="0 0 30.04 6.0580005"
   version="1.1"
   id="svg1"
   xmlns="http://www.w3.org/2000/svg"
   xmlns:svg="http://www.w3.org/2000/svg">
  <defs
     id="defs1" />
  <title
     id="title1">woocommerce</title>
  <path
     d="m 14.123,1.7119997 c 0.292,0 0.443,0.273 0.443,0.826 0.002,0.029 0.003,0.063 0.003,0.098 0,0.215 -0.046,0.42 -0.13,0.604 l 0.004,-0.009 c -0.066,0.105 -0.181,0.174 -0.312,0.174 -0.006,0 -0.011,0 -0.017,0 h 10e-4 c -0.003,0 -0.007,0 -0.01,0 -0.126,0 -0.235,-0.07 -0.292,-0.172 l -0.001,-0.002 c -0.07,-0.17 -0.111,-0.368 -0.111,-0.575 0,-0.045 0.002,-0.09 0.006,-0.135 v 0.006 c 0,-0.546 0.138,-0.814 0.416,-0.814 z m -5.543,-0.007 c -0.165,0.02 -0.303,0.121 -0.374,0.261 l -10e-4,0.003 c -0.157,0.217 -0.25,0.489 -0.25,0.783 0,0.006 0,0.012 0,0.018 v -10e-4 c 0.002,0.137 0.029,0.267 0.078,0.386 l -0.003,-0.007 c 0.061,0.163 0.146,0.248 0.245,0.269 0.011,0.001 0.024,0.002 0.036,0.002 0.12,0 0.227,-0.052 0.301,-0.134 v 0 c 0.163,-0.161 0.276,-0.373 0.315,-0.609 l 0.001,-0.006 c 0.017,-0.092 0.028,-0.198 0.029,-0.307 v -10e-4 c -0.002,-0.137 -0.029,-0.267 -0.078,-0.386 l 0.003,0.007 c -0.063,-0.163 -0.145,-0.248 -0.245,-0.269 -0.017,-0.004 -0.036,-0.007 -0.056,-0.007 H 8.58 Z m -2.607,0 c -0.165,0.02 -0.304,0.121 -0.375,0.261 l -10e-4,0.003 c -0.157,0.217 -0.25,0.489 -0.25,0.783 0,0.006 0,0.012 0,0.018 v -10e-4 c 0.002,0.137 0.029,0.267 0.078,0.386 l -0.003,-0.007 c 0.061,0.163 0.146,0.248 0.245,0.269 0.011,0.001 0.024,0.002 0.036,0.002 0.12,0 0.227,-0.052 0.301,-0.134 v 0 c 0.163,-0.161 0.276,-0.373 0.315,-0.609 l 0.001,-0.006 c 0.018,-0.089 0.029,-0.191 0.029,-0.295 0,-0.005 0,-0.009 0,-0.014 v 0.001 c -0.002,-0.137 -0.029,-0.267 -0.078,-0.386 l 0.003,0.007 c -0.063,-0.163 -0.145,-0.248 -0.245,-0.269 -0.017,-0.004 -0.036,-0.007 -0.056,-0.007 H 5.972 Z m 19.05,-0.014 c 0.014,-0.001 0.03,-0.002 0.047,-0.002 0.127,0 0.246,0.034 0.348,0.093 l -0.003,-0.002 c 0.071,0.06 0.116,0.149 0.116,0.248 0,0.013 -10e-4,0.025 -0.002,0.037 v -0.002 q 0,0.293 -0.506,0.3 v -0.675 z m -2.534,-0.541 v 2.834 h 1.552 v -0.605 h -0.785 v -0.521 h 0.677 v -0.586 h -0.676 v -0.519 h 0.779 v -0.603 z m 5.999,-0.005 v 2.834 h 1.552 v -0.605 h -0.789 v -0.518 h 0.676 v -0.586 h -0.676 v -0.521 h 0.784 v -0.605 z m -4.227,0 v 2.834 h 0.765 v -1.29 h 0.015 l 0.618,1.289 h 0.807 l -0.612,-1.275 c 0.271,-0.118 0.459,-0.382 0.463,-0.69 v -10e-4 c 0,-0.007 0,-0.016 0,-0.024 0,-0.25 -0.123,-0.472 -0.311,-0.607 l -0.002,-0.002 c -0.219,-0.147 -0.488,-0.235 -0.778,-0.235 -0.026,0 -0.051,0.001 -0.077,0.002 h 0.004 z m -4.992,0 -0.363,2.834 h 0.725 l 0.195,-1.951 0.496,1.951 h 0.516 l 0.469,-1.946 0.207,1.946 h 0.755 l -0.382,-2.834 h -0.988 l -0.149,0.636 c -0.038,0.163 -0.075,0.33 -0.108,0.501 l -0.083,0.441 c -0.079,-0.441 -0.188,-0.965 -0.325,-1.577 z m -3.464,0 -0.363,2.834 h 0.725 l 0.195,-1.951 0.494,1.951 h 0.516 l 0.474,-1.946 0.205,1.946 h 0.755 l -0.381,-2.834 h -0.99 l -0.15,0.636 c -0.038,0.163 -0.075,0.33 -0.109,0.501 l -0.084,0.44 q -0.145,-0.792 -0.323,-1.577 z m 12.013,-0.075 c -0.017,-0.001 -0.038,-0.001 -0.058,-0.001 -0.778,0 -1.409,0.631 -1.409,1.409 0,0.017 0,0.034 0.001,0.051 v -0.002 c -0.001,0.021 -0.002,0.045 -0.002,0.069 0,0.4 0.157,0.764 0.413,1.033 l -0.001,-10e-4 c 0.262,0.261 0.622,0.422 1.021,0.422 0.02,0 0.04,0 0.06,-10e-4 H 27.84 c 0.155,-0.002 0.304,-0.025 0.444,-0.068 l -0.011,0.003 v -0.676 c -0.113,0.037 -0.243,0.06 -0.377,0.064 h -0.002 c -0.007,0 -0.016,0 -0.025,0 -0.199,0 -0.378,-0.085 -0.503,-0.221 v 0 c -0.125,-0.164 -0.2,-0.371 -0.2,-0.597 0,-0.222 0.073,-0.427 0.197,-0.592 l -0.002,0.003 c 0.115,-0.139 0.288,-0.227 0.481,-0.227 0.006,0 0.011,0 0.017,0 h -0.001 c 0.148,10e-4 0.291,0.023 0.426,0.064 l -0.011,-0.003 v -0.672 c -0.132,-0.036 -0.283,-0.056 -0.439,-0.056 -0.005,0 -0.01,0 -0.016,0 h 10e-4 z m -15.538,0 c -0.017,-0.001 -0.038,-0.001 -0.058,-0.001 -0.778,0 -1.409,0.631 -1.409,1.409 0,0.017 0,0.034 10e-4,0.051 v -0.002 c -10e-4,0.021 -0.002,0.045 -0.002,0.069 0,0.4 0.157,0.764 0.413,1.033 l -10e-4,-10e-4 c 0.261,0.261 0.622,0.422 1.02,0.422 0.02,0 0.04,0 0.061,-10e-4 h -0.003 c 0.155,-0.002 0.304,-0.025 0.444,-0.068 l -0.011,0.003 v -0.676 c -0.113,0.037 -0.243,0.06 -0.377,0.064 h -0.002 c -0.007,0 -0.016,0 -0.025,0 -0.199,0 -0.378,-0.085 -0.503,-0.221 v 0 c -0.125,-0.164 -0.2,-0.371 -0.2,-0.597 0,-0.222 0.073,-0.427 0.197,-0.592 l -0.002,0.003 c 0.115,-0.139 0.288,-0.227 0.481,-0.227 0.006,0 0.011,0 0.017,0 H 12.32 c 0.149,10e-4 0.291,0.023 0.426,0.064 l -0.011,-0.003 v -0.672 c -0.132,-0.036 -0.283,-0.056 -0.44,-0.056 -0.005,0 -0.01,0 -0.016,0 h 10e-4 z m 1.835,-0.003 c -0.017,-10e-4 -0.036,-10e-4 -0.056,-10e-4 -0.335,0 -0.636,0.147 -0.842,0.381 l -0.001,10e-4 c -0.202,0.266 -0.324,0.602 -0.324,0.967 0,0.037 0.001,0.073 0.004,0.109 v -0.005 c -0.002,0.035 -0.004,0.075 -0.004,0.116 0,0.382 0.121,0.735 0.328,1.023 l -0.004,-0.005 c 0.208,0.244 0.516,0.398 0.86,0.398 0.025,0 0.05,-0.001 0.075,-0.002 h -0.003 c 0.018,10e-4 0.04,0.002 0.061,0.002 0.341,0 0.645,-0.154 0.849,-0.395 l 10e-4,-0.002 c 0.202,-0.278 0.324,-0.625 0.324,-1.002 0,-0.036 -10e-4,-0.073 -0.003,-0.109 v 0.005 c 0.002,-0.032 0.003,-0.069 0.003,-0.106 0,-0.374 -0.123,-0.72 -0.332,-0.998 l 0.003,0.004 c -0.216,-0.236 -0.525,-0.383 -0.868,-0.383 -0.025,0 -0.05,0.001 -0.074,0.002 z m -5.554,-0.058 c 0.08,0 0.158,0.009 0.232,0.026 l -0.007,-10e-4 c 0.288,0.055 0.526,0.234 0.661,0.478 l 0.002,0.005 c 0.127,0.221 0.201,0.485 0.201,0.768 0,0.018 0,0.036 -0.001,0.054 v -0.003 c 0,0.006 0,0.013 0,0.021 0,0.427 -0.121,0.827 -0.33,1.166 l 0.005,-0.01 c -0.182,0.366 -0.549,0.616 -0.976,0.626 H 8.347 c -0.081,-0.002 -0.158,-0.011 -0.233,-0.029 l 0.007,10e-4 c -0.288,-0.055 -0.527,-0.233 -0.662,-0.476 l -0.002,-0.005 c -0.126,-0.225 -0.201,-0.493 -0.201,-0.779 0,-0.016 0,-0.032 10e-4,-0.048 v 0.002 c 0,-0.006 0,-0.013 0,-0.021 0,-0.426 0.121,-0.824 0.331,-1.162 l -0.005,0.009 c 0.183,-0.365 0.549,-0.613 0.975,-0.623 h 10e-4 z m -2.608,0 c 0.08,0 0.158,0.009 0.232,0.026 l -0.007,-10e-4 c 0.288,0.057 0.525,0.235 0.661,0.478 l 0.003,0.005 c 0.127,0.221 0.202,0.487 0.202,0.77 0,0.017 0,0.034 -10e-4,0.051 v -0.002 c 0,0.005 0,0.012 0,0.018 0,0.428 -0.121,0.829 -0.331,1.168 l 0.005,-0.01 c -0.182,0.366 -0.549,0.616 -0.976,0.626 H 5.74 c -0.081,-0.002 -0.158,-0.011 -0.233,-0.029 l 0.007,0.001 c -0.288,-0.055 -0.527,-0.233 -0.662,-0.476 l -0.003,-0.005 c -0.125,-0.224 -0.199,-0.491 -0.199,-0.775 0,-0.018 0,-0.035 10e-4,-0.053 v 0.003 c 0,-0.008 0,-0.016 0,-0.025 0,-0.424 0.12,-0.821 0.329,-1.157 l -0.005,0.009 c 0.183,-0.365 0.549,-0.613 0.975,-0.623 H 5.951 Z M 4.335,0.55799976 h 0.038 c 0.086,0.002 0.164,0.033 0.225,0.084 H 4.597 c 0.073,0.056 0.122,0.14 0.129,0.237 v 0.001 c 0.001,0.009 0.001,0.019 0.001,0.03 0,0.062 -0.016,0.12099994 -0.043,0.17199994 l 10e-4,-0.002 c -0.2,0.438 -0.343,0.945 -0.401,1.478 l -0.002,0.022 c -0.077,0.41 -0.121,0.883 -0.121,1.365 0,0.078 0.001,0.155 0.003,0.232 v -0.011 c 0.002,0.016 0.003,0.035 0.003,0.054 0,0.08 -0.019,0.156 -0.053,0.222 l 0.001,-0.003 c -0.041,0.084 -0.123,0.143 -0.219,0.15 H 3.895 c -10e-4,0 -10e-4,0 -0.002,0 -0.132,0 -0.249,-0.06 -0.327,-0.154 l -10e-4,-10e-4 c -0.433,-0.488 -0.753,-1.085 -0.914,-1.744 l -0.006,-0.028 q -0.406,0.798 -0.598,1.198 c -0.245,0.471 -0.454,0.711 -0.628,0.723 -0.113,0.009 -0.208,-0.086 -0.292,-0.285 -0.29500002,-0.901 -0.53500002,-1.97 -0.67600002,-3.069 l -0.009,-0.09 c -0.003,-0.017 -0.005,-0.037 -0.005,-0.058 0,-0.083 0.027,-0.15899994 0.073,-0.22099994 l -0.001,0.001 c 0.061,-0.078 0.156,-0.128 0.262,-0.128 0,0 0.001,0 0.001,0 v 0 c 0.018,-0.004 0.038,-0.006 0.059,-0.006 0.167,0 0.30200002,0.135 0.30200002,0.30199994 0,0.001 0,0.001 0,0.002 v 0 c 0.129,0.87 0.272,1.607 0.421,2.21 l 0.91,-1.736 c 0.052,-0.132 0.169,-0.228 0.311,-0.249 h 0.002 c 0.183,-0.013 0.297,0.104 0.342,0.35 0.097,0.541 0.233,1.018 0.412,1.474 l -0.018,-0.052 c 0.043,-0.837 0.242,-1.618 0.567,-2.32799994 l -0.016,0.04 c 0.05,-0.105 0.152,-0.178 0.272,-0.184 H 4.337 Z M 0.94399998,9.9975806e-4 c 0,0 0,0 0,0 -0.521,0 -0.943999999073486,0.42300000194 -0.943999999073486,0.94400000194 0,0.002 0,0.004 0,0.005 v 0 3.15999994 c 0,0 0,10e-4 0,10e-4 0,0.523 0.423999999073486,0.947 0.946999999073486,0.947 0,0 0.001,0 0.001,0 H 4.872 l 1.791,1 -0.408,-1 h 2.97 c 0,0 0.001,0 0.001,0 0.523,0 0.948,-0.424 0.948,-0.948 0,0 0,-0.001 0,-0.001 v 0 -3.15999994 c 0,0 0,-0.001 0,-0.001 0,-0.523 -0.424,-0.94800000193931 -0.948,-0.94800000193931 0,0 -0.001,0 -0.001,0 v 0 z"
     id="path1" />
  <path
     style="fill:#ffb300;stroke-width:0;stroke-linecap:round;stroke-linejoin:round"
     d="M 5.7526068,5.5303197 4.9345012,5.0685581 2.8422967,5.0551465 0.75009218,5.0417349 0.57574182,4.9583561 C 0.36655574,4.8583181 0.19690206,4.6925793 0.09841138,4.4920409 L 0.02586754,4.3443333 V 2.5332165 0.72210016 L 0.1133025,0.54448536 C 0.21506102,0.33777416 0.36046726,0.19592256 0.57252274,0.09649216 L 0.72326906,0.02580856 H 5.0820284 9.440788 l 0.1687572,0.077926 c 0.2119068,0.0978508 0.4088068,0.305582 0.4865158,0.5132788 0.05409,0.1445736 0.05554,0.194048 0.05539,1.89764714 -8e-5,1.054946 -0.01054,1.7866108 -0.02633,1.8434524 C 10.07975,4.5214081 9.9287472,4.7409385 9.7894888,4.8460545 9.522792,5.0473641 9.5990096,5.0394837 7.8266988,5.0489989 l -1.587266,0.00852 0.1857572,0.454752 C 6.6218496,5.9937137 6.622112,5.9944749 6.59083,5.9930169 6.579765,5.9925009 6.2025648,5.7842869 5.7526068,5.5303181 Z M 1.6099843,4.5059069 C 1.7640249,4.3884145 1.8967677,4.1728861 2.2702539,3.4338561 2.4734172,3.0318501 2.642978,2.7260693 2.6503758,2.7483569 c 0.00735,0.022129 0.045972,0.1428332 0.085838,0.2682312 0.1852412,0.5826832 0.7080519,1.418876 0.9626591,1.5396952 0.114688,0.054423 0.2543704,0.054847 0.3312388,0.00101 C 4.14609,4.4760569 4.1700264,4.3838005 4.1702712,4.0170833 4.1705512,3.5861981 4.204874,3.1856657 4.292426,2.5912645 4.3754196,2.0278093 4.4488444,1.7294053 4.6002748,1.3401433 4.7393956,0.98252536 4.7577256,0.83917616 4.6802264,0.71489136 4.5716048,0.54069656 4.287282,0.49183096 4.1433764,0.62262456 3.9401272,0.80735456 3.5969544,1.9436809 3.5378532,2.6276537 3.5276552,2.7456757 3.5100948,2.8595669 3.4988296,2.8807453 3.462562,2.9489313 3.2731416,2.2924109 3.1242068,1.5823233 3.0607272,1.2796657 2.8342318,1.1581609 2.611561,1.3073117 2.5376524,1.3568173 2.4460101,1.5102389 2.1268924,2.1187113 1.9104527,2.5314041 1.6939468,2.9410845 1.6457681,3.0291121 l -0.087598,0.16005 -0.022186,-0.07958 C 1.4869954,2.9338613 1.2721486,1.8215013 1.2031892,1.3865489 1.119858,0.86094856 1.0865845,0.78203296 0.92831274,0.73461336 0.7177293,0.67152096 0.49608494,0.77978296 0.4431203,0.97160496 0.35612098,1.2866905 0.92722598,3.9807157 1.1742609,4.4205521 1.2798597,4.6085669 1.4354353,4.6390433 1.6099843,4.5059081 Z M 6.1906916,4.0419093 C 6.4497972,3.9206589 6.6212272,3.7353265 6.7945556,3.3890733 6.9849672,3.0086929 7.0433724,2.7670073 7.04662,2.3460097 7.048924,2.0474301 7.0412484,1.9875453 6.9765204,1.7990485 6.8494372,1.4289645 6.6703744,1.2160417 6.3695388,1.0772901 6.2725924,1.0325761 6.1931456,1.0212889 5.9658948,1.0199417 c -0.274202,-0.00162 -0.2892024,0.00142 -0.485728,0.0985 C 5.2459764,1.2341309 5.1132496,1.3655129 4.95249,1.6407709 4.6421452,2.1721549 4.551698,2.9103285 4.7359484,3.4080457 4.9208236,3.9074509 5.2732916,4.1529721 5.779894,4.1352341 5.9703128,4.1285669 6.0387164,4.1130269 6.1906916,4.0419093 Z M 8.8199548,4.0269973 C 9.0753928,3.9007533 9.2422636,3.7189401 9.4104564,3.3836189 9.5912456,3.0231849 9.6479088,2.7824421 9.6515184,2.3594213 9.6537984,2.0921689 9.6430772,1.9731289 9.605614,1.8497817 9.491832,1.4751549 9.294558,1.2263473 9.0029044,1.0896249 8.8683656,1.0265557 8.8179556,1.0182645 8.569036,1.0182645 c -0.2617188,0 -0.2945744,0.00613 -0.464444,0.086582 -0.2615888,0.1239 -0.4343976,0.311272 -0.60447,0.65541 -0.1763164,0.356774 -0.2449844,0.642472 -0.2452316,1.0203084 -2.4e-4,0.3459164 0.031442,0.5100564 0.1471192,0.7625356 0.1855568,0.4049972 0.5219244,0.607336 0.98357,0.5916564 0.2055016,-0.00698 0.2556148,-0.019412 0.4343752,-0.1077596 z"
     id="path2" />
  <path
     style="fill:#ffb300;stroke-width:0;stroke-linecap:round;stroke-linejoin:round"
     d="M 5.615178,3.3695625 C 5.4399948,3.2806417 5.3250468,2.8997405 5.3763952,2.5783129 5.391478,2.4838981 5.4216808,2.3560221 5.4435124,2.2941441 5.5011336,2.1308285 5.6697652,1.8685353 5.7571428,1.8063173 5.8561096,1.7358465 6.0068608,1.7125321 6.0868284,1.7553293 6.1739976,1.8019809 6.2780236,2.0050901 6.3168916,2.2045249 6.43173,2.7937713 5.9749376,3.5521721 5.615178,3.3695625 Z"
     id="path3" />
  <path
     style="fill:#ffb300;stroke-width:0;stroke-linecap:round;stroke-linejoin:round"
     d="M 8.2271464,3.3777541 C 8.0392812,3.2987629 7.9245024,2.8231933 8.004944,2.4570901 8.045476,2.2726217 8.2010968,1.9670277 8.309922,1.8582029 8.4620652,1.7060597 8.6366352,1.6852577 8.7563796,1.8050021 c 0.090627,0.090626 0.1881804,0.3839044 0.1881804,0.56573 0,0.5885244 -0.3947848,1.1426772 -0.7174136,1.007022 z"
     id="path4" />
  <path
     style="fill:#ffb300;stroke-width:0;stroke-linecap:round;stroke-linejoin:round"
     d="M 11.912404,3.9951737 C 11.22564,3.8210809 10.783326,3.1863653 10.830162,2.4421717 c 0.04181,-0.6642684 0.458045,-1.172066 1.081118,-1.3189288 0.184789,-0.043556 0.657177,-0.041926 0.768402,0.00265 0.04105,0.016453 0.04694,0.05919 0.04694,0.3406908 0,0.2957872 -0.0038,0.3203632 -0.04694,0.3031908 -0.09525,-0.037918 -0.450005,-0.046734 -0.569945,-0.014164 -0.277195,0.075274 -0.482863,0.4115492 -0.482863,0.7894968 0,0.3551072 0.12632,0.6098328 0.370513,0.7471384 0.154724,0.086999 0.348967,0.1078784 0.601825,0.064692 l 0.12741,-0.021761 v 0.3203928 c 0,0.3769204 0.02893,0.3495632 -0.388936,0.367744 -0.183814,0.008 -0.317657,-8.6e-4 -0.425282,-0.028142 z"
     id="path5" />
  <path
     style="fill:#ffb300;stroke-width:0;stroke-linecap:round;stroke-linejoin:round"
     d="M 13.819555,4.0067461 C 13.40399,3.9088049 13.072624,3.5390881 12.956147,3.0434113 12.901413,2.8104865 12.900884,2.2492201 12.955199,2.0364733 13.058689,1.6311085 13.263694,1.3555637 13.577,1.2007197 c 0.185144,-0.091503 0.226772,-0.1013364 0.470424,-0.1111228 0.678064,-0.027235 1.097499,0.290286 1.269923,0.9613584 0.05464,0.2126476 0.06076,0.757842 0.01087,0.9685824 -0.155985,0.6589572 -0.581006,1.02114 -1.189502,1.0136352 -0.120156,-0.00148 -0.263778,-0.013374 -0.319161,-0.026427 z m 0.482039,-0.6326048 c 0.05192,-0.024636 0.116726,-0.081513 0.144019,-0.1263928 0.166067,-0.2730756 0.177309,-1.0018628 0.02045,-1.3258868 -0.140192,-0.2895988 -0.51863,-0.2949044 -0.664327,-0.00931 -0.151793,0.2975372 -0.141923,1.0789716 0.01703,1.3480504 0.08797,0.1489212 0.302141,0.199286 0.482831,0.1135428 z"
     id="path6" />
  <path
     style="fill:#ffb300;stroke-width:0;stroke-linecap:round;stroke-linejoin:round"
     d="m 18.933957,3.8548109 c 0.02484,-0.157096 0.33751,-2.6165432 0.33751,-2.6548608 0,-0.026382 0.108635,-0.034158 0.477206,-0.034158 h 0.477206 l 0.139776,0.6638728 c 0.07688,0.36513 0.147332,0.7151716 0.156566,0.7778708 0.0092,0.062699 0.02513,0.1139984 0.03532,0.1139984 0.01019,0 0.03934,-0.1176864 0.06478,-0.2615256 0.04058,-0.2294756 0.236758,-1.1194292 0.274946,-1.2472756 0.01267,-0.042433 0.06009,-0.046941 0.493815,-0.046941 h 0.479793 l 0.01523,0.087175 c 0.01642,0.094027 0.36273,2.6582388 0.36273,2.6858016 0,0.00915 -0.161408,0.016629 -0.358684,0.016629 h -0.358684 l -0.01508,-0.1005868 c -0.0083,-0.055322 -0.05413,-0.4808044 -0.101864,-0.9455152 -0.04773,-0.4647108 -0.09447,-0.8540676 -0.103874,-0.8652372 -0.0094,-0.01117 -0.111769,0.3750836 -0.227482,0.8583404 -0.115713,0.4832568 -0.221207,0.9178776 -0.234431,0.9658236 l -0.02404,0.087175 H 20.57726 20.329834 L 20.091373,3.0098825 c -0.213249,-0.845548 -0.283193,-1.0817528 -0.283557,-0.957586 -8e-5,0.021391 -0.04226,0.4553228 -0.09377,0.9642916 -0.05151,0.5089692 -0.0937,0.9284156 -0.09377,0.932104 -8e-5,0.00369 -0.158091,0.00671 -0.351173,0.00671 h -0.351058 z"
     id="path7" />
  <path
     style="fill:#ffb300;stroke-width:0;stroke-linecap:round;stroke-linejoin:round"
     d="m 15.46265,3.9352805 c 3.7e-5,-0.011064 0.07846,-0.6296732 0.174282,-1.3746856 0.09582,-0.7450128 0.174245,-1.3638996 0.174282,-1.3753048 3.8e-5,-0.011405 0.213885,-0.01744 0.475217,-0.013412 l 0.475148,0.00732 0.04611,0.2011736 c 0.02536,0.1106456 0.09689,0.4573392 0.158945,0.7704308 0.06206,0.3130916 0.122087,0.5635392 0.133396,0.55655 0.01131,-0.00699 0.02922,-0.076063 0.03979,-0.1534988 0.01882,-0.1377264 0.21824,-1.048278 0.27904,-1.2740688 l 0.0307,-0.1139984 h 0.480566 0.480568 l 0.0148,0.087175 c 0.0081,0.047946 0.08697,0.6303436 0.175192,1.2942164 0.08822,0.6638724 0.16766,1.2523052 0.176539,1.3076276 l 0.01614,0.1005868 H 18.43188 18.070395 l -0.01498,-0.087175 c -0.0082,-0.047946 -0.05259,-0.4613576 -0.09857,-0.9186924 -0.04598,-0.4573344 -0.09217,-0.8535632 -0.102644,-0.8805084 -0.01207,-0.03105 -0.105586,0.3053916 -0.255347,0.9186924 L 17.362562,3.9553977 H 17.114285 16.866008 L 16.629611,3.0232941 C 16.4172,2.1857609 16.351316,1.9547749 16.348447,2.0375437 c -5.12e-4,0.014753 -0.04307,0.4432524 -0.09458,0.9522212 -0.05151,0.5089692 -0.0937,0.9344512 -0.09377,0.9455156 -8e-5,0.011064 -0.157029,0.020117 -0.348815,0.020117 -0.191785,0 -0.34867,-0.00905 -0.348632,-0.020117 z"
     id="path8" />
  <path
     style="fill:#ffb300;stroke-width:0;stroke-linecap:round;stroke-linejoin:round"
     d="M 22.490243,2.5740065 V 1.1657917 h 0.764459 0.76446 v 0.2816432 0.2816428 h -0.388936 -0.388935 v 0.2816428 0.2816428 h 0.335289 0.335289 V 2.5740065 2.8556493 H 23.57658 23.241291 v 0.2682312 0.2682316 h 0.388935 0.388936 v 0.2950544 0.2950544 h -0.76446 -0.764459 z"
     id="path9" />
  <path
     style="fill:#ffb300;stroke-width:0;stroke-linecap:round;stroke-linejoin:round"
     d="M 24.26057,2.5605949 V 1.1657917 l 0.583403,3.2e-4 c 0.605544,3.2e-4 0.725446,0.015889 0.97576,0.1266148 0.157963,0.069874 0.33283,0.227658 0.407252,0.3674652 0.04635,0.087064 0.05815,0.1552088 0.05841,0.3371188 2.8e-4,0.1999732 -0.0086,0.2432048 -0.07242,0.3517276 -0.07011,0.1192584 -0.182679,0.2343016 -0.312172,0.3190296 l -0.06177,0.040413 0.272664,0.5631072 c 0.149965,0.3097092 0.283362,0.5902656 0.296438,0.6234592 l 0.02377,0.060352 H 26.048169 25.664422 L 25.358137,3.3123961 C 25.189681,2.9587445 25.0428,2.6690545 25.031735,2.6686409 c -0.01107,-4.12e-4 -0.02012,0.288938 -0.02012,0.6430032 V 3.9553993 H 24.636094 24.26057 Z m 1.025941,-0.2159832 c 0.0553,-0.015357 0.133756,-0.056491 0.17435,-0.091409 0.06438,-0.055378 0.07381,-0.082906 0.07381,-0.2155368 0,-0.1371636 -0.0084,-0.1595504 -0.08574,-0.2286632 -0.08876,-0.079305 -0.235506,-0.133162 -0.363543,-0.1334216 l -0.07376,-1.6e-4 v 0.3487008 0.3487008 l 0.08718,-1.6e-4 c 0.04795,-8e-5 0.132419,-0.012714 0.187718,-0.028072 z"
     id="path10" />
  <path
     style="fill:#ffb300;stroke-width:0;stroke-linecap:round;stroke-linejoin:round"
     d="m 27.442708,3.9951073 c -0.489543,-0.124074 -0.872095,-0.5046152 -1.025544,-1.020156 -0.06508,-0.2186468 -0.06437,-0.6686484 0.0014,-0.8703496 0.11483,-0.3523 0.311418,-0.6129604 0.605777,-0.8032132 0.24277,-0.15691 0.418139,-0.2026544 0.776909,-0.2026544 0.169656,0 0.341659,0.00928 0.382229,0.020628 l 0.07376,0.020628 v 0.3242364 c 0,0.2981124 -0.0038,0.3227136 -0.04694,0.3053408 -0.02582,-0.010393 -0.144269,-0.025316 -0.263227,-0.033162 -0.183568,-0.012108 -0.236169,-0.00547 -0.347721,0.043873 -0.155883,0.068955 -0.213139,0.116782 -0.296136,0.24737 -0.244657,0.3849492 -0.160835,1.0104444 0.164267,1.2257828 0.06651,0.044057 0.181739,0.09469 0.256055,0.1125188 0.123848,0.02971 0.199136,0.026713 0.446528,-0.017778 l 0.08717,-0.015678 v 0.3217344 c 0,0.3784704 0.02905,0.3508996 -0.388936,0.3690856 -0.183971,0.008 -0.317657,-8.56e-4 -0.425573,-0.028208 z"
     id="path11" />
  <path
     style="fill:#ffb300;stroke-width:0;stroke-linecap:round;stroke-linejoin:round"
     d="M 28.498625,2.5605949 V 1.1657917 h 0.76446 0.764459 v 0.2816432 0.2816428 h -0.388936 -0.388935 v 0.2816428 0.2816428 h 0.335289 0.33529 v 0.2816432 0.2816428 h -0.33529 -0.335289 v 0.2682312 0.2682316 h 0.388935 0.388936 v 0.2816428 0.2816428 h -0.764459 -0.76446 z"
     id="path12" />
</svg>
