<?xml version="1.0" encoding="UTF-8" standalone="no"?>
<!-- Uploaded to: SVG Repo, www.svgrepo.com, Generator: SVG Repo Mixer Tools -->

<svg
   fill="#000000"
   width="546.90002"
   height="546.89996"
   viewBox="-5 0 21.876001 21.875999"
   version="1.1"
   id="svg1"
   xmlns="http://www.w3.org/2000/svg"
   xmlns:svg="http://www.w3.org/2000/svg">
  <defs
     id="defs1" />
  <title
     id="title1">wordpress</title>
  <path
     d="m -3.437,10.938 c 0,-1.3749996 0.281,-2.6559996 0.813,-3.8129996 L 1.845,19.375 c -3.125,-1.5 -5.281,-4.719 -5.281,-8.438 z m 15.718,-0.469 c 0,0.813 -0.313,1.719 -0.719,3.031 L 10.624,16.625 7.218,6.5310004 c 0.563,-0.031 1.094,-0.094 1.094,-0.094 0.5,-0.063 0.438,-0.781 -0.063,-0.75 0,0 -1.531,0.094 -2.5,0.094 -0.938,0 -2.469,-0.094 -2.469,-0.094 -0.5,-0.031 -0.563,0.719 -0.063,0.75 0,0 0.469,0.063 0.969,0.094 L 5.655,10.531 3.592,16.687 0.18600001,6.5310004 c 0.563,-0.031 1.06299999,-0.094 1.06299999,-0.094 0.531,-0.063 0.469,-0.781 -0.063,-0.75 0,0 -1.49999999,0.094 -2.5,0.094 h -0.594 c 1.68800001,-2.531 4.563,-4.219 7.844,-4.219 2.438,0 4.656,0.938 6.344,2.469 -0.063,-0.031 -0.094,-0.031 -0.125,-0.031 -0.938,0 -1.594,0.813 -1.594,1.688 0,0.75 0.469,1.406 0.938,2.188 0.344,0.625 0.781,1.438 0.781,2.5939996 z m -9,9.469 L 6.094,11.75 9,19.656 c 0,0.063 0.031,0.094 0.063,0.125 -0.969,0.344 -2.031,0.531 -3.125,0.531 -0.906,0 -1.813,-0.125 -2.656,-0.375 z M 14.156,6.4380004 c 0.75,1.344 1.156,2.875 1.156,4.4999996 0,3.469 -1.875,6.469 -4.656,8.125 l 2.875,-8.313 c 0.531,-1.3129996 0.688,-2.4059996 0.688,-3.3439996 0,-0.344 0,-0.656 -0.063,-0.969 z M 5.938,4.5172418e-7 C 11.969,4.5172418e-7 16.876,4.9060004 16.876,10.938 16.876,16.97 11.97,21.876 5.938,21.876 -0.09399999,21.876 -5,16.97 -5,10.938 -5,4.9060004 -0.09399999,4.5172418e-7 5.938,4.5172418e-7 Z M 5.938,21.375 c 5.75,0 10.438,-4.688 10.438,-10.438 C 16.376,5.1870004 11.688,0.49900045 5.938,0.49900045 0.18800001,0.49900045 -4.5,5.1870004 -4.5,10.937 c 0,5.75 4.68800001,10.438 10.438,10.438 z"
     id="path1" />
  <path
     style="fill:#ffb300;stroke-width:0;stroke-linecap:round;stroke-linejoin:round"
     d="m 1.4660468,19.164473 c -2.508884,-1.370612 -4.2561988,-3.799687 -4.7439612,-6.594942 -0.1034936,-0.593099 -0.1360824,-0.998421 -0.1347676,-1.67618 0.00239,-1.2329474 0.1875704,-2.2153974 0.6332388,-3.3595978 0.073264,-0.1880972 0.1413096,-0.341726 0.151212,-0.3413972 0.021594,7.16e-4 4.4418172,12.120994 4.4261856,12.136625 -0.00598,0.006 -0.1553392,-0.06805 -0.3319076,-0.164508 z"
     id="path2" />
  <path
     style="fill:#ffb300;stroke-width:0;stroke-linecap:round;stroke-linejoin:round"
     d="M 1.900034,11.599822 C 0.97279801,8.8341616 0.22027881,6.5652208 0.22776921,6.5577304 0.23525961,6.55024 0.44470361,6.5267244 0.69320041,6.5054736 1.2822672,6.4550976 1.4179356,6.4267336 1.5099532,6.334716 1.7189996,6.1256696 1.6223108,5.7546244 1.3424748,5.6920116 c -0.049593,-0.011096 -0.37985959,-0.00478 -0.73392479,0.014033 -0.3540656,0.018815 -1.0586528,0.042914 -1.56575,0.053555 -0.91684721,0.019238 -0.92183441,0.019047 -0.89326241,-0.03434 0.051693,-0.09659 0.4639912,-0.6337664 0.6758276,-0.8805256 C -0.89802919,4.5225278 -0.28582079,3.930227 0.04686681,3.6629526 1.515738,2.4828906 3.2519524,1.7810422 5.1217748,1.6114686 5.589252,1.5690736 6.6931612,1.5910586 7.1399832,1.6516626 8.9401456,1.8958262 10.575716,2.621749 12.00479,3.810833 l 0.210993,0.17556 -0.210993,0.016712 c -0.624179,0.049438 -1.143391,0.4773628 -1.363676,1.1239156 -0.0694,0.2036784 -0.07739,0.2622656 -0.07674,0.5626412 6.16e-4,0.2865648 0.01133,0.3703712 0.07371,0.5766976 0.0912,0.301626 0.278356,0.6744716 0.63283,1.2606872 0.685568,1.1337692 0.947866,1.8708028 0.983228,2.7627824 0.02582,0.651182 -0.08218,1.197727 -0.50883,2.575021 -0.109679,0.354065 -0.402041,1.319699 -0.649692,2.145851 -0.24765,0.826152 -0.457422,1.510517 -0.46616,1.520809 C 10.62076,16.5418 9.8600168,14.314812 8.9390008,11.582641 8.0179892,8.8504728 7.259618,6.6008552 7.253736,6.5834928 7.2415876,6.5476344 7.2722676,6.5431448 7.9413768,6.4828668 8.4601044,6.436136 8.548324,6.4050596 8.6258116,6.241766 8.700782,6.0837776 8.6642324,5.8686328 8.545194,5.7672244 8.4357772,5.6740128 8.3515844,5.6687068 7.635516,5.709898 6.7245904,5.762298 4.8014808,5.762641 3.894384,5.710566 3.4983592,5.687831 3.1758736,5.68074 3.1283996,5.693723 2.8329932,5.774511 2.7670176,6.2613574 3.0328476,6.398823 3.0983586,6.4327 3.3073856,6.461211 4.0429092,6.5365902 L 4.178022,6.5504368 4.9091088,8.541756 5.640196,10.533075 4.6199364,13.574174 c -0.5611428,1.672604 -1.0233552,3.044028 -1.0271388,3.047609 -0.00378,0.0036 -0.7655272,-2.256301 -1.6927636,-5.021961 z"
     id="path3" />
  <path
     style="fill:#ffb300;stroke-width:0;stroke-linecap:round;stroke-linejoin:round"
     d="M 5.348638,20.280598 C 4.931098,20.253372 4.4713716,20.194092 4.0955576,20.119019 3.80541,20.061059 3.3337064,19.944296 3.3152856,19.925876 c -0.014367,-0.01437 2.7601108,-8.093504 2.7794536,-8.093626 0.012797,-8e-5 2.8712524,7.765942 2.9084648,7.901891 0.014089,0.05147 -0.01237,0.0644 -0.3136908,0.153277 -1.119398,0.330172 -2.2559208,0.463926 -3.3408752,0.39318 z"
     id="path4" />
  <path
     style="fill:#ffb300;stroke-width:0;stroke-linecap:round;stroke-linejoin:round"
     d="m 10.707781,18.97669 c 3.2e-4,-0.02438 2.803045,-8.120377 3.016537,-8.713683 0.06901,-0.191785 0.172372,-0.529757 0.229692,-0.7510478 0.210647,-0.8132284 0.277136,-1.3965888 0.263278,-2.30993 -0.01092,-0.719514 -0.02388,-0.7115548 0.234854,-0.1442436 0.397138,0.8707888 0.646143,1.7449608 0.779292,2.7358168 0.0609,0.4531916 0.06904,1.7352666 0.0138,2.1726736 -0.09322,0.73815 -0.235049,1.362609 -0.456903,2.011735 -0.657204,1.922923 -1.975008,3.633235 -3.67908,4.77489 -0.337523,0.226126 -0.402005,0.26207 -0.401471,0.223789 z"
     id="path5" />
  <path
     style="fill:#ffb300;stroke-width:0;stroke-linecap:round;stroke-linejoin:round"
     d="m 5.31601,21.846155 c -0.8967364,-0.06304 -1.7349356,-0.210863 -2.4945516,-0.43994 -3.9410344,-1.188492 -6.885102,-4.469473 -7.6281764,-8.501129 -0.1321564,-0.717034 -0.1623232,-1.080562 -0.162488,-1.958089 -1.6e-4,-0.878363 0.032604,-1.280829 0.1608988,-1.9761938 0.536894,-2.9099804 2.2484476,-5.4954272 4.71945561,-7.1291392 0.5383564,-0.3559356 0.820802,-0.51839 1.30532239,-0.7507832 2.5353476,-1.21604275 5.4386528,-1.40931675 8.1044864,-0.53951755 1.0012248,0.326676 2.1175788,0.89341835 2.9770238,1.51135235 2.325529,1.6720376 3.925213,4.2218696 4.40333,7.0187276 0.121485,0.710656 0.135235,0.9003448 0.135235,1.8655538 0,0.985297 -0.01905,1.219969 -0.162538,2.002041 -0.326637,1.78034 -1.153666,3.536672 -2.333184,4.954904 -2.105989,2.532206 -5.2293584,3.98989 -8.4749396,3.955276 -0.2360436,-0.0025 -0.4834872,-0.0084 -0.5498744,-0.01306 z M 7.2606872,21.30353 c 1.2538,-0.170405 2.2274092,-0.469774 3.3394808,-1.026836 1.054312,-0.52813 1.874498,-1.117774 2.697283,-1.939119 0.236901,-0.236486 0.538661,-0.56061 0.670579,-0.720277 2.330489,-2.82071 3.028166,-6.561108 1.869572,-10.0231808 C 14.874308,4.7156316 12.60387,2.3299892 9.7686504,1.2172196 8.8873436,0.87132365 8.0624412,0.66488765 7.0997484,0.54931405 6.5415356,0.48229885 5.3282024,0.48220885 4.7795472,0.54915405 2.7372204,0.79830565 0.96334041,1.541118 -0.62831279,2.813696 -1.0284236,3.1335972 -1.7374616,3.8333548 -2.0827836,4.2491292 -3.4080808,5.844812 -4.189874,7.6736836 -4.4529012,9.7936152 c -0.055689,0.4488368 -0.046482,1.9598888 0.014709,2.4140818 0.1711236,1.270171 0.504176,2.354545 1.0580748,3.444951 1.5849912,3.120215 4.6442824,5.263187 8.0791952,5.659313 0.5545808,0.06396 0.5529716,0.06389 1.3813916,0.0548 0.5948268,-0.0065 0.8725488,-0.0214 1.1802176,-0.06322 z"
     id="path6" />
</svg>
